G04 #@! TF.FileFunction,Legend,Bot*
%FSLAX46Y46*%
G04 Gerber Fmt 4.6, Leading zero omitted, Abs format (unit mm)*
G04 Created by KiCad (PCBNEW 4.0.6+dfsg1-1) date Mon Nov 13 19:33:16 2017*
%MOMM*%
%LPD*%
G01*
G04 APERTURE LIST*
%ADD10C,0.100000*%
%ADD11C,0.300000*%
G04 APERTURE END LIST*
D10*
D11*
X148317856Y-73503571D02*
X148317856Y-72003571D01*
X147674999Y-73503571D02*
X147674999Y-72717857D01*
X147746428Y-72575000D01*
X147889285Y-72503571D01*
X148103570Y-72503571D01*
X148246428Y-72575000D01*
X148317856Y-72646429D01*
X146746427Y-73503571D02*
X146889285Y-73432143D01*
X146960713Y-73360714D01*
X147032142Y-73217857D01*
X147032142Y-72789286D01*
X146960713Y-72646429D01*
X146889285Y-72575000D01*
X146746427Y-72503571D01*
X146532142Y-72503571D01*
X146389285Y-72575000D01*
X146317856Y-72646429D01*
X146246427Y-72789286D01*
X146246427Y-73217857D01*
X146317856Y-73360714D01*
X146389285Y-73432143D01*
X146532142Y-73503571D01*
X146746427Y-73503571D01*
X145389284Y-73503571D02*
X145532142Y-73432143D01*
X145603570Y-73289286D01*
X145603570Y-72003571D01*
X144246428Y-73432143D02*
X144389285Y-73503571D01*
X144674999Y-73503571D01*
X144817856Y-73432143D01*
X144889285Y-73289286D01*
X144889285Y-72717857D01*
X144817856Y-72575000D01*
X144674999Y-72503571D01*
X144389285Y-72503571D01*
X144246428Y-72575000D01*
X144174999Y-72717857D01*
X144174999Y-72860714D01*
X144889285Y-73003571D01*
X141746428Y-73503571D02*
X141746428Y-72003571D01*
X141746428Y-73432143D02*
X141889285Y-73503571D01*
X142174999Y-73503571D01*
X142317857Y-73432143D01*
X142389285Y-73360714D01*
X142460714Y-73217857D01*
X142460714Y-72789286D01*
X142389285Y-72646429D01*
X142317857Y-72575000D01*
X142174999Y-72503571D01*
X141889285Y-72503571D01*
X141746428Y-72575000D01*
X141032142Y-73503571D02*
X141032142Y-72503571D01*
X141032142Y-72003571D02*
X141103571Y-72075000D01*
X141032142Y-72146429D01*
X140960714Y-72075000D01*
X141032142Y-72003571D01*
X141032142Y-72146429D01*
X140389285Y-73432143D02*
X140246428Y-73503571D01*
X139960713Y-73503571D01*
X139817856Y-73432143D01*
X139746428Y-73289286D01*
X139746428Y-73217857D01*
X139817856Y-73075000D01*
X139960713Y-73003571D01*
X140174999Y-73003571D01*
X140317856Y-72932143D01*
X140389285Y-72789286D01*
X140389285Y-72717857D01*
X140317856Y-72575000D01*
X140174999Y-72503571D01*
X139960713Y-72503571D01*
X139817856Y-72575000D01*
X139317856Y-72503571D02*
X138746427Y-72503571D01*
X139103570Y-72003571D02*
X139103570Y-73289286D01*
X139032142Y-73432143D01*
X138889284Y-73503571D01*
X138746427Y-73503571D01*
X137603570Y-73503571D02*
X137603570Y-72717857D01*
X137674999Y-72575000D01*
X137817856Y-72503571D01*
X138103570Y-72503571D01*
X138246427Y-72575000D01*
X137603570Y-73432143D02*
X137746427Y-73503571D01*
X138103570Y-73503571D01*
X138246427Y-73432143D01*
X138317856Y-73289286D01*
X138317856Y-73146429D01*
X138246427Y-73003571D01*
X138103570Y-72932143D01*
X137746427Y-72932143D01*
X137603570Y-72860714D01*
X136889284Y-72503571D02*
X136889284Y-73503571D01*
X136889284Y-72646429D02*
X136817856Y-72575000D01*
X136674998Y-72503571D01*
X136460713Y-72503571D01*
X136317856Y-72575000D01*
X136246427Y-72717857D01*
X136246427Y-73503571D01*
X134889284Y-73432143D02*
X135032141Y-73503571D01*
X135317855Y-73503571D01*
X135460713Y-73432143D01*
X135532141Y-73360714D01*
X135603570Y-73217857D01*
X135603570Y-72789286D01*
X135532141Y-72646429D01*
X135460713Y-72575000D01*
X135317855Y-72503571D01*
X135032141Y-72503571D01*
X134889284Y-72575000D01*
X133674999Y-73432143D02*
X133817856Y-73503571D01*
X134103570Y-73503571D01*
X134246427Y-73432143D01*
X134317856Y-73289286D01*
X134317856Y-72717857D01*
X134246427Y-72575000D01*
X134103570Y-72503571D01*
X133817856Y-72503571D01*
X133674999Y-72575000D01*
X133603570Y-72717857D01*
X133603570Y-72860714D01*
X134317856Y-73003571D01*
X131103570Y-72003571D02*
X131817856Y-72003571D01*
X131889285Y-72717857D01*
X131817856Y-72646429D01*
X131674999Y-72575000D01*
X131317856Y-72575000D01*
X131174999Y-72646429D01*
X131103570Y-72717857D01*
X131032142Y-72860714D01*
X131032142Y-73217857D01*
X131103570Y-73360714D01*
X131174999Y-73432143D01*
X131317856Y-73503571D01*
X131674999Y-73503571D01*
X131817856Y-73432143D01*
X131889285Y-73360714D01*
X130317857Y-73503571D02*
X130032142Y-73503571D01*
X129889285Y-73432143D01*
X129817857Y-73360714D01*
X129674999Y-73146429D01*
X129603571Y-72860714D01*
X129603571Y-72289286D01*
X129674999Y-72146429D01*
X129746428Y-72075000D01*
X129889285Y-72003571D01*
X130174999Y-72003571D01*
X130317857Y-72075000D01*
X130389285Y-72146429D01*
X130460714Y-72289286D01*
X130460714Y-72646429D01*
X130389285Y-72789286D01*
X130317857Y-72860714D01*
X130174999Y-72932143D01*
X129889285Y-72932143D01*
X129746428Y-72860714D01*
X129674999Y-72789286D01*
X129603571Y-72646429D01*
X127817857Y-73503571D02*
X127817857Y-72503571D01*
X127817857Y-72646429D02*
X127746429Y-72575000D01*
X127603571Y-72503571D01*
X127389286Y-72503571D01*
X127246429Y-72575000D01*
X127175000Y-72717857D01*
X127175000Y-73503571D01*
X127175000Y-72717857D02*
X127103571Y-72575000D01*
X126960714Y-72503571D01*
X126746429Y-72503571D01*
X126603571Y-72575000D01*
X126532143Y-72717857D01*
X126532143Y-73503571D01*
X125817857Y-73503571D02*
X125817857Y-72503571D01*
X125817857Y-72646429D02*
X125746429Y-72575000D01*
X125603571Y-72503571D01*
X125389286Y-72503571D01*
X125246429Y-72575000D01*
X125175000Y-72717857D01*
X125175000Y-73503571D01*
X125175000Y-72717857D02*
X125103571Y-72575000D01*
X124960714Y-72503571D01*
X124746429Y-72503571D01*
X124603571Y-72575000D01*
X124532143Y-72717857D01*
X124532143Y-73503571D01*
X101103571Y-85932144D02*
X99603571Y-85932144D01*
X101103571Y-86575001D02*
X100317857Y-86575001D01*
X100175000Y-86503572D01*
X100103571Y-86360715D01*
X100103571Y-86146430D01*
X100175000Y-86003572D01*
X100246429Y-85932144D01*
X101103571Y-87503573D02*
X101032143Y-87360715D01*
X100960714Y-87289287D01*
X100817857Y-87217858D01*
X100389286Y-87217858D01*
X100246429Y-87289287D01*
X100175000Y-87360715D01*
X100103571Y-87503573D01*
X100103571Y-87717858D01*
X100175000Y-87860715D01*
X100246429Y-87932144D01*
X100389286Y-88003573D01*
X100817857Y-88003573D01*
X100960714Y-87932144D01*
X101032143Y-87860715D01*
X101103571Y-87717858D01*
X101103571Y-87503573D01*
X101103571Y-88860716D02*
X101032143Y-88717858D01*
X100889286Y-88646430D01*
X99603571Y-88646430D01*
X101032143Y-90003572D02*
X101103571Y-89860715D01*
X101103571Y-89575001D01*
X101032143Y-89432144D01*
X100889286Y-89360715D01*
X100317857Y-89360715D01*
X100175000Y-89432144D01*
X100103571Y-89575001D01*
X100103571Y-89860715D01*
X100175000Y-90003572D01*
X100317857Y-90075001D01*
X100460714Y-90075001D01*
X100603571Y-89360715D01*
X101103571Y-92503572D02*
X99603571Y-92503572D01*
X101032143Y-92503572D02*
X101103571Y-92360715D01*
X101103571Y-92075001D01*
X101032143Y-91932143D01*
X100960714Y-91860715D01*
X100817857Y-91789286D01*
X100389286Y-91789286D01*
X100246429Y-91860715D01*
X100175000Y-91932143D01*
X100103571Y-92075001D01*
X100103571Y-92360715D01*
X100175000Y-92503572D01*
X101103571Y-93217858D02*
X100103571Y-93217858D01*
X99603571Y-93217858D02*
X99675000Y-93146429D01*
X99746429Y-93217858D01*
X99675000Y-93289286D01*
X99603571Y-93217858D01*
X99746429Y-93217858D01*
X101032143Y-93860715D02*
X101103571Y-94003572D01*
X101103571Y-94289287D01*
X101032143Y-94432144D01*
X100889286Y-94503572D01*
X100817857Y-94503572D01*
X100675000Y-94432144D01*
X100603571Y-94289287D01*
X100603571Y-94075001D01*
X100532143Y-93932144D01*
X100389286Y-93860715D01*
X100317857Y-93860715D01*
X100175000Y-93932144D01*
X100103571Y-94075001D01*
X100103571Y-94289287D01*
X100175000Y-94432144D01*
X100103571Y-94932144D02*
X100103571Y-95503573D01*
X99603571Y-95146430D02*
X100889286Y-95146430D01*
X101032143Y-95217858D01*
X101103571Y-95360716D01*
X101103571Y-95503573D01*
X101103571Y-96646430D02*
X100317857Y-96646430D01*
X100175000Y-96575001D01*
X100103571Y-96432144D01*
X100103571Y-96146430D01*
X100175000Y-96003573D01*
X101032143Y-96646430D02*
X101103571Y-96503573D01*
X101103571Y-96146430D01*
X101032143Y-96003573D01*
X100889286Y-95932144D01*
X100746429Y-95932144D01*
X100603571Y-96003573D01*
X100532143Y-96146430D01*
X100532143Y-96503573D01*
X100460714Y-96646430D01*
X100103571Y-97360716D02*
X101103571Y-97360716D01*
X100246429Y-97360716D02*
X100175000Y-97432144D01*
X100103571Y-97575002D01*
X100103571Y-97789287D01*
X100175000Y-97932144D01*
X100317857Y-98003573D01*
X101103571Y-98003573D01*
X101032143Y-99360716D02*
X101103571Y-99217859D01*
X101103571Y-98932145D01*
X101032143Y-98789287D01*
X100960714Y-98717859D01*
X100817857Y-98646430D01*
X100389286Y-98646430D01*
X100246429Y-98717859D01*
X100175000Y-98789287D01*
X100103571Y-98932145D01*
X100103571Y-99217859D01*
X100175000Y-99360716D01*
X101032143Y-100575001D02*
X101103571Y-100432144D01*
X101103571Y-100146430D01*
X101032143Y-100003573D01*
X100889286Y-99932144D01*
X100317857Y-99932144D01*
X100175000Y-100003573D01*
X100103571Y-100146430D01*
X100103571Y-100432144D01*
X100175000Y-100575001D01*
X100317857Y-100646430D01*
X100460714Y-100646430D01*
X100603571Y-99932144D01*
X100103571Y-103075001D02*
X101103571Y-103075001D01*
X99532143Y-102717858D02*
X100603571Y-102360715D01*
X100603571Y-103289287D01*
X99603571Y-104575001D02*
X99603571Y-103860715D01*
X100317857Y-103789286D01*
X100246429Y-103860715D01*
X100175000Y-104003572D01*
X100175000Y-104360715D01*
X100246429Y-104503572D01*
X100317857Y-104575001D01*
X100460714Y-104646429D01*
X100817857Y-104646429D01*
X100960714Y-104575001D01*
X101032143Y-104503572D01*
X101103571Y-104360715D01*
X101103571Y-104003572D01*
X101032143Y-103860715D01*
X100960714Y-103789286D01*
X101103571Y-106432143D02*
X100103571Y-106432143D01*
X100246429Y-106432143D02*
X100175000Y-106503571D01*
X100103571Y-106646429D01*
X100103571Y-106860714D01*
X100175000Y-107003571D01*
X100317857Y-107075000D01*
X101103571Y-107075000D01*
X100317857Y-107075000D02*
X100175000Y-107146429D01*
X100103571Y-107289286D01*
X100103571Y-107503571D01*
X100175000Y-107646429D01*
X100317857Y-107717857D01*
X101103571Y-107717857D01*
X101103571Y-108432143D02*
X100103571Y-108432143D01*
X100246429Y-108432143D02*
X100175000Y-108503571D01*
X100103571Y-108646429D01*
X100103571Y-108860714D01*
X100175000Y-109003571D01*
X100317857Y-109075000D01*
X101103571Y-109075000D01*
X100317857Y-109075000D02*
X100175000Y-109146429D01*
X100103571Y-109289286D01*
X100103571Y-109503571D01*
X100175000Y-109646429D01*
X100317857Y-109717857D01*
X101103571Y-109717857D01*
M02*
