M48
;DRILL file {KiCad 4.0.6+dfsg1-1} date Mon Nov 13 19:33:22 2017
;FORMAT={-:-/ absolute / metric / decimal}
FMAT,2
METRIC,TZ
T1C0.400
T2C0.600
T3C0.800
T4C0.900
T5C1.000
T6C1.100
%
G90
G05
M71
T1
X100.Y-101.
X107.Y-104.
X107.Y-110.
X110.Y-116.
X113.Y-81.
X116.Y-114.
X117.Y-87.
X130.Y-99.
T2
X117.475Y-81.915
X117.475Y-83.415
T3
X103.505Y-88.9
X103.505Y-91.44
X103.505Y-93.98
X103.505Y-96.52
X103.505Y-99.06
X103.505Y-101.6
X103.505Y-104.14
X103.505Y-106.68
X103.505Y-109.22
X103.505Y-111.76
X111.125Y-88.9
X111.125Y-91.44
X111.125Y-93.98
X111.125Y-96.52
X111.125Y-99.06
X111.125Y-101.6
X111.125Y-104.14
X111.125Y-106.68
X111.125Y-109.22
X111.125Y-111.76
X117.475Y-90.17
X117.475Y-92.71
X117.475Y-95.25
X117.475Y-97.79
X117.475Y-100.33
X117.475Y-102.87
X117.475Y-105.41
X117.475Y-107.95
X117.475Y-110.49
X118.425Y-76.825
X125.095Y-90.17
X125.095Y-92.71
X125.095Y-95.25
X125.095Y-97.79
X125.095Y-100.33
X125.095Y-102.87
X125.095Y-105.41
X125.095Y-107.95
X125.095Y-110.49
X128.585Y-76.825
X131.425Y-103.825
X131.445Y-95.25
X131.445Y-108.585
X136.525Y-86.995
X141.585Y-103.825
X141.605Y-95.25
X141.605Y-108.585
X146.685Y-86.995
T4
X109.855Y-74.295
X109.855Y-76.835
X145.415Y-94.06
X145.415Y-99.06
X145.415Y-104.22
X145.415Y-109.22
X150.415Y-96.56
X150.415Y-106.72
T5
X103.505Y-82.55
X106.045Y-82.55
X137.16Y-82.55
X139.7Y-82.55
X143.51Y-82.55
X146.05Y-82.55
X151.765Y-82.55
X154.305Y-82.55
T6
X154.79Y-100.91
X154.79Y-105.41
X154.94Y-91.44
X154.94Y-95.94
X161.29Y-100.91
X161.29Y-105.41
X161.44Y-91.44
X161.44Y-95.94
T0
M30
