G04 #@! TF.FileFunction,Copper,L2,Bot,Signal*
%FSLAX46Y46*%
G04 Gerber Fmt 4.6, Leading zero omitted, Abs format (unit mm)*
G04 Created by KiCad (PCBNEW 4.0.6+dfsg1-1) date Sun Nov 12 00:41:49 2017*
%MOMM*%
%LPD*%
G01*
G04 APERTURE LIST*
%ADD10C,0.100000*%
%ADD11C,5.000000*%
%ADD12R,1.200000X1.200000*%
%ADD13C,1.200000*%
%ADD14C,1.600000*%
%ADD15O,1.600000X1.600000*%
%ADD16C,1.620000*%
%ADD17R,1.600000X1.600000*%
%ADD18C,2.000000*%
%ADD19R,1.800000X1.800000*%
%ADD20C,1.800000*%
%ADD21R,1.700000X1.700000*%
%ADD22O,1.700000X1.700000*%
%ADD23C,0.600000*%
%ADD24C,0.250000*%
%ADD25C,0.254000*%
G04 APERTURE END LIST*
D10*
D11*
X102235000Y-120015000D03*
X160655000Y-120015000D03*
X160655000Y-74930000D03*
D12*
X117475000Y-81915000D03*
D13*
X117475000Y-83415000D03*
D14*
X146685000Y-86995000D03*
D15*
X136525000Y-86995000D03*
D14*
X131445000Y-103505000D03*
D15*
X141605000Y-103505000D03*
D14*
X117475000Y-76200000D03*
D15*
X127635000Y-76200000D03*
D16*
X145415000Y-104220000D03*
X150415000Y-106720000D03*
X145415000Y-109220000D03*
X145415000Y-94060000D03*
X150415000Y-96560000D03*
X145415000Y-99060000D03*
D17*
X125095000Y-110490000D03*
D15*
X117475000Y-90170000D03*
X125095000Y-107950000D03*
X117475000Y-92710000D03*
X125095000Y-105410000D03*
X117475000Y-95250000D03*
X125095000Y-102870000D03*
X117475000Y-97790000D03*
X125095000Y-100330000D03*
X117475000Y-100330000D03*
X125095000Y-97790000D03*
X117475000Y-102870000D03*
X125095000Y-95250000D03*
X117475000Y-105410000D03*
X125095000Y-92710000D03*
X117475000Y-107950000D03*
X125095000Y-90170000D03*
X117475000Y-110490000D03*
D14*
X131445000Y-95250000D03*
D15*
X141605000Y-95250000D03*
D18*
X161290000Y-100910000D03*
X161290000Y-105410000D03*
X154790000Y-100910000D03*
X154790000Y-105410000D03*
X154940000Y-95940000D03*
X154940000Y-91440000D03*
X161440000Y-95940000D03*
X161440000Y-91440000D03*
D17*
X111125000Y-111760000D03*
D15*
X103505000Y-88900000D03*
X111125000Y-109220000D03*
X103505000Y-91440000D03*
X111125000Y-106680000D03*
X103505000Y-93980000D03*
X111125000Y-104140000D03*
X103505000Y-96520000D03*
X111125000Y-101600000D03*
X103505000Y-99060000D03*
X111125000Y-99060000D03*
X103505000Y-101600000D03*
X111125000Y-96520000D03*
X103505000Y-104140000D03*
X111125000Y-93980000D03*
X103505000Y-106680000D03*
X111125000Y-91440000D03*
X103505000Y-109220000D03*
X111125000Y-88900000D03*
X103505000Y-111760000D03*
D19*
X109855000Y-76835000D03*
D20*
X109855000Y-74295000D03*
D14*
X131445000Y-108585000D03*
D15*
X141605000Y-108585000D03*
D21*
X137160000Y-82550000D03*
D22*
X139700000Y-82550000D03*
D21*
X151765000Y-82550000D03*
D22*
X154305000Y-82550000D03*
D21*
X143510000Y-82550000D03*
D22*
X146050000Y-82550000D03*
D21*
X103505000Y-82550000D03*
D22*
X106045000Y-82550000D03*
D11*
X102235000Y-74930000D03*
D23*
X131445000Y-98425000D03*
X134620000Y-95250000D03*
X121285000Y-80010000D03*
X128270000Y-97155000D03*
X138430000Y-108585000D03*
X122555000Y-97790000D03*
D24*
X137160000Y-82550000D02*
X130810000Y-76200000D01*
X130810000Y-76200000D02*
X127635000Y-76200000D01*
X136525000Y-86995000D02*
X130810000Y-92710000D01*
X130810000Y-92710000D02*
X125095000Y-92710000D01*
X127635000Y-76200000D02*
X121920000Y-81915000D01*
X121920000Y-81915000D02*
X117475000Y-81915000D01*
X117475000Y-81915000D02*
X112395000Y-76835000D01*
X112395000Y-76835000D02*
X109855000Y-76835000D01*
X141605000Y-95250000D02*
X142875000Y-93980000D01*
X142875000Y-93980000D02*
X145415000Y-93980000D01*
X145415000Y-93980000D02*
X145415000Y-94060000D01*
X143510000Y-82550000D02*
X144780000Y-83820000D01*
X144780000Y-83820000D02*
X147320000Y-83820000D01*
X147320000Y-83820000D02*
X148590000Y-82550000D01*
X148590000Y-82550000D02*
X151765000Y-82550000D01*
X137160000Y-82550000D02*
X138430000Y-83820000D01*
X138430000Y-83820000D02*
X141605000Y-83820000D01*
X141605000Y-83820000D02*
X142875000Y-82550000D01*
X142875000Y-82550000D02*
X143510000Y-82550000D01*
X125095000Y-102870000D02*
X129540000Y-98425000D01*
X129540000Y-98425000D02*
X131445000Y-98425000D01*
X134620000Y-95250000D02*
X135890000Y-96520000D01*
X135890000Y-96520000D02*
X150495000Y-96520000D01*
X150495000Y-96520000D02*
X150415000Y-96560000D01*
X145415000Y-104220000D02*
X145415000Y-104140000D01*
X145415000Y-104140000D02*
X147955000Y-106680000D01*
X147955000Y-106680000D02*
X150495000Y-106680000D01*
X150495000Y-106680000D02*
X150415000Y-106720000D01*
X150415000Y-106720000D02*
X150495000Y-106680000D01*
X150495000Y-106680000D02*
X151765000Y-105410000D01*
X151765000Y-105410000D02*
X154790000Y-105410000D01*
X154790000Y-105410000D02*
X161290000Y-105410000D01*
X161290000Y-100910000D02*
X161290000Y-100965000D01*
X161290000Y-100965000D02*
X154940000Y-100965000D01*
X154940000Y-100965000D02*
X154790000Y-100910000D01*
X146050000Y-82550000D02*
X144780000Y-81280000D01*
X144780000Y-81280000D02*
X142240000Y-81280000D01*
X142240000Y-81280000D02*
X140970000Y-82550000D01*
X140970000Y-82550000D02*
X139700000Y-82550000D01*
X131445000Y-95250000D02*
X135255000Y-99060000D01*
X135255000Y-99060000D02*
X145415000Y-99060000D01*
X131445000Y-95250000D02*
X125095000Y-95250000D01*
X117475000Y-90170000D02*
X109855000Y-90170000D01*
X109855000Y-90170000D02*
X108585000Y-88900000D01*
X108585000Y-88900000D02*
X103505000Y-88900000D01*
X117475000Y-92710000D02*
X109855000Y-92710000D01*
X109855000Y-92710000D02*
X108585000Y-91440000D01*
X108585000Y-91440000D02*
X103505000Y-91440000D01*
X103505000Y-93980000D02*
X104775000Y-95250000D01*
X104775000Y-95250000D02*
X117475000Y-95250000D01*
X103505000Y-96520000D02*
X104775000Y-97790000D01*
X104775000Y-97790000D02*
X117475000Y-97790000D01*
X103505000Y-99060000D02*
X104775000Y-100330000D01*
X104775000Y-100330000D02*
X117475000Y-100330000D01*
X103505000Y-101600000D02*
X104775000Y-102870000D01*
X104775000Y-102870000D02*
X117475000Y-102870000D01*
X103505000Y-104140000D02*
X104775000Y-105410000D01*
X104775000Y-105410000D02*
X117475000Y-105410000D01*
X103505000Y-106680000D02*
X104775000Y-107950000D01*
X104775000Y-107950000D02*
X117475000Y-107950000D01*
X103505000Y-109220000D02*
X104775000Y-110490000D01*
X104775000Y-110490000D02*
X117475000Y-110490000D01*
X103505000Y-111760000D02*
X104775000Y-113030000D01*
X104775000Y-113030000D02*
X112395000Y-113030000D01*
X112395000Y-113030000D02*
X113665000Y-111760000D01*
X113665000Y-111760000D02*
X118745000Y-111760000D01*
X118745000Y-111760000D02*
X120015000Y-110490000D01*
X120015000Y-110490000D02*
X125095000Y-110490000D01*
X109855000Y-74295000D02*
X111125000Y-75565000D01*
X111125000Y-75565000D02*
X113030000Y-75565000D01*
X113030000Y-75565000D02*
X117475000Y-80010000D01*
X117475000Y-80010000D02*
X121285000Y-80010000D01*
X154940000Y-91440000D02*
X161440000Y-91440000D01*
X141605000Y-103505000D02*
X144780000Y-100330000D01*
X144780000Y-100330000D02*
X146685000Y-100330000D01*
X146685000Y-100330000D02*
X149225000Y-97790000D01*
X149225000Y-97790000D02*
X151765000Y-97790000D01*
X151765000Y-97790000D02*
X153670000Y-95885000D01*
X153670000Y-95885000D02*
X154940000Y-95885000D01*
X154940000Y-95885000D02*
X154940000Y-95940000D01*
X125095000Y-105410000D02*
X125730000Y-104775000D01*
X125730000Y-104775000D02*
X132715000Y-104775000D01*
X132715000Y-104775000D02*
X133985000Y-103505000D01*
X133985000Y-103505000D02*
X141605000Y-103505000D01*
X117475000Y-83415000D02*
X117475000Y-83185000D01*
X117475000Y-83185000D02*
X116205000Y-83185000D01*
X116205000Y-83185000D02*
X115570000Y-82550000D01*
X115570000Y-82550000D02*
X106045000Y-82550000D01*
X154940000Y-95940000D02*
X154940000Y-95885000D01*
X154940000Y-95885000D02*
X161290000Y-95885000D01*
X161290000Y-95885000D02*
X161440000Y-95940000D01*
X103505000Y-82550000D02*
X108585000Y-87630000D01*
X108585000Y-87630000D02*
X112395000Y-87630000D01*
X112395000Y-87630000D02*
X113665000Y-88900000D01*
X113665000Y-88900000D02*
X118745000Y-88900000D01*
X118745000Y-88900000D02*
X120015000Y-90170000D01*
X120015000Y-90170000D02*
X125095000Y-90170000D01*
X125095000Y-100330000D02*
X128270000Y-97155000D01*
X138430000Y-108585000D02*
X139700000Y-109855000D01*
X139700000Y-109855000D02*
X142875000Y-109855000D01*
X142875000Y-109855000D02*
X143510000Y-109220000D01*
X143510000Y-109220000D02*
X145415000Y-109220000D01*
X125095000Y-100330000D02*
X122555000Y-97790000D01*
D25*
G36*
X158881485Y-72270727D02*
X157998826Y-73151847D01*
X157520546Y-74303674D01*
X157519457Y-75550854D01*
X157995727Y-76703515D01*
X158876847Y-77586174D01*
X160028674Y-78064454D01*
X161275854Y-78065543D01*
X162428515Y-77589273D01*
X163311174Y-76708153D01*
X163755000Y-75639301D01*
X163755000Y-119308125D01*
X163314273Y-118241485D01*
X162433153Y-117358826D01*
X161281326Y-116880546D01*
X160034146Y-116879457D01*
X158881485Y-117355727D01*
X157998826Y-118236847D01*
X157520546Y-119388674D01*
X157519457Y-120635854D01*
X157995727Y-121788515D01*
X158876847Y-122671174D01*
X159945699Y-123115000D01*
X106105081Y-123115000D01*
X106065954Y-122918295D01*
X105912046Y-122687954D01*
X105681705Y-122534046D01*
X105410000Y-122480000D01*
X104203127Y-122480000D01*
X104891174Y-121793153D01*
X105369454Y-120641326D01*
X105370543Y-119394146D01*
X104894273Y-118241485D01*
X104013153Y-117358826D01*
X102861326Y-116880546D01*
X101614146Y-116879457D01*
X100461485Y-117355727D01*
X99578826Y-118236847D01*
X99135000Y-119305699D01*
X99135000Y-81700000D01*
X102007560Y-81700000D01*
X102007560Y-83400000D01*
X102051838Y-83635317D01*
X102190910Y-83851441D01*
X102403110Y-83996431D01*
X102655000Y-84047440D01*
X103927638Y-84047440D01*
X108020198Y-88140000D01*
X104717995Y-88140000D01*
X104547811Y-87885302D01*
X104082264Y-87574233D01*
X103533113Y-87465000D01*
X103476887Y-87465000D01*
X102927736Y-87574233D01*
X102462189Y-87885302D01*
X102151120Y-88350849D01*
X102041887Y-88900000D01*
X102151120Y-89449151D01*
X102462189Y-89914698D01*
X102844275Y-90170000D01*
X102462189Y-90425302D01*
X102151120Y-90890849D01*
X102041887Y-91440000D01*
X102151120Y-91989151D01*
X102462189Y-92454698D01*
X102844275Y-92710000D01*
X102462189Y-92965302D01*
X102151120Y-93430849D01*
X102041887Y-93980000D01*
X102151120Y-94529151D01*
X102462189Y-94994698D01*
X102844275Y-95250000D01*
X102462189Y-95505302D01*
X102151120Y-95970849D01*
X102041887Y-96520000D01*
X102151120Y-97069151D01*
X102462189Y-97534698D01*
X102844275Y-97790000D01*
X102462189Y-98045302D01*
X102151120Y-98510849D01*
X102041887Y-99060000D01*
X102151120Y-99609151D01*
X102462189Y-100074698D01*
X102844275Y-100330000D01*
X102462189Y-100585302D01*
X102151120Y-101050849D01*
X102041887Y-101600000D01*
X102151120Y-102149151D01*
X102462189Y-102614698D01*
X102844275Y-102870000D01*
X102462189Y-103125302D01*
X102151120Y-103590849D01*
X102041887Y-104140000D01*
X102151120Y-104689151D01*
X102462189Y-105154698D01*
X102844275Y-105410000D01*
X102462189Y-105665302D01*
X102151120Y-106130849D01*
X102041887Y-106680000D01*
X102151120Y-107229151D01*
X102462189Y-107694698D01*
X102844275Y-107950000D01*
X102462189Y-108205302D01*
X102151120Y-108670849D01*
X102041887Y-109220000D01*
X102151120Y-109769151D01*
X102462189Y-110234698D01*
X102844275Y-110490000D01*
X102462189Y-110745302D01*
X102151120Y-111210849D01*
X102041887Y-111760000D01*
X102151120Y-112309151D01*
X102462189Y-112774698D01*
X102927736Y-113085767D01*
X103476887Y-113195000D01*
X103533113Y-113195000D01*
X103810102Y-113139904D01*
X104237599Y-113567401D01*
X104484160Y-113732148D01*
X104775000Y-113790000D01*
X112395000Y-113790000D01*
X112685839Y-113732148D01*
X112932401Y-113567401D01*
X113979802Y-112520000D01*
X118745000Y-112520000D01*
X119035839Y-112462148D01*
X119282401Y-112297401D01*
X120329802Y-111250000D01*
X123647560Y-111250000D01*
X123647560Y-111290000D01*
X123691838Y-111525317D01*
X123830910Y-111741441D01*
X124043110Y-111886431D01*
X124295000Y-111937440D01*
X125895000Y-111937440D01*
X126130317Y-111893162D01*
X126346441Y-111754090D01*
X126491431Y-111541890D01*
X126542440Y-111290000D01*
X126542440Y-109690000D01*
X126498162Y-109454683D01*
X126359090Y-109238559D01*
X126146890Y-109093569D01*
X125987384Y-109061268D01*
X126161385Y-108869187D01*
X130009752Y-108869187D01*
X130227757Y-109396800D01*
X130631077Y-109800824D01*
X131158309Y-110019750D01*
X131729187Y-110020248D01*
X132256800Y-109802243D01*
X132660824Y-109398923D01*
X132879750Y-108871691D01*
X132879838Y-108770167D01*
X137494838Y-108770167D01*
X137636883Y-109113943D01*
X137899673Y-109377192D01*
X138243201Y-109519838D01*
X138290077Y-109519879D01*
X139162599Y-110392401D01*
X139409160Y-110557148D01*
X139700000Y-110615000D01*
X142875000Y-110615000D01*
X143165839Y-110557148D01*
X143412401Y-110392401D01*
X143824802Y-109980000D01*
X144165534Y-109980000D01*
X144189275Y-110037457D01*
X144595405Y-110444297D01*
X145126311Y-110664748D01*
X145701167Y-110665250D01*
X146232457Y-110445725D01*
X146639297Y-110039595D01*
X146859748Y-109508689D01*
X146860250Y-108933833D01*
X146640725Y-108402543D01*
X146234595Y-107995703D01*
X145703689Y-107775252D01*
X145128833Y-107774750D01*
X144597543Y-107994275D01*
X144190703Y-108400405D01*
X144165957Y-108460000D01*
X143510000Y-108460000D01*
X143219161Y-108517852D01*
X142972599Y-108682599D01*
X142899127Y-108756071D01*
X142874915Y-108712000D01*
X141732000Y-108712000D01*
X141732000Y-108732000D01*
X141478000Y-108732000D01*
X141478000Y-108712000D01*
X140335085Y-108712000D01*
X140213096Y-108934039D01*
X140279764Y-109095000D01*
X140014802Y-109095000D01*
X139365122Y-108445320D01*
X139365162Y-108399833D01*
X139297452Y-108235961D01*
X140213096Y-108235961D01*
X140335085Y-108458000D01*
X141478000Y-108458000D01*
X141478000Y-107314371D01*
X141732000Y-107314371D01*
X141732000Y-108458000D01*
X142874915Y-108458000D01*
X142996904Y-108235961D01*
X142836041Y-107847577D01*
X142460134Y-107432611D01*
X141954041Y-107193086D01*
X141732000Y-107314371D01*
X141478000Y-107314371D01*
X141255959Y-107193086D01*
X140749866Y-107432611D01*
X140373959Y-107847577D01*
X140213096Y-108235961D01*
X139297452Y-108235961D01*
X139223117Y-108056057D01*
X138960327Y-107792808D01*
X138616799Y-107650162D01*
X138244833Y-107649838D01*
X137901057Y-107791883D01*
X137637808Y-108054673D01*
X137495162Y-108398201D01*
X137494838Y-108770167D01*
X132879838Y-108770167D01*
X132880248Y-108300813D01*
X132662243Y-107773200D01*
X132258923Y-107369176D01*
X131731691Y-107150250D01*
X131160813Y-107149752D01*
X130633200Y-107367757D01*
X130229176Y-107771077D01*
X130010250Y-108298309D01*
X130009752Y-108869187D01*
X126161385Y-108869187D01*
X126326041Y-108687423D01*
X126486904Y-108299039D01*
X126364915Y-108077000D01*
X125222000Y-108077000D01*
X125222000Y-108097000D01*
X124968000Y-108097000D01*
X124968000Y-108077000D01*
X123825085Y-108077000D01*
X123703096Y-108299039D01*
X123863959Y-108687423D01*
X124201590Y-109060136D01*
X124059683Y-109086838D01*
X123843559Y-109225910D01*
X123698569Y-109438110D01*
X123647560Y-109690000D01*
X123647560Y-109730000D01*
X120015000Y-109730000D01*
X119724160Y-109787852D01*
X119477599Y-109952599D01*
X118937595Y-110492603D01*
X118938113Y-110490000D01*
X118828880Y-109940849D01*
X118517811Y-109475302D01*
X118135725Y-109220000D01*
X118517811Y-108964698D01*
X118828880Y-108499151D01*
X118938113Y-107950000D01*
X118828880Y-107400849D01*
X118517811Y-106935302D01*
X118135725Y-106680000D01*
X118517811Y-106424698D01*
X118828880Y-105959151D01*
X118938113Y-105410000D01*
X118828880Y-104860849D01*
X118517811Y-104395302D01*
X118135725Y-104140000D01*
X118517811Y-103884698D01*
X118828880Y-103419151D01*
X118938113Y-102870000D01*
X118828880Y-102320849D01*
X118517811Y-101855302D01*
X118135725Y-101600000D01*
X118517811Y-101344698D01*
X118828880Y-100879151D01*
X118938113Y-100330000D01*
X118828880Y-99780849D01*
X118517811Y-99315302D01*
X118135725Y-99060000D01*
X118517811Y-98804698D01*
X118828880Y-98339151D01*
X118901280Y-97975167D01*
X121619838Y-97975167D01*
X121761883Y-98318943D01*
X122024673Y-98582192D01*
X122368201Y-98724838D01*
X122415077Y-98724879D01*
X123696312Y-100006114D01*
X123631887Y-100330000D01*
X123741120Y-100879151D01*
X124052189Y-101344698D01*
X124434275Y-101600000D01*
X124052189Y-101855302D01*
X123741120Y-102320849D01*
X123631887Y-102870000D01*
X123741120Y-103419151D01*
X124052189Y-103884698D01*
X124434275Y-104140000D01*
X124052189Y-104395302D01*
X123741120Y-104860849D01*
X123631887Y-105410000D01*
X123741120Y-105959151D01*
X124052189Y-106424698D01*
X124456703Y-106694986D01*
X124239866Y-106797611D01*
X123863959Y-107212577D01*
X123703096Y-107600961D01*
X123825085Y-107823000D01*
X124968000Y-107823000D01*
X124968000Y-107803000D01*
X125222000Y-107803000D01*
X125222000Y-107823000D01*
X126364915Y-107823000D01*
X126486904Y-107600961D01*
X126326041Y-107212577D01*
X125950134Y-106797611D01*
X125733297Y-106694986D01*
X126137811Y-106424698D01*
X126448880Y-105959151D01*
X126533249Y-105535000D01*
X132715000Y-105535000D01*
X133005839Y-105477148D01*
X133252401Y-105312401D01*
X134299802Y-104265000D01*
X140392005Y-104265000D01*
X140562189Y-104519698D01*
X141027736Y-104830767D01*
X141576887Y-104940000D01*
X141633113Y-104940000D01*
X142182264Y-104830767D01*
X142647811Y-104519698D01*
X142656852Y-104506167D01*
X143969750Y-104506167D01*
X144189275Y-105037457D01*
X144595405Y-105444297D01*
X145126311Y-105664748D01*
X145701167Y-105665250D01*
X145817415Y-105617217D01*
X147417599Y-107217401D01*
X147664160Y-107382148D01*
X147712414Y-107391746D01*
X147955000Y-107440000D01*
X149149007Y-107440000D01*
X149189275Y-107537457D01*
X149595405Y-107944297D01*
X150126311Y-108164748D01*
X150701167Y-108165250D01*
X151232457Y-107945725D01*
X151639297Y-107539595D01*
X151859748Y-107008689D01*
X151860250Y-106433833D01*
X151847303Y-106402499D01*
X152079802Y-106170000D01*
X153334953Y-106170000D01*
X153403106Y-106334943D01*
X153862637Y-106795278D01*
X154463352Y-107044716D01*
X155113795Y-107045284D01*
X155714943Y-106796894D01*
X156175278Y-106337363D01*
X156244773Y-106170000D01*
X159834953Y-106170000D01*
X159903106Y-106334943D01*
X160362637Y-106795278D01*
X160963352Y-107044716D01*
X161613795Y-107045284D01*
X162214943Y-106796894D01*
X162675278Y-106337363D01*
X162924716Y-105736648D01*
X162925284Y-105086205D01*
X162676894Y-104485057D01*
X162217363Y-104024722D01*
X161616648Y-103775284D01*
X160966205Y-103774716D01*
X160365057Y-104023106D01*
X159904722Y-104482637D01*
X159835227Y-104650000D01*
X156245047Y-104650000D01*
X156176894Y-104485057D01*
X155717363Y-104024722D01*
X155116648Y-103775284D01*
X154466205Y-103774716D01*
X153865057Y-104023106D01*
X153404722Y-104482637D01*
X153335227Y-104650000D01*
X151765000Y-104650000D01*
X151474160Y-104707852D01*
X151227599Y-104872599D01*
X150789369Y-105310829D01*
X150703689Y-105275252D01*
X150128833Y-105274750D01*
X149597543Y-105494275D01*
X149190703Y-105900405D01*
X149182566Y-105920000D01*
X148269802Y-105920000D01*
X146859379Y-104509577D01*
X146859748Y-104508689D01*
X146860250Y-103933833D01*
X146640725Y-103402543D01*
X146234595Y-102995703D01*
X145703689Y-102775252D01*
X145128833Y-102774750D01*
X144597543Y-102994275D01*
X144190703Y-103400405D01*
X143970252Y-103931311D01*
X143969750Y-104506167D01*
X142656852Y-104506167D01*
X142958880Y-104054151D01*
X143068113Y-103505000D01*
X143003688Y-103181114D01*
X144951007Y-101233795D01*
X153154716Y-101233795D01*
X153403106Y-101834943D01*
X153862637Y-102295278D01*
X154463352Y-102544716D01*
X155113795Y-102545284D01*
X155714943Y-102296894D01*
X156175278Y-101837363D01*
X156221935Y-101725000D01*
X159857678Y-101725000D01*
X159903106Y-101834943D01*
X160362637Y-102295278D01*
X160963352Y-102544716D01*
X161613795Y-102545284D01*
X162214943Y-102296894D01*
X162675278Y-101837363D01*
X162924716Y-101236648D01*
X162925284Y-100586205D01*
X162676894Y-99985057D01*
X162217363Y-99524722D01*
X161616648Y-99275284D01*
X160966205Y-99274716D01*
X160365057Y-99523106D01*
X159904722Y-99982637D01*
X159812389Y-100205000D01*
X156267773Y-100205000D01*
X156176894Y-99985057D01*
X155717363Y-99524722D01*
X155116648Y-99275284D01*
X154466205Y-99274716D01*
X153865057Y-99523106D01*
X153404722Y-99982637D01*
X153155284Y-100583352D01*
X153154716Y-101233795D01*
X144951007Y-101233795D01*
X145094802Y-101090000D01*
X146685000Y-101090000D01*
X146975839Y-101032148D01*
X147222401Y-100867401D01*
X149539802Y-98550000D01*
X151765000Y-98550000D01*
X152055839Y-98492148D01*
X152302401Y-98327401D01*
X153658890Y-96970912D01*
X154012637Y-97325278D01*
X154613352Y-97574716D01*
X155263795Y-97575284D01*
X155864943Y-97326894D01*
X156325278Y-96867363D01*
X156417611Y-96645000D01*
X159962227Y-96645000D01*
X160053106Y-96864943D01*
X160512637Y-97325278D01*
X161113352Y-97574716D01*
X161763795Y-97575284D01*
X162364943Y-97326894D01*
X162825278Y-96867363D01*
X163074716Y-96266648D01*
X163075284Y-95616205D01*
X162826894Y-95015057D01*
X162367363Y-94554722D01*
X161766648Y-94305284D01*
X161116205Y-94304716D01*
X160515057Y-94553106D01*
X160054722Y-95012637D01*
X160008065Y-95125000D01*
X156372322Y-95125000D01*
X156326894Y-95015057D01*
X155867363Y-94554722D01*
X155266648Y-94305284D01*
X154616205Y-94304716D01*
X154015057Y-94553106D01*
X153554722Y-95012637D01*
X153493486Y-95160111D01*
X153379161Y-95182852D01*
X153132599Y-95347599D01*
X151859947Y-96620251D01*
X151860250Y-96273833D01*
X151640725Y-95742543D01*
X151234595Y-95335703D01*
X150703689Y-95115252D01*
X150128833Y-95114750D01*
X149597543Y-95334275D01*
X149190703Y-95740405D01*
X149182566Y-95760000D01*
X142930236Y-95760000D01*
X142996904Y-95599039D01*
X142874915Y-95377000D01*
X141732000Y-95377000D01*
X141732000Y-95397000D01*
X141478000Y-95397000D01*
X141478000Y-95377000D01*
X140335085Y-95377000D01*
X140213096Y-95599039D01*
X140279764Y-95760000D01*
X136204802Y-95760000D01*
X135555122Y-95110320D01*
X135555162Y-95064833D01*
X135487452Y-94900961D01*
X140213096Y-94900961D01*
X140335085Y-95123000D01*
X141478000Y-95123000D01*
X141478000Y-93979371D01*
X141732000Y-93979371D01*
X141732000Y-95123000D01*
X142874915Y-95123000D01*
X142901292Y-95074988D01*
X144579617Y-95074988D01*
X144654980Y-95322144D01*
X145195834Y-95516916D01*
X145770055Y-95489886D01*
X146175020Y-95322144D01*
X146250383Y-95074988D01*
X145415000Y-94239605D01*
X144579617Y-95074988D01*
X142901292Y-95074988D01*
X142996904Y-94900961D01*
X142836041Y-94512577D01*
X142460134Y-94097611D01*
X141954041Y-93858086D01*
X141732000Y-93979371D01*
X141478000Y-93979371D01*
X141255959Y-93858086D01*
X140749866Y-94097611D01*
X140373959Y-94512577D01*
X140213096Y-94900961D01*
X135487452Y-94900961D01*
X135413117Y-94721057D01*
X135150327Y-94457808D01*
X134806799Y-94315162D01*
X134434833Y-94314838D01*
X134091057Y-94456883D01*
X133827808Y-94719673D01*
X133685162Y-95063201D01*
X133684838Y-95435167D01*
X133826883Y-95778943D01*
X134089673Y-96042192D01*
X134433201Y-96184838D01*
X134480077Y-96184879D01*
X135352599Y-97057401D01*
X135599160Y-97222148D01*
X135890000Y-97280000D01*
X148660198Y-97280000D01*
X146859982Y-99080216D01*
X146860250Y-98773833D01*
X146640725Y-98242543D01*
X146234595Y-97835703D01*
X145703689Y-97615252D01*
X145128833Y-97614750D01*
X144597543Y-97834275D01*
X144190703Y-98240405D01*
X144165957Y-98300000D01*
X135569802Y-98300000D01*
X132858256Y-95588454D01*
X132879750Y-95536691D01*
X132880248Y-94965813D01*
X132662243Y-94438200D01*
X132258923Y-94034176D01*
X131793305Y-93840834D01*
X143958084Y-93840834D01*
X143985114Y-94415055D01*
X144152856Y-94820020D01*
X144400012Y-94895383D01*
X145235395Y-94060000D01*
X145594605Y-94060000D01*
X146429988Y-94895383D01*
X146677144Y-94820020D01*
X146871916Y-94279166D01*
X146844886Y-93704945D01*
X146677144Y-93299980D01*
X146429988Y-93224617D01*
X145594605Y-94060000D01*
X145235395Y-94060000D01*
X144400012Y-93224617D01*
X144152856Y-93299980D01*
X143958084Y-93840834D01*
X131793305Y-93840834D01*
X131731691Y-93815250D01*
X131160813Y-93814752D01*
X130633200Y-94032757D01*
X130229176Y-94436077D01*
X130206785Y-94490000D01*
X126307995Y-94490000D01*
X126137811Y-94235302D01*
X125733297Y-93965014D01*
X125950134Y-93862389D01*
X126326041Y-93447423D01*
X126486904Y-93059039D01*
X126479198Y-93045012D01*
X144579617Y-93045012D01*
X145415000Y-93880395D01*
X146250383Y-93045012D01*
X146175020Y-92797856D01*
X145634166Y-92603084D01*
X145059945Y-92630114D01*
X144654980Y-92797856D01*
X144579617Y-93045012D01*
X126479198Y-93045012D01*
X126364915Y-92837000D01*
X125222000Y-92837000D01*
X125222000Y-92857000D01*
X124968000Y-92857000D01*
X124968000Y-92837000D01*
X123825085Y-92837000D01*
X123703096Y-93059039D01*
X123863959Y-93447423D01*
X124239866Y-93862389D01*
X124456703Y-93965014D01*
X124052189Y-94235302D01*
X123741120Y-94700849D01*
X123631887Y-95250000D01*
X123741120Y-95799151D01*
X124052189Y-96264698D01*
X124434275Y-96520000D01*
X124052189Y-96775302D01*
X123741120Y-97240849D01*
X123631887Y-97790000D01*
X123632405Y-97792603D01*
X123490122Y-97650320D01*
X123490162Y-97604833D01*
X123348117Y-97261057D01*
X123085327Y-96997808D01*
X122741799Y-96855162D01*
X122369833Y-96854838D01*
X122026057Y-96996883D01*
X121762808Y-97259673D01*
X121620162Y-97603201D01*
X121619838Y-97975167D01*
X118901280Y-97975167D01*
X118938113Y-97790000D01*
X118828880Y-97240849D01*
X118517811Y-96775302D01*
X118135725Y-96520000D01*
X118517811Y-96264698D01*
X118828880Y-95799151D01*
X118938113Y-95250000D01*
X118828880Y-94700849D01*
X118517811Y-94235302D01*
X118135725Y-93980000D01*
X118517811Y-93724698D01*
X118828880Y-93259151D01*
X118938113Y-92710000D01*
X118828880Y-92160849D01*
X118517811Y-91695302D01*
X118135725Y-91440000D01*
X118517811Y-91184698D01*
X118828880Y-90719151D01*
X118938113Y-90170000D01*
X118937595Y-90167397D01*
X119477599Y-90707401D01*
X119724160Y-90872148D01*
X120015000Y-90930000D01*
X123882005Y-90930000D01*
X124052189Y-91184698D01*
X124456703Y-91454986D01*
X124239866Y-91557611D01*
X123863959Y-91972577D01*
X123703096Y-92360961D01*
X123825085Y-92583000D01*
X124968000Y-92583000D01*
X124968000Y-92563000D01*
X125222000Y-92563000D01*
X125222000Y-92583000D01*
X126364915Y-92583000D01*
X126486904Y-92360961D01*
X126326041Y-91972577D01*
X126136911Y-91763795D01*
X153304716Y-91763795D01*
X153553106Y-92364943D01*
X154012637Y-92825278D01*
X154613352Y-93074716D01*
X155263795Y-93075284D01*
X155864943Y-92826894D01*
X156325278Y-92367363D01*
X156394773Y-92200000D01*
X159984953Y-92200000D01*
X160053106Y-92364943D01*
X160512637Y-92825278D01*
X161113352Y-93074716D01*
X161763795Y-93075284D01*
X162364943Y-92826894D01*
X162825278Y-92367363D01*
X163074716Y-91766648D01*
X163075284Y-91116205D01*
X162826894Y-90515057D01*
X162367363Y-90054722D01*
X161766648Y-89805284D01*
X161116205Y-89804716D01*
X160515057Y-90053106D01*
X160054722Y-90512637D01*
X159985227Y-90680000D01*
X156395047Y-90680000D01*
X156326894Y-90515057D01*
X155867363Y-90054722D01*
X155266648Y-89805284D01*
X154616205Y-89804716D01*
X154015057Y-90053106D01*
X153554722Y-90512637D01*
X153305284Y-91113352D01*
X153304716Y-91763795D01*
X126136911Y-91763795D01*
X125950134Y-91557611D01*
X125733297Y-91454986D01*
X126137811Y-91184698D01*
X126448880Y-90719151D01*
X126558113Y-90170000D01*
X126448880Y-89620849D01*
X126137811Y-89155302D01*
X125672264Y-88844233D01*
X125123113Y-88735000D01*
X125066887Y-88735000D01*
X124517736Y-88844233D01*
X124052189Y-89155302D01*
X123882005Y-89410000D01*
X120329802Y-89410000D01*
X119282401Y-88362599D01*
X119035839Y-88197852D01*
X118745000Y-88140000D01*
X113979802Y-88140000D01*
X113183841Y-87344039D01*
X135133096Y-87344039D01*
X135293959Y-87732423D01*
X135669866Y-88147389D01*
X136175959Y-88386914D01*
X136398000Y-88265629D01*
X136398000Y-87122000D01*
X136652000Y-87122000D01*
X136652000Y-88265629D01*
X136874041Y-88386914D01*
X137380134Y-88147389D01*
X137756041Y-87732423D01*
X137916904Y-87344039D01*
X137881275Y-87279187D01*
X145249752Y-87279187D01*
X145467757Y-87806800D01*
X145871077Y-88210824D01*
X146398309Y-88429750D01*
X146969187Y-88430248D01*
X147496800Y-88212243D01*
X147900824Y-87808923D01*
X148119750Y-87281691D01*
X148120248Y-86710813D01*
X147902243Y-86183200D01*
X147498923Y-85779176D01*
X146971691Y-85560250D01*
X146400813Y-85559752D01*
X145873200Y-85777757D01*
X145469176Y-86181077D01*
X145250250Y-86708309D01*
X145249752Y-87279187D01*
X137881275Y-87279187D01*
X137794915Y-87122000D01*
X136652000Y-87122000D01*
X136398000Y-87122000D01*
X135255085Y-87122000D01*
X135133096Y-87344039D01*
X113183841Y-87344039D01*
X112932401Y-87092599D01*
X112685839Y-86927852D01*
X112395000Y-86870000D01*
X108899802Y-86870000D01*
X108675763Y-86645961D01*
X135133096Y-86645961D01*
X135255085Y-86868000D01*
X136398000Y-86868000D01*
X136398000Y-85724371D01*
X136652000Y-85724371D01*
X136652000Y-86868000D01*
X137794915Y-86868000D01*
X137916904Y-86645961D01*
X137756041Y-86257577D01*
X137380134Y-85842611D01*
X136874041Y-85603086D01*
X136652000Y-85724371D01*
X136398000Y-85724371D01*
X136175959Y-85603086D01*
X135669866Y-85842611D01*
X135293959Y-86257577D01*
X135133096Y-86645961D01*
X108675763Y-86645961D01*
X106085783Y-84055981D01*
X106613285Y-83951054D01*
X107095054Y-83629147D01*
X107308301Y-83310000D01*
X115255198Y-83310000D01*
X115667599Y-83722401D01*
X115914161Y-83887148D01*
X116205000Y-83945000D01*
X116357720Y-83945000D01*
X116427408Y-84113657D01*
X116774515Y-84461371D01*
X117228266Y-84649785D01*
X117719579Y-84650214D01*
X118173657Y-84462592D01*
X118521371Y-84115485D01*
X118709785Y-83661734D01*
X118710214Y-83170421D01*
X118595422Y-82892603D01*
X118613327Y-82874698D01*
X118629459Y-82835750D01*
X135675000Y-82835750D01*
X135675000Y-83526309D01*
X135771673Y-83759698D01*
X135950301Y-83938327D01*
X136183690Y-84035000D01*
X136874250Y-84035000D01*
X137033000Y-83876250D01*
X137033000Y-82677000D01*
X135833750Y-82677000D01*
X135675000Y-82835750D01*
X118629459Y-82835750D01*
X118710000Y-82641309D01*
X118710000Y-82200750D01*
X118551250Y-82042000D01*
X117602000Y-82042000D01*
X117602000Y-82062000D01*
X117348000Y-82062000D01*
X117348000Y-82042000D01*
X116398750Y-82042000D01*
X116267776Y-82172974D01*
X116107401Y-82012599D01*
X115860839Y-81847852D01*
X115570000Y-81790000D01*
X107308301Y-81790000D01*
X107095054Y-81470853D01*
X106613285Y-81148946D01*
X106045000Y-81035907D01*
X105476715Y-81148946D01*
X104994946Y-81470853D01*
X104967150Y-81512452D01*
X104958162Y-81464683D01*
X104819090Y-81248559D01*
X104606890Y-81103569D01*
X104355000Y-81052560D01*
X102655000Y-81052560D01*
X102419683Y-81096838D01*
X102203559Y-81235910D01*
X102058569Y-81448110D01*
X102007560Y-81700000D01*
X99135000Y-81700000D01*
X99135000Y-75636875D01*
X99575727Y-76703515D01*
X100456847Y-77586174D01*
X101608674Y-78064454D01*
X102855854Y-78065543D01*
X104008515Y-77589273D01*
X104477856Y-77120750D01*
X108320000Y-77120750D01*
X108320000Y-77861309D01*
X108416673Y-78094698D01*
X108595301Y-78273327D01*
X108828690Y-78370000D01*
X109569250Y-78370000D01*
X109728000Y-78211250D01*
X109728000Y-76962000D01*
X109982000Y-76962000D01*
X109982000Y-78211250D01*
X110140750Y-78370000D01*
X110881310Y-78370000D01*
X111114699Y-78273327D01*
X111293327Y-78094698D01*
X111390000Y-77861309D01*
X111390000Y-77120750D01*
X111231250Y-76962000D01*
X109982000Y-76962000D01*
X109728000Y-76962000D01*
X108478750Y-76962000D01*
X108320000Y-77120750D01*
X104477856Y-77120750D01*
X104891174Y-76708153D01*
X105369454Y-75556326D01*
X105370289Y-74598991D01*
X108319735Y-74598991D01*
X108552932Y-75163371D01*
X108730092Y-75340841D01*
X108595301Y-75396673D01*
X108416673Y-75575302D01*
X108320000Y-75808691D01*
X108320000Y-76549250D01*
X108478750Y-76708000D01*
X109728000Y-76708000D01*
X109728000Y-76688000D01*
X109982000Y-76688000D01*
X109982000Y-76708000D01*
X111231250Y-76708000D01*
X111390000Y-76549250D01*
X111390000Y-76325000D01*
X112715198Y-76325000D01*
X116937599Y-80547401D01*
X117136047Y-80680000D01*
X116748690Y-80680000D01*
X116515301Y-80776673D01*
X116336673Y-80955302D01*
X116240000Y-81188691D01*
X116240000Y-81629250D01*
X116398750Y-81788000D01*
X117348000Y-81788000D01*
X117348000Y-81768000D01*
X117602000Y-81768000D01*
X117602000Y-81788000D01*
X118551250Y-81788000D01*
X118710000Y-81629250D01*
X118710000Y-81573691D01*
X135675000Y-81573691D01*
X135675000Y-82264250D01*
X135833750Y-82423000D01*
X137033000Y-82423000D01*
X137033000Y-81223750D01*
X137287000Y-81223750D01*
X137287000Y-82423000D01*
X137307000Y-82423000D01*
X137307000Y-82677000D01*
X137287000Y-82677000D01*
X137287000Y-83876250D01*
X137445750Y-84035000D01*
X138136310Y-84035000D01*
X138369699Y-83938327D01*
X138548327Y-83759698D01*
X138620597Y-83585223D01*
X138649946Y-83629147D01*
X139131715Y-83951054D01*
X139700000Y-84064093D01*
X140268285Y-83951054D01*
X140750054Y-83629147D01*
X140963301Y-83310000D01*
X140970000Y-83310000D01*
X141260839Y-83252148D01*
X141507401Y-83087401D01*
X142025000Y-82569802D01*
X142025000Y-82677002D01*
X142183748Y-82677002D01*
X142025000Y-82835750D01*
X142025000Y-83526309D01*
X142121673Y-83759698D01*
X142300301Y-83938327D01*
X142533690Y-84035000D01*
X143224250Y-84035000D01*
X143383000Y-83876250D01*
X143383000Y-82677000D01*
X143363000Y-82677000D01*
X143363000Y-82423000D01*
X143383000Y-82423000D01*
X143383000Y-82403000D01*
X143637000Y-82403000D01*
X143637000Y-82423000D01*
X143657000Y-82423000D01*
X143657000Y-82677000D01*
X143637000Y-82677000D01*
X143637000Y-83876250D01*
X143795750Y-84035000D01*
X144486310Y-84035000D01*
X144719699Y-83938327D01*
X144898327Y-83759698D01*
X144970597Y-83585223D01*
X144999946Y-83629147D01*
X145481715Y-83951054D01*
X146050000Y-84064093D01*
X146618285Y-83951054D01*
X147100054Y-83629147D01*
X147421961Y-83147378D01*
X147483947Y-82835750D01*
X150280000Y-82835750D01*
X150280000Y-83526309D01*
X150376673Y-83759698D01*
X150555301Y-83938327D01*
X150788690Y-84035000D01*
X151479250Y-84035000D01*
X151638000Y-83876250D01*
X151638000Y-82677000D01*
X150438750Y-82677000D01*
X150280000Y-82835750D01*
X147483947Y-82835750D01*
X147535000Y-82579093D01*
X147535000Y-82520907D01*
X147421961Y-81952622D01*
X147168768Y-81573691D01*
X150280000Y-81573691D01*
X150280000Y-82264250D01*
X150438750Y-82423000D01*
X151638000Y-82423000D01*
X151638000Y-81223750D01*
X151892000Y-81223750D01*
X151892000Y-82423000D01*
X151912000Y-82423000D01*
X151912000Y-82677000D01*
X151892000Y-82677000D01*
X151892000Y-83876250D01*
X152050750Y-84035000D01*
X152741310Y-84035000D01*
X152974699Y-83938327D01*
X153153327Y-83759698D01*
X153225597Y-83585223D01*
X153254946Y-83629147D01*
X153736715Y-83951054D01*
X154305000Y-84064093D01*
X154873285Y-83951054D01*
X155355054Y-83629147D01*
X155676961Y-83147378D01*
X155790000Y-82579093D01*
X155790000Y-82520907D01*
X155676961Y-81952622D01*
X155355054Y-81470853D01*
X154873285Y-81148946D01*
X154305000Y-81035907D01*
X153736715Y-81148946D01*
X153254946Y-81470853D01*
X153225597Y-81514777D01*
X153153327Y-81340302D01*
X152974699Y-81161673D01*
X152741310Y-81065000D01*
X152050750Y-81065000D01*
X151892000Y-81223750D01*
X151638000Y-81223750D01*
X151479250Y-81065000D01*
X150788690Y-81065000D01*
X150555301Y-81161673D01*
X150376673Y-81340302D01*
X150280000Y-81573691D01*
X147168768Y-81573691D01*
X147100054Y-81470853D01*
X146618285Y-81148946D01*
X146050000Y-81035907D01*
X145683592Y-81108790D01*
X145317401Y-80742599D01*
X145070839Y-80577852D01*
X144780000Y-80520000D01*
X142240000Y-80520000D01*
X141949160Y-80577852D01*
X141702599Y-80742599D01*
X140839892Y-81605306D01*
X140750054Y-81470853D01*
X140268285Y-81148946D01*
X139700000Y-81035907D01*
X139131715Y-81148946D01*
X138649946Y-81470853D01*
X138620597Y-81514777D01*
X138548327Y-81340302D01*
X138369699Y-81161673D01*
X138136310Y-81065000D01*
X137445750Y-81065000D01*
X137287000Y-81223750D01*
X137033000Y-81223750D01*
X136874250Y-81065000D01*
X136183690Y-81065000D01*
X135950301Y-81161673D01*
X135771673Y-81340302D01*
X135675000Y-81573691D01*
X118710000Y-81573691D01*
X118710000Y-81188691D01*
X118613327Y-80955302D01*
X118434699Y-80776673D01*
X118418589Y-80770000D01*
X120722537Y-80770000D01*
X120754673Y-80802192D01*
X121098201Y-80944838D01*
X121470167Y-80945162D01*
X121813943Y-80803117D01*
X122077192Y-80540327D01*
X122219838Y-80196799D01*
X122220162Y-79824833D01*
X122078117Y-79481057D01*
X121815327Y-79217808D01*
X121471799Y-79075162D01*
X121099833Y-79074838D01*
X120756057Y-79216883D01*
X120722882Y-79250000D01*
X117789802Y-79250000D01*
X115023989Y-76484187D01*
X116039752Y-76484187D01*
X116257757Y-77011800D01*
X116661077Y-77415824D01*
X117188309Y-77634750D01*
X117759187Y-77635248D01*
X118286800Y-77417243D01*
X118690824Y-77013923D01*
X118883860Y-76549039D01*
X126243096Y-76549039D01*
X126403959Y-76937423D01*
X126779866Y-77352389D01*
X127285959Y-77591914D01*
X127508000Y-77470629D01*
X127508000Y-76327000D01*
X127762000Y-76327000D01*
X127762000Y-77470629D01*
X127984041Y-77591914D01*
X128490134Y-77352389D01*
X128866041Y-76937423D01*
X129026904Y-76549039D01*
X128904915Y-76327000D01*
X127762000Y-76327000D01*
X127508000Y-76327000D01*
X126365085Y-76327000D01*
X126243096Y-76549039D01*
X118883860Y-76549039D01*
X118909750Y-76486691D01*
X118910248Y-75915813D01*
X118883452Y-75850961D01*
X126243096Y-75850961D01*
X126365085Y-76073000D01*
X127508000Y-76073000D01*
X127508000Y-74929371D01*
X127762000Y-74929371D01*
X127762000Y-76073000D01*
X128904915Y-76073000D01*
X129026904Y-75850961D01*
X128866041Y-75462577D01*
X128490134Y-75047611D01*
X127984041Y-74808086D01*
X127762000Y-74929371D01*
X127508000Y-74929371D01*
X127285959Y-74808086D01*
X126779866Y-75047611D01*
X126403959Y-75462577D01*
X126243096Y-75850961D01*
X118883452Y-75850961D01*
X118692243Y-75388200D01*
X118288923Y-74984176D01*
X117761691Y-74765250D01*
X117190813Y-74764752D01*
X116663200Y-74982757D01*
X116259176Y-75386077D01*
X116040250Y-75913309D01*
X116039752Y-76484187D01*
X115023989Y-76484187D01*
X113567401Y-75027599D01*
X113320839Y-74862852D01*
X113030000Y-74805000D01*
X111439802Y-74805000D01*
X111344766Y-74709964D01*
X111389733Y-74601670D01*
X111390265Y-73991009D01*
X111157068Y-73426629D01*
X110725643Y-72994449D01*
X110161670Y-72760267D01*
X109551009Y-72759735D01*
X108986629Y-72992932D01*
X108554449Y-73424357D01*
X108320267Y-73988330D01*
X108319735Y-74598991D01*
X105370289Y-74598991D01*
X105370543Y-74309146D01*
X104894273Y-73156485D01*
X104013153Y-72273826D01*
X102944301Y-71830000D01*
X159948125Y-71830000D01*
X158881485Y-72270727D01*
X158881485Y-72270727D01*
G37*
X158881485Y-72270727D02*
X157998826Y-73151847D01*
X157520546Y-74303674D01*
X157519457Y-75550854D01*
X157995727Y-76703515D01*
X158876847Y-77586174D01*
X160028674Y-78064454D01*
X161275854Y-78065543D01*
X162428515Y-77589273D01*
X163311174Y-76708153D01*
X163755000Y-75639301D01*
X163755000Y-119308125D01*
X163314273Y-118241485D01*
X162433153Y-117358826D01*
X161281326Y-116880546D01*
X160034146Y-116879457D01*
X158881485Y-117355727D01*
X157998826Y-118236847D01*
X157520546Y-119388674D01*
X157519457Y-120635854D01*
X157995727Y-121788515D01*
X158876847Y-122671174D01*
X159945699Y-123115000D01*
X106105081Y-123115000D01*
X106065954Y-122918295D01*
X105912046Y-122687954D01*
X105681705Y-122534046D01*
X105410000Y-122480000D01*
X104203127Y-122480000D01*
X104891174Y-121793153D01*
X105369454Y-120641326D01*
X105370543Y-119394146D01*
X104894273Y-118241485D01*
X104013153Y-117358826D01*
X102861326Y-116880546D01*
X101614146Y-116879457D01*
X100461485Y-117355727D01*
X99578826Y-118236847D01*
X99135000Y-119305699D01*
X99135000Y-81700000D01*
X102007560Y-81700000D01*
X102007560Y-83400000D01*
X102051838Y-83635317D01*
X102190910Y-83851441D01*
X102403110Y-83996431D01*
X102655000Y-84047440D01*
X103927638Y-84047440D01*
X108020198Y-88140000D01*
X104717995Y-88140000D01*
X104547811Y-87885302D01*
X104082264Y-87574233D01*
X103533113Y-87465000D01*
X103476887Y-87465000D01*
X102927736Y-87574233D01*
X102462189Y-87885302D01*
X102151120Y-88350849D01*
X102041887Y-88900000D01*
X102151120Y-89449151D01*
X102462189Y-89914698D01*
X102844275Y-90170000D01*
X102462189Y-90425302D01*
X102151120Y-90890849D01*
X102041887Y-91440000D01*
X102151120Y-91989151D01*
X102462189Y-92454698D01*
X102844275Y-92710000D01*
X102462189Y-92965302D01*
X102151120Y-93430849D01*
X102041887Y-93980000D01*
X102151120Y-94529151D01*
X102462189Y-94994698D01*
X102844275Y-95250000D01*
X102462189Y-95505302D01*
X102151120Y-95970849D01*
X102041887Y-96520000D01*
X102151120Y-97069151D01*
X102462189Y-97534698D01*
X102844275Y-97790000D01*
X102462189Y-98045302D01*
X102151120Y-98510849D01*
X102041887Y-99060000D01*
X102151120Y-99609151D01*
X102462189Y-100074698D01*
X102844275Y-100330000D01*
X102462189Y-100585302D01*
X102151120Y-101050849D01*
X102041887Y-101600000D01*
X102151120Y-102149151D01*
X102462189Y-102614698D01*
X102844275Y-102870000D01*
X102462189Y-103125302D01*
X102151120Y-103590849D01*
X102041887Y-104140000D01*
X102151120Y-104689151D01*
X102462189Y-105154698D01*
X102844275Y-105410000D01*
X102462189Y-105665302D01*
X102151120Y-106130849D01*
X102041887Y-106680000D01*
X102151120Y-107229151D01*
X102462189Y-107694698D01*
X102844275Y-107950000D01*
X102462189Y-108205302D01*
X102151120Y-108670849D01*
X102041887Y-109220000D01*
X102151120Y-109769151D01*
X102462189Y-110234698D01*
X102844275Y-110490000D01*
X102462189Y-110745302D01*
X102151120Y-111210849D01*
X102041887Y-111760000D01*
X102151120Y-112309151D01*
X102462189Y-112774698D01*
X102927736Y-113085767D01*
X103476887Y-113195000D01*
X103533113Y-113195000D01*
X103810102Y-113139904D01*
X104237599Y-113567401D01*
X104484160Y-113732148D01*
X104775000Y-113790000D01*
X112395000Y-113790000D01*
X112685839Y-113732148D01*
X112932401Y-113567401D01*
X113979802Y-112520000D01*
X118745000Y-112520000D01*
X119035839Y-112462148D01*
X119282401Y-112297401D01*
X120329802Y-111250000D01*
X123647560Y-111250000D01*
X123647560Y-111290000D01*
X123691838Y-111525317D01*
X123830910Y-111741441D01*
X124043110Y-111886431D01*
X124295000Y-111937440D01*
X125895000Y-111937440D01*
X126130317Y-111893162D01*
X126346441Y-111754090D01*
X126491431Y-111541890D01*
X126542440Y-111290000D01*
X126542440Y-109690000D01*
X126498162Y-109454683D01*
X126359090Y-109238559D01*
X126146890Y-109093569D01*
X125987384Y-109061268D01*
X126161385Y-108869187D01*
X130009752Y-108869187D01*
X130227757Y-109396800D01*
X130631077Y-109800824D01*
X131158309Y-110019750D01*
X131729187Y-110020248D01*
X132256800Y-109802243D01*
X132660824Y-109398923D01*
X132879750Y-108871691D01*
X132879838Y-108770167D01*
X137494838Y-108770167D01*
X137636883Y-109113943D01*
X137899673Y-109377192D01*
X138243201Y-109519838D01*
X138290077Y-109519879D01*
X139162599Y-110392401D01*
X139409160Y-110557148D01*
X139700000Y-110615000D01*
X142875000Y-110615000D01*
X143165839Y-110557148D01*
X143412401Y-110392401D01*
X143824802Y-109980000D01*
X144165534Y-109980000D01*
X144189275Y-110037457D01*
X144595405Y-110444297D01*
X145126311Y-110664748D01*
X145701167Y-110665250D01*
X146232457Y-110445725D01*
X146639297Y-110039595D01*
X146859748Y-109508689D01*
X146860250Y-108933833D01*
X146640725Y-108402543D01*
X146234595Y-107995703D01*
X145703689Y-107775252D01*
X145128833Y-107774750D01*
X144597543Y-107994275D01*
X144190703Y-108400405D01*
X144165957Y-108460000D01*
X143510000Y-108460000D01*
X143219161Y-108517852D01*
X142972599Y-108682599D01*
X142899127Y-108756071D01*
X142874915Y-108712000D01*
X141732000Y-108712000D01*
X141732000Y-108732000D01*
X141478000Y-108732000D01*
X141478000Y-108712000D01*
X140335085Y-108712000D01*
X140213096Y-108934039D01*
X140279764Y-109095000D01*
X140014802Y-109095000D01*
X139365122Y-108445320D01*
X139365162Y-108399833D01*
X139297452Y-108235961D01*
X140213096Y-108235961D01*
X140335085Y-108458000D01*
X141478000Y-108458000D01*
X141478000Y-107314371D01*
X141732000Y-107314371D01*
X141732000Y-108458000D01*
X142874915Y-108458000D01*
X142996904Y-108235961D01*
X142836041Y-107847577D01*
X142460134Y-107432611D01*
X141954041Y-107193086D01*
X141732000Y-107314371D01*
X141478000Y-107314371D01*
X141255959Y-107193086D01*
X140749866Y-107432611D01*
X140373959Y-107847577D01*
X140213096Y-108235961D01*
X139297452Y-108235961D01*
X139223117Y-108056057D01*
X138960327Y-107792808D01*
X138616799Y-107650162D01*
X138244833Y-107649838D01*
X137901057Y-107791883D01*
X137637808Y-108054673D01*
X137495162Y-108398201D01*
X137494838Y-108770167D01*
X132879838Y-108770167D01*
X132880248Y-108300813D01*
X132662243Y-107773200D01*
X132258923Y-107369176D01*
X131731691Y-107150250D01*
X131160813Y-107149752D01*
X130633200Y-107367757D01*
X130229176Y-107771077D01*
X130010250Y-108298309D01*
X130009752Y-108869187D01*
X126161385Y-108869187D01*
X126326041Y-108687423D01*
X126486904Y-108299039D01*
X126364915Y-108077000D01*
X125222000Y-108077000D01*
X125222000Y-108097000D01*
X124968000Y-108097000D01*
X124968000Y-108077000D01*
X123825085Y-108077000D01*
X123703096Y-108299039D01*
X123863959Y-108687423D01*
X124201590Y-109060136D01*
X124059683Y-109086838D01*
X123843559Y-109225910D01*
X123698569Y-109438110D01*
X123647560Y-109690000D01*
X123647560Y-109730000D01*
X120015000Y-109730000D01*
X119724160Y-109787852D01*
X119477599Y-109952599D01*
X118937595Y-110492603D01*
X118938113Y-110490000D01*
X118828880Y-109940849D01*
X118517811Y-109475302D01*
X118135725Y-109220000D01*
X118517811Y-108964698D01*
X118828880Y-108499151D01*
X118938113Y-107950000D01*
X118828880Y-107400849D01*
X118517811Y-106935302D01*
X118135725Y-106680000D01*
X118517811Y-106424698D01*
X118828880Y-105959151D01*
X118938113Y-105410000D01*
X118828880Y-104860849D01*
X118517811Y-104395302D01*
X118135725Y-104140000D01*
X118517811Y-103884698D01*
X118828880Y-103419151D01*
X118938113Y-102870000D01*
X118828880Y-102320849D01*
X118517811Y-101855302D01*
X118135725Y-101600000D01*
X118517811Y-101344698D01*
X118828880Y-100879151D01*
X118938113Y-100330000D01*
X118828880Y-99780849D01*
X118517811Y-99315302D01*
X118135725Y-99060000D01*
X118517811Y-98804698D01*
X118828880Y-98339151D01*
X118901280Y-97975167D01*
X121619838Y-97975167D01*
X121761883Y-98318943D01*
X122024673Y-98582192D01*
X122368201Y-98724838D01*
X122415077Y-98724879D01*
X123696312Y-100006114D01*
X123631887Y-100330000D01*
X123741120Y-100879151D01*
X124052189Y-101344698D01*
X124434275Y-101600000D01*
X124052189Y-101855302D01*
X123741120Y-102320849D01*
X123631887Y-102870000D01*
X123741120Y-103419151D01*
X124052189Y-103884698D01*
X124434275Y-104140000D01*
X124052189Y-104395302D01*
X123741120Y-104860849D01*
X123631887Y-105410000D01*
X123741120Y-105959151D01*
X124052189Y-106424698D01*
X124456703Y-106694986D01*
X124239866Y-106797611D01*
X123863959Y-107212577D01*
X123703096Y-107600961D01*
X123825085Y-107823000D01*
X124968000Y-107823000D01*
X124968000Y-107803000D01*
X125222000Y-107803000D01*
X125222000Y-107823000D01*
X126364915Y-107823000D01*
X126486904Y-107600961D01*
X126326041Y-107212577D01*
X125950134Y-106797611D01*
X125733297Y-106694986D01*
X126137811Y-106424698D01*
X126448880Y-105959151D01*
X126533249Y-105535000D01*
X132715000Y-105535000D01*
X133005839Y-105477148D01*
X133252401Y-105312401D01*
X134299802Y-104265000D01*
X140392005Y-104265000D01*
X140562189Y-104519698D01*
X141027736Y-104830767D01*
X141576887Y-104940000D01*
X141633113Y-104940000D01*
X142182264Y-104830767D01*
X142647811Y-104519698D01*
X142656852Y-104506167D01*
X143969750Y-104506167D01*
X144189275Y-105037457D01*
X144595405Y-105444297D01*
X145126311Y-105664748D01*
X145701167Y-105665250D01*
X145817415Y-105617217D01*
X147417599Y-107217401D01*
X147664160Y-107382148D01*
X147712414Y-107391746D01*
X147955000Y-107440000D01*
X149149007Y-107440000D01*
X149189275Y-107537457D01*
X149595405Y-107944297D01*
X150126311Y-108164748D01*
X150701167Y-108165250D01*
X151232457Y-107945725D01*
X151639297Y-107539595D01*
X151859748Y-107008689D01*
X151860250Y-106433833D01*
X151847303Y-106402499D01*
X152079802Y-106170000D01*
X153334953Y-106170000D01*
X153403106Y-106334943D01*
X153862637Y-106795278D01*
X154463352Y-107044716D01*
X155113795Y-107045284D01*
X155714943Y-106796894D01*
X156175278Y-106337363D01*
X156244773Y-106170000D01*
X159834953Y-106170000D01*
X159903106Y-106334943D01*
X160362637Y-106795278D01*
X160963352Y-107044716D01*
X161613795Y-107045284D01*
X162214943Y-106796894D01*
X162675278Y-106337363D01*
X162924716Y-105736648D01*
X162925284Y-105086205D01*
X162676894Y-104485057D01*
X162217363Y-104024722D01*
X161616648Y-103775284D01*
X160966205Y-103774716D01*
X160365057Y-104023106D01*
X159904722Y-104482637D01*
X159835227Y-104650000D01*
X156245047Y-104650000D01*
X156176894Y-104485057D01*
X155717363Y-104024722D01*
X155116648Y-103775284D01*
X154466205Y-103774716D01*
X153865057Y-104023106D01*
X153404722Y-104482637D01*
X153335227Y-104650000D01*
X151765000Y-104650000D01*
X151474160Y-104707852D01*
X151227599Y-104872599D01*
X150789369Y-105310829D01*
X150703689Y-105275252D01*
X150128833Y-105274750D01*
X149597543Y-105494275D01*
X149190703Y-105900405D01*
X149182566Y-105920000D01*
X148269802Y-105920000D01*
X146859379Y-104509577D01*
X146859748Y-104508689D01*
X146860250Y-103933833D01*
X146640725Y-103402543D01*
X146234595Y-102995703D01*
X145703689Y-102775252D01*
X145128833Y-102774750D01*
X144597543Y-102994275D01*
X144190703Y-103400405D01*
X143970252Y-103931311D01*
X143969750Y-104506167D01*
X142656852Y-104506167D01*
X142958880Y-104054151D01*
X143068113Y-103505000D01*
X143003688Y-103181114D01*
X144951007Y-101233795D01*
X153154716Y-101233795D01*
X153403106Y-101834943D01*
X153862637Y-102295278D01*
X154463352Y-102544716D01*
X155113795Y-102545284D01*
X155714943Y-102296894D01*
X156175278Y-101837363D01*
X156221935Y-101725000D01*
X159857678Y-101725000D01*
X159903106Y-101834943D01*
X160362637Y-102295278D01*
X160963352Y-102544716D01*
X161613795Y-102545284D01*
X162214943Y-102296894D01*
X162675278Y-101837363D01*
X162924716Y-101236648D01*
X162925284Y-100586205D01*
X162676894Y-99985057D01*
X162217363Y-99524722D01*
X161616648Y-99275284D01*
X160966205Y-99274716D01*
X160365057Y-99523106D01*
X159904722Y-99982637D01*
X159812389Y-100205000D01*
X156267773Y-100205000D01*
X156176894Y-99985057D01*
X155717363Y-99524722D01*
X155116648Y-99275284D01*
X154466205Y-99274716D01*
X153865057Y-99523106D01*
X153404722Y-99982637D01*
X153155284Y-100583352D01*
X153154716Y-101233795D01*
X144951007Y-101233795D01*
X145094802Y-101090000D01*
X146685000Y-101090000D01*
X146975839Y-101032148D01*
X147222401Y-100867401D01*
X149539802Y-98550000D01*
X151765000Y-98550000D01*
X152055839Y-98492148D01*
X152302401Y-98327401D01*
X153658890Y-96970912D01*
X154012637Y-97325278D01*
X154613352Y-97574716D01*
X155263795Y-97575284D01*
X155864943Y-97326894D01*
X156325278Y-96867363D01*
X156417611Y-96645000D01*
X159962227Y-96645000D01*
X160053106Y-96864943D01*
X160512637Y-97325278D01*
X161113352Y-97574716D01*
X161763795Y-97575284D01*
X162364943Y-97326894D01*
X162825278Y-96867363D01*
X163074716Y-96266648D01*
X163075284Y-95616205D01*
X162826894Y-95015057D01*
X162367363Y-94554722D01*
X161766648Y-94305284D01*
X161116205Y-94304716D01*
X160515057Y-94553106D01*
X160054722Y-95012637D01*
X160008065Y-95125000D01*
X156372322Y-95125000D01*
X156326894Y-95015057D01*
X155867363Y-94554722D01*
X155266648Y-94305284D01*
X154616205Y-94304716D01*
X154015057Y-94553106D01*
X153554722Y-95012637D01*
X153493486Y-95160111D01*
X153379161Y-95182852D01*
X153132599Y-95347599D01*
X151859947Y-96620251D01*
X151860250Y-96273833D01*
X151640725Y-95742543D01*
X151234595Y-95335703D01*
X150703689Y-95115252D01*
X150128833Y-95114750D01*
X149597543Y-95334275D01*
X149190703Y-95740405D01*
X149182566Y-95760000D01*
X142930236Y-95760000D01*
X142996904Y-95599039D01*
X142874915Y-95377000D01*
X141732000Y-95377000D01*
X141732000Y-95397000D01*
X141478000Y-95397000D01*
X141478000Y-95377000D01*
X140335085Y-95377000D01*
X140213096Y-95599039D01*
X140279764Y-95760000D01*
X136204802Y-95760000D01*
X135555122Y-95110320D01*
X135555162Y-95064833D01*
X135487452Y-94900961D01*
X140213096Y-94900961D01*
X140335085Y-95123000D01*
X141478000Y-95123000D01*
X141478000Y-93979371D01*
X141732000Y-93979371D01*
X141732000Y-95123000D01*
X142874915Y-95123000D01*
X142901292Y-95074988D01*
X144579617Y-95074988D01*
X144654980Y-95322144D01*
X145195834Y-95516916D01*
X145770055Y-95489886D01*
X146175020Y-95322144D01*
X146250383Y-95074988D01*
X145415000Y-94239605D01*
X144579617Y-95074988D01*
X142901292Y-95074988D01*
X142996904Y-94900961D01*
X142836041Y-94512577D01*
X142460134Y-94097611D01*
X141954041Y-93858086D01*
X141732000Y-93979371D01*
X141478000Y-93979371D01*
X141255959Y-93858086D01*
X140749866Y-94097611D01*
X140373959Y-94512577D01*
X140213096Y-94900961D01*
X135487452Y-94900961D01*
X135413117Y-94721057D01*
X135150327Y-94457808D01*
X134806799Y-94315162D01*
X134434833Y-94314838D01*
X134091057Y-94456883D01*
X133827808Y-94719673D01*
X133685162Y-95063201D01*
X133684838Y-95435167D01*
X133826883Y-95778943D01*
X134089673Y-96042192D01*
X134433201Y-96184838D01*
X134480077Y-96184879D01*
X135352599Y-97057401D01*
X135599160Y-97222148D01*
X135890000Y-97280000D01*
X148660198Y-97280000D01*
X146859982Y-99080216D01*
X146860250Y-98773833D01*
X146640725Y-98242543D01*
X146234595Y-97835703D01*
X145703689Y-97615252D01*
X145128833Y-97614750D01*
X144597543Y-97834275D01*
X144190703Y-98240405D01*
X144165957Y-98300000D01*
X135569802Y-98300000D01*
X132858256Y-95588454D01*
X132879750Y-95536691D01*
X132880248Y-94965813D01*
X132662243Y-94438200D01*
X132258923Y-94034176D01*
X131793305Y-93840834D01*
X143958084Y-93840834D01*
X143985114Y-94415055D01*
X144152856Y-94820020D01*
X144400012Y-94895383D01*
X145235395Y-94060000D01*
X145594605Y-94060000D01*
X146429988Y-94895383D01*
X146677144Y-94820020D01*
X146871916Y-94279166D01*
X146844886Y-93704945D01*
X146677144Y-93299980D01*
X146429988Y-93224617D01*
X145594605Y-94060000D01*
X145235395Y-94060000D01*
X144400012Y-93224617D01*
X144152856Y-93299980D01*
X143958084Y-93840834D01*
X131793305Y-93840834D01*
X131731691Y-93815250D01*
X131160813Y-93814752D01*
X130633200Y-94032757D01*
X130229176Y-94436077D01*
X130206785Y-94490000D01*
X126307995Y-94490000D01*
X126137811Y-94235302D01*
X125733297Y-93965014D01*
X125950134Y-93862389D01*
X126326041Y-93447423D01*
X126486904Y-93059039D01*
X126479198Y-93045012D01*
X144579617Y-93045012D01*
X145415000Y-93880395D01*
X146250383Y-93045012D01*
X146175020Y-92797856D01*
X145634166Y-92603084D01*
X145059945Y-92630114D01*
X144654980Y-92797856D01*
X144579617Y-93045012D01*
X126479198Y-93045012D01*
X126364915Y-92837000D01*
X125222000Y-92837000D01*
X125222000Y-92857000D01*
X124968000Y-92857000D01*
X124968000Y-92837000D01*
X123825085Y-92837000D01*
X123703096Y-93059039D01*
X123863959Y-93447423D01*
X124239866Y-93862389D01*
X124456703Y-93965014D01*
X124052189Y-94235302D01*
X123741120Y-94700849D01*
X123631887Y-95250000D01*
X123741120Y-95799151D01*
X124052189Y-96264698D01*
X124434275Y-96520000D01*
X124052189Y-96775302D01*
X123741120Y-97240849D01*
X123631887Y-97790000D01*
X123632405Y-97792603D01*
X123490122Y-97650320D01*
X123490162Y-97604833D01*
X123348117Y-97261057D01*
X123085327Y-96997808D01*
X122741799Y-96855162D01*
X122369833Y-96854838D01*
X122026057Y-96996883D01*
X121762808Y-97259673D01*
X121620162Y-97603201D01*
X121619838Y-97975167D01*
X118901280Y-97975167D01*
X118938113Y-97790000D01*
X118828880Y-97240849D01*
X118517811Y-96775302D01*
X118135725Y-96520000D01*
X118517811Y-96264698D01*
X118828880Y-95799151D01*
X118938113Y-95250000D01*
X118828880Y-94700849D01*
X118517811Y-94235302D01*
X118135725Y-93980000D01*
X118517811Y-93724698D01*
X118828880Y-93259151D01*
X118938113Y-92710000D01*
X118828880Y-92160849D01*
X118517811Y-91695302D01*
X118135725Y-91440000D01*
X118517811Y-91184698D01*
X118828880Y-90719151D01*
X118938113Y-90170000D01*
X118937595Y-90167397D01*
X119477599Y-90707401D01*
X119724160Y-90872148D01*
X120015000Y-90930000D01*
X123882005Y-90930000D01*
X124052189Y-91184698D01*
X124456703Y-91454986D01*
X124239866Y-91557611D01*
X123863959Y-91972577D01*
X123703096Y-92360961D01*
X123825085Y-92583000D01*
X124968000Y-92583000D01*
X124968000Y-92563000D01*
X125222000Y-92563000D01*
X125222000Y-92583000D01*
X126364915Y-92583000D01*
X126486904Y-92360961D01*
X126326041Y-91972577D01*
X126136911Y-91763795D01*
X153304716Y-91763795D01*
X153553106Y-92364943D01*
X154012637Y-92825278D01*
X154613352Y-93074716D01*
X155263795Y-93075284D01*
X155864943Y-92826894D01*
X156325278Y-92367363D01*
X156394773Y-92200000D01*
X159984953Y-92200000D01*
X160053106Y-92364943D01*
X160512637Y-92825278D01*
X161113352Y-93074716D01*
X161763795Y-93075284D01*
X162364943Y-92826894D01*
X162825278Y-92367363D01*
X163074716Y-91766648D01*
X163075284Y-91116205D01*
X162826894Y-90515057D01*
X162367363Y-90054722D01*
X161766648Y-89805284D01*
X161116205Y-89804716D01*
X160515057Y-90053106D01*
X160054722Y-90512637D01*
X159985227Y-90680000D01*
X156395047Y-90680000D01*
X156326894Y-90515057D01*
X155867363Y-90054722D01*
X155266648Y-89805284D01*
X154616205Y-89804716D01*
X154015057Y-90053106D01*
X153554722Y-90512637D01*
X153305284Y-91113352D01*
X153304716Y-91763795D01*
X126136911Y-91763795D01*
X125950134Y-91557611D01*
X125733297Y-91454986D01*
X126137811Y-91184698D01*
X126448880Y-90719151D01*
X126558113Y-90170000D01*
X126448880Y-89620849D01*
X126137811Y-89155302D01*
X125672264Y-88844233D01*
X125123113Y-88735000D01*
X125066887Y-88735000D01*
X124517736Y-88844233D01*
X124052189Y-89155302D01*
X123882005Y-89410000D01*
X120329802Y-89410000D01*
X119282401Y-88362599D01*
X119035839Y-88197852D01*
X118745000Y-88140000D01*
X113979802Y-88140000D01*
X113183841Y-87344039D01*
X135133096Y-87344039D01*
X135293959Y-87732423D01*
X135669866Y-88147389D01*
X136175959Y-88386914D01*
X136398000Y-88265629D01*
X136398000Y-87122000D01*
X136652000Y-87122000D01*
X136652000Y-88265629D01*
X136874041Y-88386914D01*
X137380134Y-88147389D01*
X137756041Y-87732423D01*
X137916904Y-87344039D01*
X137881275Y-87279187D01*
X145249752Y-87279187D01*
X145467757Y-87806800D01*
X145871077Y-88210824D01*
X146398309Y-88429750D01*
X146969187Y-88430248D01*
X147496800Y-88212243D01*
X147900824Y-87808923D01*
X148119750Y-87281691D01*
X148120248Y-86710813D01*
X147902243Y-86183200D01*
X147498923Y-85779176D01*
X146971691Y-85560250D01*
X146400813Y-85559752D01*
X145873200Y-85777757D01*
X145469176Y-86181077D01*
X145250250Y-86708309D01*
X145249752Y-87279187D01*
X137881275Y-87279187D01*
X137794915Y-87122000D01*
X136652000Y-87122000D01*
X136398000Y-87122000D01*
X135255085Y-87122000D01*
X135133096Y-87344039D01*
X113183841Y-87344039D01*
X112932401Y-87092599D01*
X112685839Y-86927852D01*
X112395000Y-86870000D01*
X108899802Y-86870000D01*
X108675763Y-86645961D01*
X135133096Y-86645961D01*
X135255085Y-86868000D01*
X136398000Y-86868000D01*
X136398000Y-85724371D01*
X136652000Y-85724371D01*
X136652000Y-86868000D01*
X137794915Y-86868000D01*
X137916904Y-86645961D01*
X137756041Y-86257577D01*
X137380134Y-85842611D01*
X136874041Y-85603086D01*
X136652000Y-85724371D01*
X136398000Y-85724371D01*
X136175959Y-85603086D01*
X135669866Y-85842611D01*
X135293959Y-86257577D01*
X135133096Y-86645961D01*
X108675763Y-86645961D01*
X106085783Y-84055981D01*
X106613285Y-83951054D01*
X107095054Y-83629147D01*
X107308301Y-83310000D01*
X115255198Y-83310000D01*
X115667599Y-83722401D01*
X115914161Y-83887148D01*
X116205000Y-83945000D01*
X116357720Y-83945000D01*
X116427408Y-84113657D01*
X116774515Y-84461371D01*
X117228266Y-84649785D01*
X117719579Y-84650214D01*
X118173657Y-84462592D01*
X118521371Y-84115485D01*
X118709785Y-83661734D01*
X118710214Y-83170421D01*
X118595422Y-82892603D01*
X118613327Y-82874698D01*
X118629459Y-82835750D01*
X135675000Y-82835750D01*
X135675000Y-83526309D01*
X135771673Y-83759698D01*
X135950301Y-83938327D01*
X136183690Y-84035000D01*
X136874250Y-84035000D01*
X137033000Y-83876250D01*
X137033000Y-82677000D01*
X135833750Y-82677000D01*
X135675000Y-82835750D01*
X118629459Y-82835750D01*
X118710000Y-82641309D01*
X118710000Y-82200750D01*
X118551250Y-82042000D01*
X117602000Y-82042000D01*
X117602000Y-82062000D01*
X117348000Y-82062000D01*
X117348000Y-82042000D01*
X116398750Y-82042000D01*
X116267776Y-82172974D01*
X116107401Y-82012599D01*
X115860839Y-81847852D01*
X115570000Y-81790000D01*
X107308301Y-81790000D01*
X107095054Y-81470853D01*
X106613285Y-81148946D01*
X106045000Y-81035907D01*
X105476715Y-81148946D01*
X104994946Y-81470853D01*
X104967150Y-81512452D01*
X104958162Y-81464683D01*
X104819090Y-81248559D01*
X104606890Y-81103569D01*
X104355000Y-81052560D01*
X102655000Y-81052560D01*
X102419683Y-81096838D01*
X102203559Y-81235910D01*
X102058569Y-81448110D01*
X102007560Y-81700000D01*
X99135000Y-81700000D01*
X99135000Y-75636875D01*
X99575727Y-76703515D01*
X100456847Y-77586174D01*
X101608674Y-78064454D01*
X102855854Y-78065543D01*
X104008515Y-77589273D01*
X104477856Y-77120750D01*
X108320000Y-77120750D01*
X108320000Y-77861309D01*
X108416673Y-78094698D01*
X108595301Y-78273327D01*
X108828690Y-78370000D01*
X109569250Y-78370000D01*
X109728000Y-78211250D01*
X109728000Y-76962000D01*
X109982000Y-76962000D01*
X109982000Y-78211250D01*
X110140750Y-78370000D01*
X110881310Y-78370000D01*
X111114699Y-78273327D01*
X111293327Y-78094698D01*
X111390000Y-77861309D01*
X111390000Y-77120750D01*
X111231250Y-76962000D01*
X109982000Y-76962000D01*
X109728000Y-76962000D01*
X108478750Y-76962000D01*
X108320000Y-77120750D01*
X104477856Y-77120750D01*
X104891174Y-76708153D01*
X105369454Y-75556326D01*
X105370289Y-74598991D01*
X108319735Y-74598991D01*
X108552932Y-75163371D01*
X108730092Y-75340841D01*
X108595301Y-75396673D01*
X108416673Y-75575302D01*
X108320000Y-75808691D01*
X108320000Y-76549250D01*
X108478750Y-76708000D01*
X109728000Y-76708000D01*
X109728000Y-76688000D01*
X109982000Y-76688000D01*
X109982000Y-76708000D01*
X111231250Y-76708000D01*
X111390000Y-76549250D01*
X111390000Y-76325000D01*
X112715198Y-76325000D01*
X116937599Y-80547401D01*
X117136047Y-80680000D01*
X116748690Y-80680000D01*
X116515301Y-80776673D01*
X116336673Y-80955302D01*
X116240000Y-81188691D01*
X116240000Y-81629250D01*
X116398750Y-81788000D01*
X117348000Y-81788000D01*
X117348000Y-81768000D01*
X117602000Y-81768000D01*
X117602000Y-81788000D01*
X118551250Y-81788000D01*
X118710000Y-81629250D01*
X118710000Y-81573691D01*
X135675000Y-81573691D01*
X135675000Y-82264250D01*
X135833750Y-82423000D01*
X137033000Y-82423000D01*
X137033000Y-81223750D01*
X137287000Y-81223750D01*
X137287000Y-82423000D01*
X137307000Y-82423000D01*
X137307000Y-82677000D01*
X137287000Y-82677000D01*
X137287000Y-83876250D01*
X137445750Y-84035000D01*
X138136310Y-84035000D01*
X138369699Y-83938327D01*
X138548327Y-83759698D01*
X138620597Y-83585223D01*
X138649946Y-83629147D01*
X139131715Y-83951054D01*
X139700000Y-84064093D01*
X140268285Y-83951054D01*
X140750054Y-83629147D01*
X140963301Y-83310000D01*
X140970000Y-83310000D01*
X141260839Y-83252148D01*
X141507401Y-83087401D01*
X142025000Y-82569802D01*
X142025000Y-82677002D01*
X142183748Y-82677002D01*
X142025000Y-82835750D01*
X142025000Y-83526309D01*
X142121673Y-83759698D01*
X142300301Y-83938327D01*
X142533690Y-84035000D01*
X143224250Y-84035000D01*
X143383000Y-83876250D01*
X143383000Y-82677000D01*
X143363000Y-82677000D01*
X143363000Y-82423000D01*
X143383000Y-82423000D01*
X143383000Y-82403000D01*
X143637000Y-82403000D01*
X143637000Y-82423000D01*
X143657000Y-82423000D01*
X143657000Y-82677000D01*
X143637000Y-82677000D01*
X143637000Y-83876250D01*
X143795750Y-84035000D01*
X144486310Y-84035000D01*
X144719699Y-83938327D01*
X144898327Y-83759698D01*
X144970597Y-83585223D01*
X144999946Y-83629147D01*
X145481715Y-83951054D01*
X146050000Y-84064093D01*
X146618285Y-83951054D01*
X147100054Y-83629147D01*
X147421961Y-83147378D01*
X147483947Y-82835750D01*
X150280000Y-82835750D01*
X150280000Y-83526309D01*
X150376673Y-83759698D01*
X150555301Y-83938327D01*
X150788690Y-84035000D01*
X151479250Y-84035000D01*
X151638000Y-83876250D01*
X151638000Y-82677000D01*
X150438750Y-82677000D01*
X150280000Y-82835750D01*
X147483947Y-82835750D01*
X147535000Y-82579093D01*
X147535000Y-82520907D01*
X147421961Y-81952622D01*
X147168768Y-81573691D01*
X150280000Y-81573691D01*
X150280000Y-82264250D01*
X150438750Y-82423000D01*
X151638000Y-82423000D01*
X151638000Y-81223750D01*
X151892000Y-81223750D01*
X151892000Y-82423000D01*
X151912000Y-82423000D01*
X151912000Y-82677000D01*
X151892000Y-82677000D01*
X151892000Y-83876250D01*
X152050750Y-84035000D01*
X152741310Y-84035000D01*
X152974699Y-83938327D01*
X153153327Y-83759698D01*
X153225597Y-83585223D01*
X153254946Y-83629147D01*
X153736715Y-83951054D01*
X154305000Y-84064093D01*
X154873285Y-83951054D01*
X155355054Y-83629147D01*
X155676961Y-83147378D01*
X155790000Y-82579093D01*
X155790000Y-82520907D01*
X155676961Y-81952622D01*
X155355054Y-81470853D01*
X154873285Y-81148946D01*
X154305000Y-81035907D01*
X153736715Y-81148946D01*
X153254946Y-81470853D01*
X153225597Y-81514777D01*
X153153327Y-81340302D01*
X152974699Y-81161673D01*
X152741310Y-81065000D01*
X152050750Y-81065000D01*
X151892000Y-81223750D01*
X151638000Y-81223750D01*
X151479250Y-81065000D01*
X150788690Y-81065000D01*
X150555301Y-81161673D01*
X150376673Y-81340302D01*
X150280000Y-81573691D01*
X147168768Y-81573691D01*
X147100054Y-81470853D01*
X146618285Y-81148946D01*
X146050000Y-81035907D01*
X145683592Y-81108790D01*
X145317401Y-80742599D01*
X145070839Y-80577852D01*
X144780000Y-80520000D01*
X142240000Y-80520000D01*
X141949160Y-80577852D01*
X141702599Y-80742599D01*
X140839892Y-81605306D01*
X140750054Y-81470853D01*
X140268285Y-81148946D01*
X139700000Y-81035907D01*
X139131715Y-81148946D01*
X138649946Y-81470853D01*
X138620597Y-81514777D01*
X138548327Y-81340302D01*
X138369699Y-81161673D01*
X138136310Y-81065000D01*
X137445750Y-81065000D01*
X137287000Y-81223750D01*
X137033000Y-81223750D01*
X136874250Y-81065000D01*
X136183690Y-81065000D01*
X135950301Y-81161673D01*
X135771673Y-81340302D01*
X135675000Y-81573691D01*
X118710000Y-81573691D01*
X118710000Y-81188691D01*
X118613327Y-80955302D01*
X118434699Y-80776673D01*
X118418589Y-80770000D01*
X120722537Y-80770000D01*
X120754673Y-80802192D01*
X121098201Y-80944838D01*
X121470167Y-80945162D01*
X121813943Y-80803117D01*
X122077192Y-80540327D01*
X122219838Y-80196799D01*
X122220162Y-79824833D01*
X122078117Y-79481057D01*
X121815327Y-79217808D01*
X121471799Y-79075162D01*
X121099833Y-79074838D01*
X120756057Y-79216883D01*
X120722882Y-79250000D01*
X117789802Y-79250000D01*
X115023989Y-76484187D01*
X116039752Y-76484187D01*
X116257757Y-77011800D01*
X116661077Y-77415824D01*
X117188309Y-77634750D01*
X117759187Y-77635248D01*
X118286800Y-77417243D01*
X118690824Y-77013923D01*
X118883860Y-76549039D01*
X126243096Y-76549039D01*
X126403959Y-76937423D01*
X126779866Y-77352389D01*
X127285959Y-77591914D01*
X127508000Y-77470629D01*
X127508000Y-76327000D01*
X127762000Y-76327000D01*
X127762000Y-77470629D01*
X127984041Y-77591914D01*
X128490134Y-77352389D01*
X128866041Y-76937423D01*
X129026904Y-76549039D01*
X128904915Y-76327000D01*
X127762000Y-76327000D01*
X127508000Y-76327000D01*
X126365085Y-76327000D01*
X126243096Y-76549039D01*
X118883860Y-76549039D01*
X118909750Y-76486691D01*
X118910248Y-75915813D01*
X118883452Y-75850961D01*
X126243096Y-75850961D01*
X126365085Y-76073000D01*
X127508000Y-76073000D01*
X127508000Y-74929371D01*
X127762000Y-74929371D01*
X127762000Y-76073000D01*
X128904915Y-76073000D01*
X129026904Y-75850961D01*
X128866041Y-75462577D01*
X128490134Y-75047611D01*
X127984041Y-74808086D01*
X127762000Y-74929371D01*
X127508000Y-74929371D01*
X127285959Y-74808086D01*
X126779866Y-75047611D01*
X126403959Y-75462577D01*
X126243096Y-75850961D01*
X118883452Y-75850961D01*
X118692243Y-75388200D01*
X118288923Y-74984176D01*
X117761691Y-74765250D01*
X117190813Y-74764752D01*
X116663200Y-74982757D01*
X116259176Y-75386077D01*
X116040250Y-75913309D01*
X116039752Y-76484187D01*
X115023989Y-76484187D01*
X113567401Y-75027599D01*
X113320839Y-74862852D01*
X113030000Y-74805000D01*
X111439802Y-74805000D01*
X111344766Y-74709964D01*
X111389733Y-74601670D01*
X111390265Y-73991009D01*
X111157068Y-73426629D01*
X110725643Y-72994449D01*
X110161670Y-72760267D01*
X109551009Y-72759735D01*
X108986629Y-72992932D01*
X108554449Y-73424357D01*
X108320267Y-73988330D01*
X108319735Y-74598991D01*
X105370289Y-74598991D01*
X105370543Y-74309146D01*
X104894273Y-73156485D01*
X104013153Y-72273826D01*
X102944301Y-71830000D01*
X159948125Y-71830000D01*
X158881485Y-72270727D01*
M02*
