G04 #@! TF.FileFunction,Copper,L2,Bot,Signal*
%FSLAX46Y46*%
G04 Gerber Fmt 4.6, Leading zero omitted, Abs format (unit mm)*
G04 Created by KiCad (PCBNEW 4.0.6+dfsg1-1) date Mon Nov 13 19:33:16 2017*
%MOMM*%
%LPD*%
G01*
G04 APERTURE LIST*
%ADD10C,0.100000*%
%ADD11C,5.000000*%
%ADD12R,1.200000X1.200000*%
%ADD13C,1.200000*%
%ADD14C,1.600000*%
%ADD15O,1.600000X1.600000*%
%ADD16C,1.620000*%
%ADD17R,1.600000X1.600000*%
%ADD18C,2.000000*%
%ADD19R,1.800000X1.800000*%
%ADD20C,1.800000*%
%ADD21R,1.700000X1.700000*%
%ADD22O,1.700000X1.700000*%
%ADD23C,0.600000*%
%ADD24C,0.250000*%
%ADD25C,0.254000*%
G04 APERTURE END LIST*
D10*
D11*
X102425000Y-119825000D03*
X161425000Y-119825000D03*
X161425000Y-74825000D03*
D12*
X117475000Y-81915000D03*
D13*
X117475000Y-83415000D03*
D14*
X146685000Y-86995000D03*
D15*
X136525000Y-86995000D03*
D14*
X118425000Y-76825000D03*
D15*
X128585000Y-76825000D03*
D14*
X131425000Y-103825000D03*
D15*
X141585000Y-103825000D03*
D16*
X145415000Y-104220000D03*
X150415000Y-106720000D03*
X145415000Y-109220000D03*
X145415000Y-94060000D03*
X150415000Y-96560000D03*
X145415000Y-99060000D03*
D17*
X125095000Y-110490000D03*
D15*
X117475000Y-90170000D03*
X125095000Y-107950000D03*
X117475000Y-92710000D03*
X125095000Y-105410000D03*
X117475000Y-95250000D03*
X125095000Y-102870000D03*
X117475000Y-97790000D03*
X125095000Y-100330000D03*
X117475000Y-100330000D03*
X125095000Y-97790000D03*
X117475000Y-102870000D03*
X125095000Y-95250000D03*
X117475000Y-105410000D03*
X125095000Y-92710000D03*
X117475000Y-107950000D03*
X125095000Y-90170000D03*
X117475000Y-110490000D03*
D14*
X131445000Y-95250000D03*
D15*
X141605000Y-95250000D03*
D18*
X161290000Y-100910000D03*
X161290000Y-105410000D03*
X154790000Y-100910000D03*
X154790000Y-105410000D03*
X154940000Y-95940000D03*
X154940000Y-91440000D03*
X161440000Y-95940000D03*
X161440000Y-91440000D03*
D17*
X111125000Y-111760000D03*
D15*
X103505000Y-88900000D03*
X111125000Y-109220000D03*
X103505000Y-91440000D03*
X111125000Y-106680000D03*
X103505000Y-93980000D03*
X111125000Y-104140000D03*
X103505000Y-96520000D03*
X111125000Y-101600000D03*
X103505000Y-99060000D03*
X111125000Y-99060000D03*
X103505000Y-101600000D03*
X111125000Y-96520000D03*
X103505000Y-104140000D03*
X111125000Y-93980000D03*
X103505000Y-106680000D03*
X111125000Y-91440000D03*
X103505000Y-109220000D03*
X111125000Y-88900000D03*
X103505000Y-111760000D03*
D19*
X109855000Y-76835000D03*
D20*
X109855000Y-74295000D03*
D14*
X131445000Y-108585000D03*
D15*
X141605000Y-108585000D03*
D21*
X137160000Y-82550000D03*
D22*
X139700000Y-82550000D03*
D21*
X151765000Y-82550000D03*
D22*
X154305000Y-82550000D03*
D21*
X143510000Y-82550000D03*
D22*
X146050000Y-82550000D03*
D21*
X103505000Y-82550000D03*
D22*
X106045000Y-82550000D03*
D11*
X102425000Y-74825000D03*
D23*
X117000000Y-87000000D03*
X107000000Y-110000000D03*
X116000000Y-114000000D03*
X110000000Y-116000000D03*
X107000000Y-104000000D03*
X100000000Y-101000000D03*
X113000000Y-81000000D03*
X130000000Y-99000000D03*
D24*
X117475000Y-81915000D02*
X117000000Y-82000000D01*
X117000000Y-82000000D02*
X112000000Y-77000000D01*
X112000000Y-77000000D02*
X110000000Y-77000000D01*
X110000000Y-77000000D02*
X109855000Y-76835000D01*
X125095000Y-107950000D02*
X125000000Y-108000000D01*
X125000000Y-108000000D02*
X126000000Y-107000000D01*
X126000000Y-107000000D02*
X133000000Y-107000000D01*
X133000000Y-107000000D02*
X135000000Y-109000000D01*
X135000000Y-109000000D02*
X142000000Y-109000000D01*
X142000000Y-109000000D02*
X141605000Y-108585000D01*
X143510000Y-82550000D02*
X144000000Y-83000000D01*
X144000000Y-83000000D02*
X144000000Y-81000000D01*
X144000000Y-81000000D02*
X148000000Y-81000000D01*
X148000000Y-81000000D02*
X150000000Y-83000000D01*
X150000000Y-83000000D02*
X152000000Y-83000000D01*
X152000000Y-83000000D02*
X151765000Y-82550000D01*
X137160000Y-82550000D02*
X137000000Y-83000000D01*
X137000000Y-83000000D02*
X138000000Y-82000000D01*
X138000000Y-82000000D02*
X138000000Y-81000000D01*
X138000000Y-81000000D02*
X141000000Y-81000000D01*
X141000000Y-81000000D02*
X143000000Y-83000000D01*
X143000000Y-83000000D02*
X144000000Y-83000000D01*
X144000000Y-83000000D02*
X143510000Y-82550000D01*
X150415000Y-106720000D02*
X150000000Y-107000000D01*
X150000000Y-107000000D02*
X152000000Y-105000000D01*
X152000000Y-105000000D02*
X155000000Y-105000000D01*
X155000000Y-105000000D02*
X154790000Y-105410000D01*
X145415000Y-109220000D02*
X145000000Y-109000000D01*
X145000000Y-109000000D02*
X147000000Y-107000000D01*
X147000000Y-107000000D02*
X150000000Y-107000000D01*
X150000000Y-107000000D02*
X150415000Y-106720000D01*
X154790000Y-105410000D02*
X155000000Y-105000000D01*
X155000000Y-105000000D02*
X161000000Y-105000000D01*
X161000000Y-105000000D02*
X161290000Y-105410000D01*
X139700000Y-82550000D02*
X140000000Y-83000000D01*
X140000000Y-83000000D02*
X141000000Y-84000000D01*
X141000000Y-84000000D02*
X145000000Y-84000000D01*
X145000000Y-84000000D02*
X146000000Y-83000000D01*
X146000000Y-83000000D02*
X146050000Y-82550000D01*
X154790000Y-100910000D02*
X155000000Y-101000000D01*
X155000000Y-101000000D02*
X161000000Y-101000000D01*
X161000000Y-101000000D02*
X161290000Y-100910000D01*
X131445000Y-95250000D02*
X131000000Y-95000000D01*
X131000000Y-95000000D02*
X132000000Y-94000000D01*
X132000000Y-94000000D02*
X145000000Y-94000000D01*
X145000000Y-94000000D02*
X145415000Y-94060000D01*
X125095000Y-95250000D02*
X125000000Y-95000000D01*
X125000000Y-95000000D02*
X131000000Y-95000000D01*
X131000000Y-95000000D02*
X131445000Y-95250000D01*
X117475000Y-90170000D02*
X117000000Y-90000000D01*
X117000000Y-90000000D02*
X114000000Y-87000000D01*
X114000000Y-87000000D02*
X109000000Y-87000000D01*
X109000000Y-87000000D02*
X107000000Y-89000000D01*
X107000000Y-89000000D02*
X104000000Y-89000000D01*
X104000000Y-89000000D02*
X103505000Y-88900000D01*
X117000000Y-87000000D02*
X116000000Y-86000000D01*
X116000000Y-86000000D02*
X108000000Y-86000000D01*
X108000000Y-86000000D02*
X107000000Y-87000000D01*
X107000000Y-87000000D02*
X102000000Y-87000000D01*
X102000000Y-87000000D02*
X102000000Y-96000000D01*
X102000000Y-96000000D02*
X103000000Y-97000000D01*
X103000000Y-97000000D02*
X104000000Y-97000000D01*
X104000000Y-97000000D02*
X103505000Y-96520000D01*
X107000000Y-110000000D02*
X107000000Y-111000000D01*
X107000000Y-111000000D02*
X110000000Y-114000000D01*
X110000000Y-114000000D02*
X116000000Y-114000000D01*
X117475000Y-102870000D02*
X117000000Y-103000000D01*
X117000000Y-103000000D02*
X109000000Y-103000000D01*
X109000000Y-103000000D02*
X108000000Y-102000000D01*
X108000000Y-102000000D02*
X104000000Y-102000000D01*
X104000000Y-102000000D02*
X103505000Y-101600000D01*
X110000000Y-116000000D02*
X111000000Y-115000000D01*
X111000000Y-115000000D02*
X117000000Y-115000000D01*
X117000000Y-115000000D02*
X117000000Y-114000000D01*
X117000000Y-114000000D02*
X119000000Y-112000000D01*
X119000000Y-112000000D02*
X119000000Y-109000000D01*
X119000000Y-109000000D02*
X118000000Y-108000000D01*
X118000000Y-108000000D02*
X117000000Y-108000000D01*
X117000000Y-108000000D02*
X117475000Y-107950000D01*
X103505000Y-109220000D02*
X104000000Y-109000000D01*
X104000000Y-109000000D02*
X105000000Y-108000000D01*
X105000000Y-108000000D02*
X113000000Y-108000000D01*
X113000000Y-108000000D02*
X115000000Y-110000000D01*
X115000000Y-110000000D02*
X117000000Y-110000000D01*
X117000000Y-110000000D02*
X117475000Y-110490000D01*
X125095000Y-110490000D02*
X125000000Y-110000000D01*
X125000000Y-110000000D02*
X118000000Y-117000000D01*
X118000000Y-117000000D02*
X109000000Y-117000000D01*
X109000000Y-117000000D02*
X104000000Y-112000000D01*
X104000000Y-112000000D02*
X103505000Y-111760000D01*
X109855000Y-74295000D02*
X110000000Y-74000000D01*
X110000000Y-74000000D02*
X111000000Y-75000000D01*
X111000000Y-75000000D02*
X112000000Y-75000000D01*
X112000000Y-75000000D02*
X114000000Y-77000000D01*
X114000000Y-77000000D02*
X118000000Y-77000000D01*
X118000000Y-77000000D02*
X118425000Y-76825000D01*
X161440000Y-91440000D02*
X161000000Y-91000000D01*
X161000000Y-91000000D02*
X155000000Y-91000000D01*
X155000000Y-91000000D02*
X154940000Y-91440000D01*
X125095000Y-105410000D02*
X125000000Y-105000000D01*
X125000000Y-105000000D02*
X126000000Y-106000000D01*
X126000000Y-106000000D02*
X147000000Y-106000000D01*
X147000000Y-106000000D02*
X147000000Y-104000000D01*
X147000000Y-104000000D02*
X155000000Y-96000000D01*
X155000000Y-96000000D02*
X154940000Y-95940000D01*
X117475000Y-83415000D02*
X117000000Y-83000000D01*
X117000000Y-83000000D02*
X119000000Y-83000000D01*
X119000000Y-83000000D02*
X125000000Y-77000000D01*
X125000000Y-77000000D02*
X129000000Y-77000000D01*
X129000000Y-77000000D02*
X128585000Y-76825000D01*
X107000000Y-104000000D02*
X106000000Y-103000000D01*
X106000000Y-103000000D02*
X102000000Y-103000000D01*
X102000000Y-103000000D02*
X100000000Y-101000000D01*
X111125000Y-88900000D02*
X111000000Y-89000000D01*
X111000000Y-89000000D02*
X112000000Y-90000000D01*
X112000000Y-90000000D02*
X113000000Y-90000000D01*
X113000000Y-90000000D02*
X116000000Y-93000000D01*
X116000000Y-93000000D02*
X116000000Y-94000000D01*
X116000000Y-94000000D02*
X119000000Y-94000000D01*
X119000000Y-94000000D02*
X119000000Y-87000000D01*
X119000000Y-87000000D02*
X117000000Y-85000000D01*
X117000000Y-85000000D02*
X116000000Y-85000000D01*
X116000000Y-85000000D02*
X114000000Y-83000000D01*
X114000000Y-83000000D02*
X106000000Y-83000000D01*
X106000000Y-83000000D02*
X106045000Y-82550000D01*
X125095000Y-105410000D02*
X125000000Y-105000000D01*
X125000000Y-105000000D02*
X124000000Y-104000000D01*
X124000000Y-104000000D02*
X116000000Y-104000000D01*
X116000000Y-104000000D02*
X113000000Y-107000000D01*
X113000000Y-107000000D02*
X111000000Y-107000000D01*
X111000000Y-107000000D02*
X111125000Y-106680000D01*
X154940000Y-95940000D02*
X155000000Y-96000000D01*
X155000000Y-96000000D02*
X161000000Y-96000000D01*
X161000000Y-96000000D02*
X161440000Y-95940000D01*
X103505000Y-82550000D02*
X104000000Y-83000000D01*
X104000000Y-83000000D02*
X104000000Y-81000000D01*
X104000000Y-81000000D02*
X113000000Y-81000000D01*
X131425000Y-103825000D02*
X131000000Y-104000000D01*
X131000000Y-104000000D02*
X127000000Y-100000000D01*
X127000000Y-100000000D02*
X125000000Y-100000000D01*
X125000000Y-100000000D02*
X125095000Y-100330000D01*
X131425000Y-103825000D02*
X131000000Y-104000000D01*
X131000000Y-104000000D02*
X132000000Y-105000000D01*
X132000000Y-105000000D02*
X143000000Y-105000000D01*
X143000000Y-105000000D02*
X144000000Y-104000000D01*
X144000000Y-104000000D02*
X145000000Y-104000000D01*
X145000000Y-104000000D02*
X145415000Y-104220000D01*
X150415000Y-96560000D02*
X150000000Y-97000000D01*
X150000000Y-97000000D02*
X149425000Y-96825000D01*
X149425000Y-96825000D02*
X144425000Y-96825000D01*
X144425000Y-96825000D02*
X143000000Y-99000000D01*
X143000000Y-99000000D02*
X130000000Y-99000000D01*
D25*
G36*
X164715000Y-123115000D02*
X99135000Y-123115000D01*
X99135000Y-120445854D01*
X99289457Y-120445854D01*
X99765727Y-121598515D01*
X100646847Y-122481174D01*
X101798674Y-122959454D01*
X103045854Y-122960543D01*
X104198515Y-122484273D01*
X105081174Y-121603153D01*
X105559454Y-120451326D01*
X105559458Y-120445854D01*
X158289457Y-120445854D01*
X158765727Y-121598515D01*
X159646847Y-122481174D01*
X160798674Y-122959454D01*
X162045854Y-122960543D01*
X163198515Y-122484273D01*
X164081174Y-121603153D01*
X164559454Y-120451326D01*
X164560543Y-119204146D01*
X164084273Y-118051485D01*
X163203153Y-117168826D01*
X162051326Y-116690546D01*
X160804146Y-116689457D01*
X159651485Y-117165727D01*
X158768826Y-118046847D01*
X158290546Y-119198674D01*
X158289457Y-120445854D01*
X105559458Y-120445854D01*
X105560543Y-119204146D01*
X105084273Y-118051485D01*
X104203153Y-117168826D01*
X103051326Y-116690546D01*
X101804146Y-116689457D01*
X100651485Y-117165727D01*
X99768826Y-118046847D01*
X99290546Y-119198674D01*
X99289457Y-120445854D01*
X99135000Y-120445854D01*
X99135000Y-101354972D01*
X99206883Y-101528943D01*
X99469673Y-101792192D01*
X99813201Y-101934838D01*
X99860077Y-101934879D01*
X101462599Y-103537401D01*
X101709161Y-103702148D01*
X102000000Y-103760000D01*
X102117474Y-103760000D01*
X102041887Y-104140000D01*
X102151120Y-104689151D01*
X102462189Y-105154698D01*
X102844275Y-105410000D01*
X102462189Y-105665302D01*
X102151120Y-106130849D01*
X102041887Y-106680000D01*
X102151120Y-107229151D01*
X102462189Y-107694698D01*
X102844275Y-107950000D01*
X102462189Y-108205302D01*
X102151120Y-108670849D01*
X102041887Y-109220000D01*
X102151120Y-109769151D01*
X102462189Y-110234698D01*
X102844275Y-110490000D01*
X102462189Y-110745302D01*
X102151120Y-111210849D01*
X102041887Y-111760000D01*
X102151120Y-112309151D01*
X102462189Y-112774698D01*
X102927736Y-113085767D01*
X103476887Y-113195000D01*
X103533113Y-113195000D01*
X104022794Y-113097596D01*
X108462599Y-117537401D01*
X108709161Y-117702148D01*
X109000000Y-117760000D01*
X118000000Y-117760000D01*
X118290839Y-117702148D01*
X118537401Y-117537401D01*
X124163909Y-111910893D01*
X124295000Y-111937440D01*
X125895000Y-111937440D01*
X126130317Y-111893162D01*
X126346441Y-111754090D01*
X126491431Y-111541890D01*
X126542440Y-111290000D01*
X126542440Y-109690000D01*
X126498162Y-109454683D01*
X126359090Y-109238559D01*
X126146890Y-109093569D01*
X125987384Y-109061268D01*
X126161385Y-108869187D01*
X130009752Y-108869187D01*
X130227757Y-109396800D01*
X130631077Y-109800824D01*
X131158309Y-110019750D01*
X131729187Y-110020248D01*
X132256800Y-109802243D01*
X132660824Y-109398923D01*
X132853860Y-108934039D01*
X140213096Y-108934039D01*
X140373959Y-109322423D01*
X140749866Y-109737389D01*
X141255959Y-109976914D01*
X141478000Y-109855629D01*
X141478000Y-108712000D01*
X141732000Y-108712000D01*
X141732000Y-109855629D01*
X141954041Y-109976914D01*
X142460134Y-109737389D01*
X142836041Y-109322423D01*
X142996904Y-108934039D01*
X142874915Y-108712000D01*
X141732000Y-108712000D01*
X141478000Y-108712000D01*
X140335085Y-108712000D01*
X140213096Y-108934039D01*
X132853860Y-108934039D01*
X132879750Y-108871691D01*
X132880248Y-108300813D01*
X132853452Y-108235961D01*
X140213096Y-108235961D01*
X140335085Y-108458000D01*
X141478000Y-108458000D01*
X141478000Y-107314371D01*
X141732000Y-107314371D01*
X141732000Y-108458000D01*
X142874915Y-108458000D01*
X142996904Y-108235961D01*
X142836041Y-107847577D01*
X142460134Y-107432611D01*
X141954041Y-107193086D01*
X141732000Y-107314371D01*
X141478000Y-107314371D01*
X141255959Y-107193086D01*
X140749866Y-107432611D01*
X140373959Y-107847577D01*
X140213096Y-108235961D01*
X132853452Y-108235961D01*
X132662243Y-107773200D01*
X132258923Y-107369176D01*
X131731691Y-107150250D01*
X131160813Y-107149752D01*
X130633200Y-107367757D01*
X130229176Y-107771077D01*
X130010250Y-108298309D01*
X130009752Y-108869187D01*
X126161385Y-108869187D01*
X126326041Y-108687423D01*
X126486904Y-108299039D01*
X126364915Y-108077000D01*
X125222000Y-108077000D01*
X125222000Y-108097000D01*
X124968000Y-108097000D01*
X124968000Y-108077000D01*
X123825085Y-108077000D01*
X123703096Y-108299039D01*
X123863959Y-108687423D01*
X124201590Y-109060136D01*
X124059683Y-109086838D01*
X123843559Y-109225910D01*
X123698569Y-109438110D01*
X123647560Y-109690000D01*
X123647560Y-110277638D01*
X117685198Y-116240000D01*
X110912747Y-116240000D01*
X110934838Y-116186799D01*
X110934879Y-116139923D01*
X111314802Y-115760000D01*
X117000000Y-115760000D01*
X117290839Y-115702148D01*
X117537401Y-115537401D01*
X117702148Y-115290839D01*
X117760000Y-115000000D01*
X117760000Y-114314802D01*
X119537401Y-112537401D01*
X119702148Y-112290839D01*
X119760000Y-112000000D01*
X119760000Y-109000000D01*
X119702148Y-108709161D01*
X119537401Y-108462599D01*
X118916588Y-107841786D01*
X118828880Y-107400849D01*
X118517811Y-106935302D01*
X118135725Y-106680000D01*
X118517811Y-106424698D01*
X118828880Y-105959151D01*
X118938113Y-105410000D01*
X118828880Y-104860849D01*
X118761495Y-104760000D01*
X123685198Y-104760000D01*
X123759115Y-104833917D01*
X123741120Y-104860849D01*
X123631887Y-105410000D01*
X123741120Y-105959151D01*
X124052189Y-106424698D01*
X124456703Y-106694986D01*
X124239866Y-106797611D01*
X123863959Y-107212577D01*
X123703096Y-107600961D01*
X123825085Y-107823000D01*
X124968000Y-107823000D01*
X124968000Y-107803000D01*
X125222000Y-107803000D01*
X125222000Y-107823000D01*
X126364915Y-107823000D01*
X126486904Y-107600961D01*
X126326041Y-107212577D01*
X125950134Y-106797611D01*
X125776900Y-106715622D01*
X126000000Y-106760000D01*
X146165198Y-106760000D01*
X145150429Y-107774769D01*
X145128833Y-107774750D01*
X144597543Y-107994275D01*
X144190703Y-108400405D01*
X143970252Y-108931311D01*
X143969750Y-109506167D01*
X144189275Y-110037457D01*
X144595405Y-110444297D01*
X145126311Y-110664748D01*
X145701167Y-110665250D01*
X146232457Y-110445725D01*
X146639297Y-110039595D01*
X146859748Y-109508689D01*
X146860250Y-108933833D01*
X146649945Y-108424857D01*
X147314802Y-107760000D01*
X149411430Y-107760000D01*
X149595405Y-107944297D01*
X150126311Y-108164748D01*
X150701167Y-108165250D01*
X151232457Y-107945725D01*
X151639297Y-107539595D01*
X151859748Y-107008689D01*
X151860250Y-106433833D01*
X151796136Y-106278666D01*
X152314802Y-105760000D01*
X153165544Y-105760000D01*
X153403106Y-106334943D01*
X153862637Y-106795278D01*
X154463352Y-107044716D01*
X155113795Y-107045284D01*
X155714943Y-106796894D01*
X156175278Y-106337363D01*
X156415019Y-105760000D01*
X159665544Y-105760000D01*
X159903106Y-106334943D01*
X160362637Y-106795278D01*
X160963352Y-107044716D01*
X161613795Y-107045284D01*
X162214943Y-106796894D01*
X162675278Y-106337363D01*
X162924716Y-105736648D01*
X162925284Y-105086205D01*
X162676894Y-104485057D01*
X162217363Y-104024722D01*
X161616648Y-103775284D01*
X160966205Y-103774716D01*
X160365057Y-104023106D01*
X160147784Y-104240000D01*
X155932265Y-104240000D01*
X155717363Y-104024722D01*
X155116648Y-103775284D01*
X154466205Y-103774716D01*
X153865057Y-104023106D01*
X153647784Y-104240000D01*
X152000000Y-104240000D01*
X151709161Y-104297852D01*
X151462599Y-104462599D01*
X150649993Y-105275205D01*
X150128833Y-105274750D01*
X149597543Y-105494275D01*
X149190703Y-105900405D01*
X149049691Y-106240000D01*
X147712261Y-106240000D01*
X147760000Y-106000000D01*
X147760000Y-104314802D01*
X150841007Y-101233795D01*
X153154716Y-101233795D01*
X153403106Y-101834943D01*
X153862637Y-102295278D01*
X154463352Y-102544716D01*
X155113795Y-102545284D01*
X155714943Y-102296894D01*
X156175278Y-101837363D01*
X156207402Y-101760000D01*
X159872140Y-101760000D01*
X159903106Y-101834943D01*
X160362637Y-102295278D01*
X160963352Y-102544716D01*
X161613795Y-102545284D01*
X162214943Y-102296894D01*
X162675278Y-101837363D01*
X162924716Y-101236648D01*
X162925284Y-100586205D01*
X162676894Y-99985057D01*
X162217363Y-99524722D01*
X161616648Y-99275284D01*
X160966205Y-99274716D01*
X160365057Y-99523106D01*
X159904722Y-99982637D01*
X159797856Y-100240000D01*
X156282235Y-100240000D01*
X156176894Y-99985057D01*
X155717363Y-99524722D01*
X155116648Y-99275284D01*
X154466205Y-99274716D01*
X153865057Y-99523106D01*
X153404722Y-99982637D01*
X153155284Y-100583352D01*
X153154716Y-101233795D01*
X150841007Y-101233795D01*
X154533319Y-97541484D01*
X154613352Y-97574716D01*
X155263795Y-97575284D01*
X155864943Y-97326894D01*
X156325278Y-96867363D01*
X156369859Y-96760000D01*
X160009744Y-96760000D01*
X160053106Y-96864943D01*
X160512637Y-97325278D01*
X161113352Y-97574716D01*
X161763795Y-97575284D01*
X162364943Y-97326894D01*
X162825278Y-96867363D01*
X163074716Y-96266648D01*
X163075284Y-95616205D01*
X162826894Y-95015057D01*
X162367363Y-94554722D01*
X161766648Y-94305284D01*
X161116205Y-94304716D01*
X160515057Y-94553106D01*
X160054722Y-95012637D01*
X159960313Y-95240000D01*
X156419839Y-95240000D01*
X156326894Y-95015057D01*
X155867363Y-94554722D01*
X155266648Y-94305284D01*
X154616205Y-94304716D01*
X154015057Y-94553106D01*
X153554722Y-95012637D01*
X153305284Y-95613352D01*
X153304716Y-96263795D01*
X153409005Y-96516192D01*
X146581742Y-103343456D01*
X146234595Y-102995703D01*
X145703689Y-102775252D01*
X145128833Y-102774750D01*
X144597543Y-102994275D01*
X144351388Y-103240000D01*
X144000000Y-103240000D01*
X143709161Y-103297852D01*
X143462599Y-103462599D01*
X142896857Y-104028341D01*
X142854915Y-103952000D01*
X141712000Y-103952000D01*
X141712000Y-103972000D01*
X141458000Y-103972000D01*
X141458000Y-103952000D01*
X140315085Y-103952000D01*
X140193096Y-104174039D01*
X140220416Y-104240000D01*
X132806471Y-104240000D01*
X132859750Y-104111691D01*
X132860248Y-103540813D01*
X132833452Y-103475961D01*
X140193096Y-103475961D01*
X140315085Y-103698000D01*
X141458000Y-103698000D01*
X141458000Y-102554371D01*
X141712000Y-102554371D01*
X141712000Y-103698000D01*
X142854915Y-103698000D01*
X142976904Y-103475961D01*
X142816041Y-103087577D01*
X142440134Y-102672611D01*
X141934041Y-102433086D01*
X141712000Y-102554371D01*
X141458000Y-102554371D01*
X141235959Y-102433086D01*
X140729866Y-102672611D01*
X140353959Y-103087577D01*
X140193096Y-103475961D01*
X132833452Y-103475961D01*
X132642243Y-103013200D01*
X132238923Y-102609176D01*
X131711691Y-102390250D01*
X131140813Y-102389752D01*
X130662280Y-102587478D01*
X128149790Y-100074988D01*
X144579617Y-100074988D01*
X144654980Y-100322144D01*
X145195834Y-100516916D01*
X145770055Y-100489886D01*
X146175020Y-100322144D01*
X146250383Y-100074988D01*
X145415000Y-99239605D01*
X144579617Y-100074988D01*
X128149790Y-100074988D01*
X127537401Y-99462599D01*
X127290839Y-99297852D01*
X127000000Y-99240000D01*
X126025114Y-99240000D01*
X125943051Y-99185167D01*
X129064838Y-99185167D01*
X129206883Y-99528943D01*
X129469673Y-99792192D01*
X129813201Y-99934838D01*
X130185167Y-99935162D01*
X130528943Y-99793117D01*
X130562118Y-99760000D01*
X143000000Y-99760000D01*
X143076753Y-99744733D01*
X143155005Y-99744025D01*
X143220765Y-99716087D01*
X143290839Y-99702148D01*
X143355907Y-99658671D01*
X143427932Y-99628071D01*
X143477993Y-99577096D01*
X143537401Y-99537401D01*
X143580878Y-99472333D01*
X143635710Y-99416500D01*
X143961756Y-98918850D01*
X143985114Y-99415055D01*
X144152856Y-99820020D01*
X144400012Y-99895383D01*
X145235395Y-99060000D01*
X145594605Y-99060000D01*
X146429988Y-99895383D01*
X146677144Y-99820020D01*
X146871916Y-99279166D01*
X146844886Y-98704945D01*
X146677144Y-98299980D01*
X146429988Y-98224617D01*
X145594605Y-99060000D01*
X145235395Y-99060000D01*
X145221253Y-99045858D01*
X145400858Y-98866253D01*
X145415000Y-98880395D01*
X146250383Y-98045012D01*
X146175020Y-97797856D01*
X145634166Y-97603084D01*
X145059945Y-97630114D01*
X144711554Y-97774422D01*
X144835658Y-97585000D01*
X149311909Y-97585000D01*
X149433352Y-97621961D01*
X149595405Y-97784297D01*
X150126311Y-98004748D01*
X150701167Y-98005250D01*
X151232457Y-97785725D01*
X151639297Y-97379595D01*
X151859748Y-96848689D01*
X151860250Y-96273833D01*
X151640725Y-95742543D01*
X151234595Y-95335703D01*
X150703689Y-95115252D01*
X150128833Y-95114750D01*
X149597543Y-95334275D01*
X149190703Y-95740405D01*
X149055920Y-96065000D01*
X144425000Y-96065000D01*
X144348247Y-96080267D01*
X144269995Y-96080975D01*
X144204235Y-96108913D01*
X144134161Y-96122852D01*
X144069093Y-96166329D01*
X143997068Y-96196929D01*
X143947006Y-96247905D01*
X143887599Y-96287599D01*
X143844124Y-96352665D01*
X143789289Y-96408500D01*
X142589342Y-98240000D01*
X130562463Y-98240000D01*
X130530327Y-98207808D01*
X130186799Y-98065162D01*
X129814833Y-98064838D01*
X129471057Y-98206883D01*
X129207808Y-98469673D01*
X129065162Y-98813201D01*
X129064838Y-99185167D01*
X125943051Y-99185167D01*
X125755725Y-99060000D01*
X126137811Y-98804698D01*
X126448880Y-98339151D01*
X126558113Y-97790000D01*
X126448880Y-97240849D01*
X126137811Y-96775302D01*
X125755725Y-96520000D01*
X126137811Y-96264698D01*
X126448880Y-95799151D01*
X126456668Y-95760000D01*
X130103056Y-95760000D01*
X130227757Y-96061800D01*
X130631077Y-96465824D01*
X131158309Y-96684750D01*
X131729187Y-96685248D01*
X132256800Y-96467243D01*
X132660824Y-96063923D01*
X132853860Y-95599039D01*
X140213096Y-95599039D01*
X140373959Y-95987423D01*
X140749866Y-96402389D01*
X141255959Y-96641914D01*
X141478000Y-96520629D01*
X141478000Y-95377000D01*
X141732000Y-95377000D01*
X141732000Y-96520629D01*
X141954041Y-96641914D01*
X142460134Y-96402389D01*
X142836041Y-95987423D01*
X142996904Y-95599039D01*
X142874915Y-95377000D01*
X141732000Y-95377000D01*
X141478000Y-95377000D01*
X140335085Y-95377000D01*
X140213096Y-95599039D01*
X132853860Y-95599039D01*
X132879750Y-95536691D01*
X132880248Y-94965813D01*
X132795208Y-94760000D01*
X140271480Y-94760000D01*
X140213096Y-94900961D01*
X140335085Y-95123000D01*
X141478000Y-95123000D01*
X141478000Y-95103000D01*
X141732000Y-95103000D01*
X141732000Y-95123000D01*
X142874915Y-95123000D01*
X142996904Y-94900961D01*
X142938520Y-94760000D01*
X144140743Y-94760000D01*
X144189275Y-94877457D01*
X144595405Y-95284297D01*
X145126311Y-95504748D01*
X145701167Y-95505250D01*
X146232457Y-95285725D01*
X146639297Y-94879595D01*
X146859748Y-94348689D01*
X146860250Y-93773833D01*
X146640725Y-93242543D01*
X146234595Y-92835703D01*
X145703689Y-92615252D01*
X145128833Y-92614750D01*
X144597543Y-92834275D01*
X144191109Y-93240000D01*
X132000000Y-93240000D01*
X131709161Y-93297852D01*
X131462599Y-93462599D01*
X131074981Y-93850217D01*
X130633200Y-94032757D01*
X130425595Y-94240000D01*
X126140950Y-94240000D01*
X126137811Y-94235302D01*
X125733297Y-93965014D01*
X125950134Y-93862389D01*
X126326041Y-93447423D01*
X126486904Y-93059039D01*
X126364915Y-92837000D01*
X125222000Y-92837000D01*
X125222000Y-92857000D01*
X124968000Y-92857000D01*
X124968000Y-92837000D01*
X123825085Y-92837000D01*
X123703096Y-93059039D01*
X123863959Y-93447423D01*
X124239866Y-93862389D01*
X124456703Y-93965014D01*
X124052189Y-94235302D01*
X123741120Y-94700849D01*
X123631887Y-95250000D01*
X123741120Y-95799151D01*
X124052189Y-96264698D01*
X124434275Y-96520000D01*
X124052189Y-96775302D01*
X123741120Y-97240849D01*
X123631887Y-97790000D01*
X123741120Y-98339151D01*
X124052189Y-98804698D01*
X124434275Y-99060000D01*
X124052189Y-99315302D01*
X123741120Y-99780849D01*
X123631887Y-100330000D01*
X123741120Y-100879151D01*
X124052189Y-101344698D01*
X124434275Y-101600000D01*
X124052189Y-101855302D01*
X123741120Y-102320849D01*
X123631887Y-102870000D01*
X123705485Y-103240000D01*
X118864515Y-103240000D01*
X118938113Y-102870000D01*
X118828880Y-102320849D01*
X118517811Y-101855302D01*
X118135725Y-101600000D01*
X118517811Y-101344698D01*
X118828880Y-100879151D01*
X118938113Y-100330000D01*
X118828880Y-99780849D01*
X118517811Y-99315302D01*
X118135725Y-99060000D01*
X118517811Y-98804698D01*
X118828880Y-98339151D01*
X118938113Y-97790000D01*
X118828880Y-97240849D01*
X118517811Y-96775302D01*
X118135725Y-96520000D01*
X118517811Y-96264698D01*
X118828880Y-95799151D01*
X118938113Y-95250000D01*
X118840646Y-94760000D01*
X119000000Y-94760000D01*
X119290839Y-94702148D01*
X119537401Y-94537401D01*
X119702148Y-94290839D01*
X119760000Y-94000000D01*
X119760000Y-90170000D01*
X123631887Y-90170000D01*
X123741120Y-90719151D01*
X124052189Y-91184698D01*
X124456703Y-91454986D01*
X124239866Y-91557611D01*
X123863959Y-91972577D01*
X123703096Y-92360961D01*
X123825085Y-92583000D01*
X124968000Y-92583000D01*
X124968000Y-92563000D01*
X125222000Y-92563000D01*
X125222000Y-92583000D01*
X126364915Y-92583000D01*
X126486904Y-92360961D01*
X126326041Y-91972577D01*
X126136911Y-91763795D01*
X153304716Y-91763795D01*
X153553106Y-92364943D01*
X154012637Y-92825278D01*
X154613352Y-93074716D01*
X155263795Y-93075284D01*
X155864943Y-92826894D01*
X156325278Y-92367363D01*
X156574716Y-91766648D01*
X156574722Y-91760000D01*
X159804719Y-91760000D01*
X159804716Y-91763795D01*
X160053106Y-92364943D01*
X160512637Y-92825278D01*
X161113352Y-93074716D01*
X161763795Y-93075284D01*
X162364943Y-92826894D01*
X162825278Y-92367363D01*
X163074716Y-91766648D01*
X163075284Y-91116205D01*
X162826894Y-90515057D01*
X162367363Y-90054722D01*
X161766648Y-89805284D01*
X161116205Y-89804716D01*
X160515057Y-90053106D01*
X160327836Y-90240000D01*
X156052317Y-90240000D01*
X155867363Y-90054722D01*
X155266648Y-89805284D01*
X154616205Y-89804716D01*
X154015057Y-90053106D01*
X153554722Y-90512637D01*
X153305284Y-91113352D01*
X153304716Y-91763795D01*
X126136911Y-91763795D01*
X125950134Y-91557611D01*
X125733297Y-91454986D01*
X126137811Y-91184698D01*
X126448880Y-90719151D01*
X126558113Y-90170000D01*
X126448880Y-89620849D01*
X126137811Y-89155302D01*
X125672264Y-88844233D01*
X125123113Y-88735000D01*
X125066887Y-88735000D01*
X124517736Y-88844233D01*
X124052189Y-89155302D01*
X123741120Y-89620849D01*
X123631887Y-90170000D01*
X119760000Y-90170000D01*
X119760000Y-87344039D01*
X135133096Y-87344039D01*
X135293959Y-87732423D01*
X135669866Y-88147389D01*
X136175959Y-88386914D01*
X136398000Y-88265629D01*
X136398000Y-87122000D01*
X136652000Y-87122000D01*
X136652000Y-88265629D01*
X136874041Y-88386914D01*
X137380134Y-88147389D01*
X137756041Y-87732423D01*
X137916904Y-87344039D01*
X137881275Y-87279187D01*
X145249752Y-87279187D01*
X145467757Y-87806800D01*
X145871077Y-88210824D01*
X146398309Y-88429750D01*
X146969187Y-88430248D01*
X147496800Y-88212243D01*
X147900824Y-87808923D01*
X148119750Y-87281691D01*
X148120248Y-86710813D01*
X147902243Y-86183200D01*
X147498923Y-85779176D01*
X146971691Y-85560250D01*
X146400813Y-85559752D01*
X145873200Y-85777757D01*
X145469176Y-86181077D01*
X145250250Y-86708309D01*
X145249752Y-87279187D01*
X137881275Y-87279187D01*
X137794915Y-87122000D01*
X136652000Y-87122000D01*
X136398000Y-87122000D01*
X135255085Y-87122000D01*
X135133096Y-87344039D01*
X119760000Y-87344039D01*
X119760000Y-87000000D01*
X119702148Y-86709161D01*
X119659920Y-86645961D01*
X135133096Y-86645961D01*
X135255085Y-86868000D01*
X136398000Y-86868000D01*
X136398000Y-85724371D01*
X136652000Y-85724371D01*
X136652000Y-86868000D01*
X137794915Y-86868000D01*
X137916904Y-86645961D01*
X137756041Y-86257577D01*
X137380134Y-85842611D01*
X136874041Y-85603086D01*
X136652000Y-85724371D01*
X136398000Y-85724371D01*
X136175959Y-85603086D01*
X135669866Y-85842611D01*
X135293959Y-86257577D01*
X135133096Y-86645961D01*
X119659920Y-86645961D01*
X119537401Y-86462599D01*
X117723426Y-84648624D01*
X118173657Y-84462592D01*
X118521371Y-84115485D01*
X118668981Y-83760000D01*
X119000000Y-83760000D01*
X119290839Y-83702148D01*
X119537401Y-83537401D01*
X120239052Y-82835750D01*
X135675000Y-82835750D01*
X135675000Y-83526309D01*
X135771673Y-83759698D01*
X135950301Y-83938327D01*
X136183690Y-84035000D01*
X136874250Y-84035000D01*
X137033000Y-83876250D01*
X137033000Y-82677000D01*
X135833750Y-82677000D01*
X135675000Y-82835750D01*
X120239052Y-82835750D01*
X121501111Y-81573691D01*
X135675000Y-81573691D01*
X135675000Y-82264250D01*
X135833750Y-82423000D01*
X137033000Y-82423000D01*
X137033000Y-81223750D01*
X137287000Y-81223750D01*
X137287000Y-82423000D01*
X137307000Y-82423000D01*
X137307000Y-82677000D01*
X137287000Y-82677000D01*
X137287000Y-83876250D01*
X137445750Y-84035000D01*
X138136310Y-84035000D01*
X138369699Y-83938327D01*
X138548327Y-83759698D01*
X138620597Y-83585223D01*
X138649946Y-83629147D01*
X139131715Y-83951054D01*
X139700000Y-84064093D01*
X139941295Y-84016097D01*
X140462599Y-84537401D01*
X140709161Y-84702148D01*
X141000000Y-84760000D01*
X145000000Y-84760000D01*
X145290839Y-84702148D01*
X145537401Y-84537401D01*
X146017228Y-84057574D01*
X146050000Y-84064093D01*
X146618285Y-83951054D01*
X147100054Y-83629147D01*
X147421961Y-83147378D01*
X147483947Y-82835750D01*
X150280000Y-82835750D01*
X150280000Y-83526309D01*
X150376673Y-83759698D01*
X150555301Y-83938327D01*
X150788690Y-84035000D01*
X151479250Y-84035000D01*
X151638000Y-83876250D01*
X151638000Y-82677000D01*
X150438750Y-82677000D01*
X150280000Y-82835750D01*
X147483947Y-82835750D01*
X147535000Y-82579093D01*
X147535000Y-82520907D01*
X147421961Y-81952622D01*
X147168768Y-81573691D01*
X150280000Y-81573691D01*
X150280000Y-82264250D01*
X150438750Y-82423000D01*
X151638000Y-82423000D01*
X151638000Y-81223750D01*
X151892000Y-81223750D01*
X151892000Y-82423000D01*
X151912000Y-82423000D01*
X151912000Y-82677000D01*
X151892000Y-82677000D01*
X151892000Y-83876250D01*
X152050750Y-84035000D01*
X152741310Y-84035000D01*
X152974699Y-83938327D01*
X153153327Y-83759698D01*
X153225597Y-83585223D01*
X153254946Y-83629147D01*
X153736715Y-83951054D01*
X154305000Y-84064093D01*
X154873285Y-83951054D01*
X155355054Y-83629147D01*
X155676961Y-83147378D01*
X155790000Y-82579093D01*
X155790000Y-82520907D01*
X155676961Y-81952622D01*
X155355054Y-81470853D01*
X154873285Y-81148946D01*
X154305000Y-81035907D01*
X153736715Y-81148946D01*
X153254946Y-81470853D01*
X153225597Y-81514777D01*
X153153327Y-81340302D01*
X152974699Y-81161673D01*
X152741310Y-81065000D01*
X152050750Y-81065000D01*
X151892000Y-81223750D01*
X151638000Y-81223750D01*
X151479250Y-81065000D01*
X150788690Y-81065000D01*
X150555301Y-81161673D01*
X150376673Y-81340302D01*
X150280000Y-81573691D01*
X147168768Y-81573691D01*
X147100054Y-81470853D01*
X146618285Y-81148946D01*
X146050000Y-81035907D01*
X145481715Y-81148946D01*
X144999946Y-81470853D01*
X144970597Y-81514777D01*
X144898327Y-81340302D01*
X144719699Y-81161673D01*
X144486310Y-81065000D01*
X143795750Y-81065000D01*
X143637000Y-81223750D01*
X143637000Y-82423000D01*
X143657000Y-82423000D01*
X143657000Y-82677000D01*
X143637000Y-82677000D01*
X143637000Y-82697000D01*
X143383000Y-82697000D01*
X143383000Y-82677000D01*
X142183750Y-82677000D01*
X142025000Y-82835750D01*
X142025000Y-83240000D01*
X141314802Y-83240000D01*
X141096884Y-83022082D01*
X141185000Y-82579093D01*
X141185000Y-82520907D01*
X141071961Y-81952622D01*
X140818768Y-81573691D01*
X142025000Y-81573691D01*
X142025000Y-82264250D01*
X142183750Y-82423000D01*
X143383000Y-82423000D01*
X143383000Y-81223750D01*
X143224250Y-81065000D01*
X142533690Y-81065000D01*
X142300301Y-81161673D01*
X142121673Y-81340302D01*
X142025000Y-81573691D01*
X140818768Y-81573691D01*
X140750054Y-81470853D01*
X140268285Y-81148946D01*
X139700000Y-81035907D01*
X139131715Y-81148946D01*
X138649946Y-81470853D01*
X138620597Y-81514777D01*
X138548327Y-81340302D01*
X138369699Y-81161673D01*
X138136310Y-81065000D01*
X137445750Y-81065000D01*
X137287000Y-81223750D01*
X137033000Y-81223750D01*
X136874250Y-81065000D01*
X136183690Y-81065000D01*
X135950301Y-81161673D01*
X135771673Y-81340302D01*
X135675000Y-81573691D01*
X121501111Y-81573691D01*
X125314802Y-77760000D01*
X127488936Y-77760000D01*
X127542189Y-77839698D01*
X128007736Y-78150767D01*
X128556887Y-78260000D01*
X128613113Y-78260000D01*
X129162264Y-78150767D01*
X129627811Y-77839698D01*
X129938880Y-77374151D01*
X130048113Y-76825000D01*
X129938880Y-76275849D01*
X129627811Y-75810302D01*
X129162264Y-75499233D01*
X128893910Y-75445854D01*
X158289457Y-75445854D01*
X158765727Y-76598515D01*
X159646847Y-77481174D01*
X160798674Y-77959454D01*
X162045854Y-77960543D01*
X163198515Y-77484273D01*
X164081174Y-76603153D01*
X164559454Y-75451326D01*
X164560543Y-74204146D01*
X164084273Y-73051485D01*
X163203153Y-72168826D01*
X162051326Y-71690546D01*
X160804146Y-71689457D01*
X159651485Y-72165727D01*
X158768826Y-73046847D01*
X158290546Y-74198674D01*
X158289457Y-75445854D01*
X128893910Y-75445854D01*
X128613113Y-75390000D01*
X128556887Y-75390000D01*
X128007736Y-75499233D01*
X127542189Y-75810302D01*
X127255074Y-76240000D01*
X125000000Y-76240000D01*
X124709160Y-76297852D01*
X124462599Y-76462599D01*
X118710000Y-82215198D01*
X118710000Y-82200750D01*
X118551250Y-82042000D01*
X117602000Y-82042000D01*
X117602000Y-82062000D01*
X117348000Y-82062000D01*
X117348000Y-82042000D01*
X116398750Y-82042000D01*
X116240000Y-82200750D01*
X116240000Y-82641309D01*
X116284565Y-82748898D01*
X116279880Y-82757048D01*
X116264031Y-82879191D01*
X116240000Y-83000000D01*
X116245056Y-83025418D01*
X116241721Y-83051120D01*
X116260292Y-83119915D01*
X116240215Y-83168266D01*
X116239786Y-83659579D01*
X116427408Y-84113657D01*
X116553530Y-84240000D01*
X116314802Y-84240000D01*
X114537401Y-82462599D01*
X114290839Y-82297852D01*
X114000000Y-82240000D01*
X107474124Y-82240000D01*
X107416961Y-81952622D01*
X107288255Y-81760000D01*
X112437537Y-81760000D01*
X112469673Y-81792192D01*
X112813201Y-81934838D01*
X113185167Y-81935162D01*
X113528943Y-81793117D01*
X113792192Y-81530327D01*
X113934052Y-81188691D01*
X116240000Y-81188691D01*
X116240000Y-81629250D01*
X116398750Y-81788000D01*
X117348000Y-81788000D01*
X117348000Y-80838750D01*
X117602000Y-80838750D01*
X117602000Y-81788000D01*
X118551250Y-81788000D01*
X118710000Y-81629250D01*
X118710000Y-81188691D01*
X118613327Y-80955302D01*
X118434699Y-80776673D01*
X118201310Y-80680000D01*
X117760750Y-80680000D01*
X117602000Y-80838750D01*
X117348000Y-80838750D01*
X117189250Y-80680000D01*
X116748690Y-80680000D01*
X116515301Y-80776673D01*
X116336673Y-80955302D01*
X116240000Y-81188691D01*
X113934052Y-81188691D01*
X113934838Y-81186799D01*
X113935162Y-80814833D01*
X113793117Y-80471057D01*
X113530327Y-80207808D01*
X113186799Y-80065162D01*
X112814833Y-80064838D01*
X112471057Y-80206883D01*
X112437882Y-80240000D01*
X104000000Y-80240000D01*
X103709161Y-80297852D01*
X103462599Y-80462599D01*
X103297852Y-80709161D01*
X103240000Y-81000000D01*
X103240000Y-81052560D01*
X102655000Y-81052560D01*
X102419683Y-81096838D01*
X102203559Y-81235910D01*
X102058569Y-81448110D01*
X102007560Y-81700000D01*
X102007560Y-83400000D01*
X102051838Y-83635317D01*
X102190910Y-83851441D01*
X102403110Y-83996431D01*
X102655000Y-84047440D01*
X104355000Y-84047440D01*
X104590317Y-84003162D01*
X104806441Y-83864090D01*
X104951431Y-83651890D01*
X104965086Y-83584459D01*
X104994946Y-83629147D01*
X105476715Y-83951054D01*
X106045000Y-84064093D01*
X106613285Y-83951054D01*
X106899218Y-83760000D01*
X113685198Y-83760000D01*
X115165198Y-85240000D01*
X108000000Y-85240000D01*
X107709161Y-85297852D01*
X107462599Y-85462599D01*
X106685198Y-86240000D01*
X102000000Y-86240000D01*
X101709161Y-86297852D01*
X101462599Y-86462599D01*
X101297852Y-86709161D01*
X101240000Y-87000000D01*
X101240000Y-96000000D01*
X101297852Y-96290839D01*
X101462599Y-96537401D01*
X102462599Y-97537401D01*
X102709161Y-97702148D01*
X102714336Y-97703177D01*
X102844275Y-97790000D01*
X102462189Y-98045302D01*
X102151120Y-98510849D01*
X102041887Y-99060000D01*
X102151120Y-99609151D01*
X102462189Y-100074698D01*
X102844275Y-100330000D01*
X102462189Y-100585302D01*
X102151120Y-101050849D01*
X102041887Y-101600000D01*
X102133035Y-102058233D01*
X100935122Y-100860320D01*
X100935162Y-100814833D01*
X100793117Y-100471057D01*
X100530327Y-100207808D01*
X100186799Y-100065162D01*
X99814833Y-100064838D01*
X99471057Y-100206883D01*
X99207808Y-100469673D01*
X99135000Y-100645013D01*
X99135000Y-75445854D01*
X99289457Y-75445854D01*
X99765727Y-76598515D01*
X100646847Y-77481174D01*
X101798674Y-77959454D01*
X103045854Y-77960543D01*
X104198515Y-77484273D01*
X104562672Y-77120750D01*
X108320000Y-77120750D01*
X108320000Y-77861309D01*
X108416673Y-78094698D01*
X108595301Y-78273327D01*
X108828690Y-78370000D01*
X109569250Y-78370000D01*
X109728000Y-78211250D01*
X109728000Y-76962000D01*
X109982000Y-76962000D01*
X109982000Y-78211250D01*
X110140750Y-78370000D01*
X110881310Y-78370000D01*
X111114699Y-78273327D01*
X111293327Y-78094698D01*
X111390000Y-77861309D01*
X111390000Y-77120750D01*
X111231250Y-76962000D01*
X109982000Y-76962000D01*
X109728000Y-76962000D01*
X108478750Y-76962000D01*
X108320000Y-77120750D01*
X104562672Y-77120750D01*
X105081174Y-76603153D01*
X105559454Y-75451326D01*
X105560198Y-74598991D01*
X108319735Y-74598991D01*
X108552932Y-75163371D01*
X108730092Y-75340841D01*
X108595301Y-75396673D01*
X108416673Y-75575302D01*
X108320000Y-75808691D01*
X108320000Y-76549250D01*
X108478750Y-76708000D01*
X109728000Y-76708000D01*
X109728000Y-76688000D01*
X109982000Y-76688000D01*
X109982000Y-76708000D01*
X111231250Y-76708000D01*
X111390000Y-76549250D01*
X111390000Y-75808691D01*
X111369832Y-75760000D01*
X111685198Y-75760000D01*
X113462599Y-77537401D01*
X113709161Y-77702148D01*
X114000000Y-77760000D01*
X117330742Y-77760000D01*
X117611077Y-78040824D01*
X118138309Y-78259750D01*
X118709187Y-78260248D01*
X119236800Y-78042243D01*
X119640824Y-77638923D01*
X119859750Y-77111691D01*
X119860248Y-76540813D01*
X119642243Y-76013200D01*
X119238923Y-75609176D01*
X118711691Y-75390250D01*
X118140813Y-75389752D01*
X117613200Y-75607757D01*
X117209176Y-76011077D01*
X117114119Y-76240000D01*
X114314802Y-76240000D01*
X112537401Y-74462599D01*
X112290839Y-74297852D01*
X112000000Y-74240000D01*
X111390048Y-74240000D01*
X111390265Y-73991009D01*
X111157068Y-73426629D01*
X110725643Y-72994449D01*
X110161670Y-72760267D01*
X109551009Y-72759735D01*
X108986629Y-72992932D01*
X108554449Y-73424357D01*
X108320267Y-73988330D01*
X108319735Y-74598991D01*
X105560198Y-74598991D01*
X105560543Y-74204146D01*
X105084273Y-73051485D01*
X104203153Y-72168826D01*
X103051326Y-71690546D01*
X101804146Y-71689457D01*
X100651485Y-72165727D01*
X99768826Y-73046847D01*
X99290546Y-74198674D01*
X99289457Y-75445854D01*
X99135000Y-75445854D01*
X99135000Y-71535000D01*
X164715000Y-71535000D01*
X164715000Y-123115000D01*
X164715000Y-123115000D01*
G37*
X164715000Y-123115000D02*
X99135000Y-123115000D01*
X99135000Y-120445854D01*
X99289457Y-120445854D01*
X99765727Y-121598515D01*
X100646847Y-122481174D01*
X101798674Y-122959454D01*
X103045854Y-122960543D01*
X104198515Y-122484273D01*
X105081174Y-121603153D01*
X105559454Y-120451326D01*
X105559458Y-120445854D01*
X158289457Y-120445854D01*
X158765727Y-121598515D01*
X159646847Y-122481174D01*
X160798674Y-122959454D01*
X162045854Y-122960543D01*
X163198515Y-122484273D01*
X164081174Y-121603153D01*
X164559454Y-120451326D01*
X164560543Y-119204146D01*
X164084273Y-118051485D01*
X163203153Y-117168826D01*
X162051326Y-116690546D01*
X160804146Y-116689457D01*
X159651485Y-117165727D01*
X158768826Y-118046847D01*
X158290546Y-119198674D01*
X158289457Y-120445854D01*
X105559458Y-120445854D01*
X105560543Y-119204146D01*
X105084273Y-118051485D01*
X104203153Y-117168826D01*
X103051326Y-116690546D01*
X101804146Y-116689457D01*
X100651485Y-117165727D01*
X99768826Y-118046847D01*
X99290546Y-119198674D01*
X99289457Y-120445854D01*
X99135000Y-120445854D01*
X99135000Y-101354972D01*
X99206883Y-101528943D01*
X99469673Y-101792192D01*
X99813201Y-101934838D01*
X99860077Y-101934879D01*
X101462599Y-103537401D01*
X101709161Y-103702148D01*
X102000000Y-103760000D01*
X102117474Y-103760000D01*
X102041887Y-104140000D01*
X102151120Y-104689151D01*
X102462189Y-105154698D01*
X102844275Y-105410000D01*
X102462189Y-105665302D01*
X102151120Y-106130849D01*
X102041887Y-106680000D01*
X102151120Y-107229151D01*
X102462189Y-107694698D01*
X102844275Y-107950000D01*
X102462189Y-108205302D01*
X102151120Y-108670849D01*
X102041887Y-109220000D01*
X102151120Y-109769151D01*
X102462189Y-110234698D01*
X102844275Y-110490000D01*
X102462189Y-110745302D01*
X102151120Y-111210849D01*
X102041887Y-111760000D01*
X102151120Y-112309151D01*
X102462189Y-112774698D01*
X102927736Y-113085767D01*
X103476887Y-113195000D01*
X103533113Y-113195000D01*
X104022794Y-113097596D01*
X108462599Y-117537401D01*
X108709161Y-117702148D01*
X109000000Y-117760000D01*
X118000000Y-117760000D01*
X118290839Y-117702148D01*
X118537401Y-117537401D01*
X124163909Y-111910893D01*
X124295000Y-111937440D01*
X125895000Y-111937440D01*
X126130317Y-111893162D01*
X126346441Y-111754090D01*
X126491431Y-111541890D01*
X126542440Y-111290000D01*
X126542440Y-109690000D01*
X126498162Y-109454683D01*
X126359090Y-109238559D01*
X126146890Y-109093569D01*
X125987384Y-109061268D01*
X126161385Y-108869187D01*
X130009752Y-108869187D01*
X130227757Y-109396800D01*
X130631077Y-109800824D01*
X131158309Y-110019750D01*
X131729187Y-110020248D01*
X132256800Y-109802243D01*
X132660824Y-109398923D01*
X132853860Y-108934039D01*
X140213096Y-108934039D01*
X140373959Y-109322423D01*
X140749866Y-109737389D01*
X141255959Y-109976914D01*
X141478000Y-109855629D01*
X141478000Y-108712000D01*
X141732000Y-108712000D01*
X141732000Y-109855629D01*
X141954041Y-109976914D01*
X142460134Y-109737389D01*
X142836041Y-109322423D01*
X142996904Y-108934039D01*
X142874915Y-108712000D01*
X141732000Y-108712000D01*
X141478000Y-108712000D01*
X140335085Y-108712000D01*
X140213096Y-108934039D01*
X132853860Y-108934039D01*
X132879750Y-108871691D01*
X132880248Y-108300813D01*
X132853452Y-108235961D01*
X140213096Y-108235961D01*
X140335085Y-108458000D01*
X141478000Y-108458000D01*
X141478000Y-107314371D01*
X141732000Y-107314371D01*
X141732000Y-108458000D01*
X142874915Y-108458000D01*
X142996904Y-108235961D01*
X142836041Y-107847577D01*
X142460134Y-107432611D01*
X141954041Y-107193086D01*
X141732000Y-107314371D01*
X141478000Y-107314371D01*
X141255959Y-107193086D01*
X140749866Y-107432611D01*
X140373959Y-107847577D01*
X140213096Y-108235961D01*
X132853452Y-108235961D01*
X132662243Y-107773200D01*
X132258923Y-107369176D01*
X131731691Y-107150250D01*
X131160813Y-107149752D01*
X130633200Y-107367757D01*
X130229176Y-107771077D01*
X130010250Y-108298309D01*
X130009752Y-108869187D01*
X126161385Y-108869187D01*
X126326041Y-108687423D01*
X126486904Y-108299039D01*
X126364915Y-108077000D01*
X125222000Y-108077000D01*
X125222000Y-108097000D01*
X124968000Y-108097000D01*
X124968000Y-108077000D01*
X123825085Y-108077000D01*
X123703096Y-108299039D01*
X123863959Y-108687423D01*
X124201590Y-109060136D01*
X124059683Y-109086838D01*
X123843559Y-109225910D01*
X123698569Y-109438110D01*
X123647560Y-109690000D01*
X123647560Y-110277638D01*
X117685198Y-116240000D01*
X110912747Y-116240000D01*
X110934838Y-116186799D01*
X110934879Y-116139923D01*
X111314802Y-115760000D01*
X117000000Y-115760000D01*
X117290839Y-115702148D01*
X117537401Y-115537401D01*
X117702148Y-115290839D01*
X117760000Y-115000000D01*
X117760000Y-114314802D01*
X119537401Y-112537401D01*
X119702148Y-112290839D01*
X119760000Y-112000000D01*
X119760000Y-109000000D01*
X119702148Y-108709161D01*
X119537401Y-108462599D01*
X118916588Y-107841786D01*
X118828880Y-107400849D01*
X118517811Y-106935302D01*
X118135725Y-106680000D01*
X118517811Y-106424698D01*
X118828880Y-105959151D01*
X118938113Y-105410000D01*
X118828880Y-104860849D01*
X118761495Y-104760000D01*
X123685198Y-104760000D01*
X123759115Y-104833917D01*
X123741120Y-104860849D01*
X123631887Y-105410000D01*
X123741120Y-105959151D01*
X124052189Y-106424698D01*
X124456703Y-106694986D01*
X124239866Y-106797611D01*
X123863959Y-107212577D01*
X123703096Y-107600961D01*
X123825085Y-107823000D01*
X124968000Y-107823000D01*
X124968000Y-107803000D01*
X125222000Y-107803000D01*
X125222000Y-107823000D01*
X126364915Y-107823000D01*
X126486904Y-107600961D01*
X126326041Y-107212577D01*
X125950134Y-106797611D01*
X125776900Y-106715622D01*
X126000000Y-106760000D01*
X146165198Y-106760000D01*
X145150429Y-107774769D01*
X145128833Y-107774750D01*
X144597543Y-107994275D01*
X144190703Y-108400405D01*
X143970252Y-108931311D01*
X143969750Y-109506167D01*
X144189275Y-110037457D01*
X144595405Y-110444297D01*
X145126311Y-110664748D01*
X145701167Y-110665250D01*
X146232457Y-110445725D01*
X146639297Y-110039595D01*
X146859748Y-109508689D01*
X146860250Y-108933833D01*
X146649945Y-108424857D01*
X147314802Y-107760000D01*
X149411430Y-107760000D01*
X149595405Y-107944297D01*
X150126311Y-108164748D01*
X150701167Y-108165250D01*
X151232457Y-107945725D01*
X151639297Y-107539595D01*
X151859748Y-107008689D01*
X151860250Y-106433833D01*
X151796136Y-106278666D01*
X152314802Y-105760000D01*
X153165544Y-105760000D01*
X153403106Y-106334943D01*
X153862637Y-106795278D01*
X154463352Y-107044716D01*
X155113795Y-107045284D01*
X155714943Y-106796894D01*
X156175278Y-106337363D01*
X156415019Y-105760000D01*
X159665544Y-105760000D01*
X159903106Y-106334943D01*
X160362637Y-106795278D01*
X160963352Y-107044716D01*
X161613795Y-107045284D01*
X162214943Y-106796894D01*
X162675278Y-106337363D01*
X162924716Y-105736648D01*
X162925284Y-105086205D01*
X162676894Y-104485057D01*
X162217363Y-104024722D01*
X161616648Y-103775284D01*
X160966205Y-103774716D01*
X160365057Y-104023106D01*
X160147784Y-104240000D01*
X155932265Y-104240000D01*
X155717363Y-104024722D01*
X155116648Y-103775284D01*
X154466205Y-103774716D01*
X153865057Y-104023106D01*
X153647784Y-104240000D01*
X152000000Y-104240000D01*
X151709161Y-104297852D01*
X151462599Y-104462599D01*
X150649993Y-105275205D01*
X150128833Y-105274750D01*
X149597543Y-105494275D01*
X149190703Y-105900405D01*
X149049691Y-106240000D01*
X147712261Y-106240000D01*
X147760000Y-106000000D01*
X147760000Y-104314802D01*
X150841007Y-101233795D01*
X153154716Y-101233795D01*
X153403106Y-101834943D01*
X153862637Y-102295278D01*
X154463352Y-102544716D01*
X155113795Y-102545284D01*
X155714943Y-102296894D01*
X156175278Y-101837363D01*
X156207402Y-101760000D01*
X159872140Y-101760000D01*
X159903106Y-101834943D01*
X160362637Y-102295278D01*
X160963352Y-102544716D01*
X161613795Y-102545284D01*
X162214943Y-102296894D01*
X162675278Y-101837363D01*
X162924716Y-101236648D01*
X162925284Y-100586205D01*
X162676894Y-99985057D01*
X162217363Y-99524722D01*
X161616648Y-99275284D01*
X160966205Y-99274716D01*
X160365057Y-99523106D01*
X159904722Y-99982637D01*
X159797856Y-100240000D01*
X156282235Y-100240000D01*
X156176894Y-99985057D01*
X155717363Y-99524722D01*
X155116648Y-99275284D01*
X154466205Y-99274716D01*
X153865057Y-99523106D01*
X153404722Y-99982637D01*
X153155284Y-100583352D01*
X153154716Y-101233795D01*
X150841007Y-101233795D01*
X154533319Y-97541484D01*
X154613352Y-97574716D01*
X155263795Y-97575284D01*
X155864943Y-97326894D01*
X156325278Y-96867363D01*
X156369859Y-96760000D01*
X160009744Y-96760000D01*
X160053106Y-96864943D01*
X160512637Y-97325278D01*
X161113352Y-97574716D01*
X161763795Y-97575284D01*
X162364943Y-97326894D01*
X162825278Y-96867363D01*
X163074716Y-96266648D01*
X163075284Y-95616205D01*
X162826894Y-95015057D01*
X162367363Y-94554722D01*
X161766648Y-94305284D01*
X161116205Y-94304716D01*
X160515057Y-94553106D01*
X160054722Y-95012637D01*
X159960313Y-95240000D01*
X156419839Y-95240000D01*
X156326894Y-95015057D01*
X155867363Y-94554722D01*
X155266648Y-94305284D01*
X154616205Y-94304716D01*
X154015057Y-94553106D01*
X153554722Y-95012637D01*
X153305284Y-95613352D01*
X153304716Y-96263795D01*
X153409005Y-96516192D01*
X146581742Y-103343456D01*
X146234595Y-102995703D01*
X145703689Y-102775252D01*
X145128833Y-102774750D01*
X144597543Y-102994275D01*
X144351388Y-103240000D01*
X144000000Y-103240000D01*
X143709161Y-103297852D01*
X143462599Y-103462599D01*
X142896857Y-104028341D01*
X142854915Y-103952000D01*
X141712000Y-103952000D01*
X141712000Y-103972000D01*
X141458000Y-103972000D01*
X141458000Y-103952000D01*
X140315085Y-103952000D01*
X140193096Y-104174039D01*
X140220416Y-104240000D01*
X132806471Y-104240000D01*
X132859750Y-104111691D01*
X132860248Y-103540813D01*
X132833452Y-103475961D01*
X140193096Y-103475961D01*
X140315085Y-103698000D01*
X141458000Y-103698000D01*
X141458000Y-102554371D01*
X141712000Y-102554371D01*
X141712000Y-103698000D01*
X142854915Y-103698000D01*
X142976904Y-103475961D01*
X142816041Y-103087577D01*
X142440134Y-102672611D01*
X141934041Y-102433086D01*
X141712000Y-102554371D01*
X141458000Y-102554371D01*
X141235959Y-102433086D01*
X140729866Y-102672611D01*
X140353959Y-103087577D01*
X140193096Y-103475961D01*
X132833452Y-103475961D01*
X132642243Y-103013200D01*
X132238923Y-102609176D01*
X131711691Y-102390250D01*
X131140813Y-102389752D01*
X130662280Y-102587478D01*
X128149790Y-100074988D01*
X144579617Y-100074988D01*
X144654980Y-100322144D01*
X145195834Y-100516916D01*
X145770055Y-100489886D01*
X146175020Y-100322144D01*
X146250383Y-100074988D01*
X145415000Y-99239605D01*
X144579617Y-100074988D01*
X128149790Y-100074988D01*
X127537401Y-99462599D01*
X127290839Y-99297852D01*
X127000000Y-99240000D01*
X126025114Y-99240000D01*
X125943051Y-99185167D01*
X129064838Y-99185167D01*
X129206883Y-99528943D01*
X129469673Y-99792192D01*
X129813201Y-99934838D01*
X130185167Y-99935162D01*
X130528943Y-99793117D01*
X130562118Y-99760000D01*
X143000000Y-99760000D01*
X143076753Y-99744733D01*
X143155005Y-99744025D01*
X143220765Y-99716087D01*
X143290839Y-99702148D01*
X143355907Y-99658671D01*
X143427932Y-99628071D01*
X143477993Y-99577096D01*
X143537401Y-99537401D01*
X143580878Y-99472333D01*
X143635710Y-99416500D01*
X143961756Y-98918850D01*
X143985114Y-99415055D01*
X144152856Y-99820020D01*
X144400012Y-99895383D01*
X145235395Y-99060000D01*
X145594605Y-99060000D01*
X146429988Y-99895383D01*
X146677144Y-99820020D01*
X146871916Y-99279166D01*
X146844886Y-98704945D01*
X146677144Y-98299980D01*
X146429988Y-98224617D01*
X145594605Y-99060000D01*
X145235395Y-99060000D01*
X145221253Y-99045858D01*
X145400858Y-98866253D01*
X145415000Y-98880395D01*
X146250383Y-98045012D01*
X146175020Y-97797856D01*
X145634166Y-97603084D01*
X145059945Y-97630114D01*
X144711554Y-97774422D01*
X144835658Y-97585000D01*
X149311909Y-97585000D01*
X149433352Y-97621961D01*
X149595405Y-97784297D01*
X150126311Y-98004748D01*
X150701167Y-98005250D01*
X151232457Y-97785725D01*
X151639297Y-97379595D01*
X151859748Y-96848689D01*
X151860250Y-96273833D01*
X151640725Y-95742543D01*
X151234595Y-95335703D01*
X150703689Y-95115252D01*
X150128833Y-95114750D01*
X149597543Y-95334275D01*
X149190703Y-95740405D01*
X149055920Y-96065000D01*
X144425000Y-96065000D01*
X144348247Y-96080267D01*
X144269995Y-96080975D01*
X144204235Y-96108913D01*
X144134161Y-96122852D01*
X144069093Y-96166329D01*
X143997068Y-96196929D01*
X143947006Y-96247905D01*
X143887599Y-96287599D01*
X143844124Y-96352665D01*
X143789289Y-96408500D01*
X142589342Y-98240000D01*
X130562463Y-98240000D01*
X130530327Y-98207808D01*
X130186799Y-98065162D01*
X129814833Y-98064838D01*
X129471057Y-98206883D01*
X129207808Y-98469673D01*
X129065162Y-98813201D01*
X129064838Y-99185167D01*
X125943051Y-99185167D01*
X125755725Y-99060000D01*
X126137811Y-98804698D01*
X126448880Y-98339151D01*
X126558113Y-97790000D01*
X126448880Y-97240849D01*
X126137811Y-96775302D01*
X125755725Y-96520000D01*
X126137811Y-96264698D01*
X126448880Y-95799151D01*
X126456668Y-95760000D01*
X130103056Y-95760000D01*
X130227757Y-96061800D01*
X130631077Y-96465824D01*
X131158309Y-96684750D01*
X131729187Y-96685248D01*
X132256800Y-96467243D01*
X132660824Y-96063923D01*
X132853860Y-95599039D01*
X140213096Y-95599039D01*
X140373959Y-95987423D01*
X140749866Y-96402389D01*
X141255959Y-96641914D01*
X141478000Y-96520629D01*
X141478000Y-95377000D01*
X141732000Y-95377000D01*
X141732000Y-96520629D01*
X141954041Y-96641914D01*
X142460134Y-96402389D01*
X142836041Y-95987423D01*
X142996904Y-95599039D01*
X142874915Y-95377000D01*
X141732000Y-95377000D01*
X141478000Y-95377000D01*
X140335085Y-95377000D01*
X140213096Y-95599039D01*
X132853860Y-95599039D01*
X132879750Y-95536691D01*
X132880248Y-94965813D01*
X132795208Y-94760000D01*
X140271480Y-94760000D01*
X140213096Y-94900961D01*
X140335085Y-95123000D01*
X141478000Y-95123000D01*
X141478000Y-95103000D01*
X141732000Y-95103000D01*
X141732000Y-95123000D01*
X142874915Y-95123000D01*
X142996904Y-94900961D01*
X142938520Y-94760000D01*
X144140743Y-94760000D01*
X144189275Y-94877457D01*
X144595405Y-95284297D01*
X145126311Y-95504748D01*
X145701167Y-95505250D01*
X146232457Y-95285725D01*
X146639297Y-94879595D01*
X146859748Y-94348689D01*
X146860250Y-93773833D01*
X146640725Y-93242543D01*
X146234595Y-92835703D01*
X145703689Y-92615252D01*
X145128833Y-92614750D01*
X144597543Y-92834275D01*
X144191109Y-93240000D01*
X132000000Y-93240000D01*
X131709161Y-93297852D01*
X131462599Y-93462599D01*
X131074981Y-93850217D01*
X130633200Y-94032757D01*
X130425595Y-94240000D01*
X126140950Y-94240000D01*
X126137811Y-94235302D01*
X125733297Y-93965014D01*
X125950134Y-93862389D01*
X126326041Y-93447423D01*
X126486904Y-93059039D01*
X126364915Y-92837000D01*
X125222000Y-92837000D01*
X125222000Y-92857000D01*
X124968000Y-92857000D01*
X124968000Y-92837000D01*
X123825085Y-92837000D01*
X123703096Y-93059039D01*
X123863959Y-93447423D01*
X124239866Y-93862389D01*
X124456703Y-93965014D01*
X124052189Y-94235302D01*
X123741120Y-94700849D01*
X123631887Y-95250000D01*
X123741120Y-95799151D01*
X124052189Y-96264698D01*
X124434275Y-96520000D01*
X124052189Y-96775302D01*
X123741120Y-97240849D01*
X123631887Y-97790000D01*
X123741120Y-98339151D01*
X124052189Y-98804698D01*
X124434275Y-99060000D01*
X124052189Y-99315302D01*
X123741120Y-99780849D01*
X123631887Y-100330000D01*
X123741120Y-100879151D01*
X124052189Y-101344698D01*
X124434275Y-101600000D01*
X124052189Y-101855302D01*
X123741120Y-102320849D01*
X123631887Y-102870000D01*
X123705485Y-103240000D01*
X118864515Y-103240000D01*
X118938113Y-102870000D01*
X118828880Y-102320849D01*
X118517811Y-101855302D01*
X118135725Y-101600000D01*
X118517811Y-101344698D01*
X118828880Y-100879151D01*
X118938113Y-100330000D01*
X118828880Y-99780849D01*
X118517811Y-99315302D01*
X118135725Y-99060000D01*
X118517811Y-98804698D01*
X118828880Y-98339151D01*
X118938113Y-97790000D01*
X118828880Y-97240849D01*
X118517811Y-96775302D01*
X118135725Y-96520000D01*
X118517811Y-96264698D01*
X118828880Y-95799151D01*
X118938113Y-95250000D01*
X118840646Y-94760000D01*
X119000000Y-94760000D01*
X119290839Y-94702148D01*
X119537401Y-94537401D01*
X119702148Y-94290839D01*
X119760000Y-94000000D01*
X119760000Y-90170000D01*
X123631887Y-90170000D01*
X123741120Y-90719151D01*
X124052189Y-91184698D01*
X124456703Y-91454986D01*
X124239866Y-91557611D01*
X123863959Y-91972577D01*
X123703096Y-92360961D01*
X123825085Y-92583000D01*
X124968000Y-92583000D01*
X124968000Y-92563000D01*
X125222000Y-92563000D01*
X125222000Y-92583000D01*
X126364915Y-92583000D01*
X126486904Y-92360961D01*
X126326041Y-91972577D01*
X126136911Y-91763795D01*
X153304716Y-91763795D01*
X153553106Y-92364943D01*
X154012637Y-92825278D01*
X154613352Y-93074716D01*
X155263795Y-93075284D01*
X155864943Y-92826894D01*
X156325278Y-92367363D01*
X156574716Y-91766648D01*
X156574722Y-91760000D01*
X159804719Y-91760000D01*
X159804716Y-91763795D01*
X160053106Y-92364943D01*
X160512637Y-92825278D01*
X161113352Y-93074716D01*
X161763795Y-93075284D01*
X162364943Y-92826894D01*
X162825278Y-92367363D01*
X163074716Y-91766648D01*
X163075284Y-91116205D01*
X162826894Y-90515057D01*
X162367363Y-90054722D01*
X161766648Y-89805284D01*
X161116205Y-89804716D01*
X160515057Y-90053106D01*
X160327836Y-90240000D01*
X156052317Y-90240000D01*
X155867363Y-90054722D01*
X155266648Y-89805284D01*
X154616205Y-89804716D01*
X154015057Y-90053106D01*
X153554722Y-90512637D01*
X153305284Y-91113352D01*
X153304716Y-91763795D01*
X126136911Y-91763795D01*
X125950134Y-91557611D01*
X125733297Y-91454986D01*
X126137811Y-91184698D01*
X126448880Y-90719151D01*
X126558113Y-90170000D01*
X126448880Y-89620849D01*
X126137811Y-89155302D01*
X125672264Y-88844233D01*
X125123113Y-88735000D01*
X125066887Y-88735000D01*
X124517736Y-88844233D01*
X124052189Y-89155302D01*
X123741120Y-89620849D01*
X123631887Y-90170000D01*
X119760000Y-90170000D01*
X119760000Y-87344039D01*
X135133096Y-87344039D01*
X135293959Y-87732423D01*
X135669866Y-88147389D01*
X136175959Y-88386914D01*
X136398000Y-88265629D01*
X136398000Y-87122000D01*
X136652000Y-87122000D01*
X136652000Y-88265629D01*
X136874041Y-88386914D01*
X137380134Y-88147389D01*
X137756041Y-87732423D01*
X137916904Y-87344039D01*
X137881275Y-87279187D01*
X145249752Y-87279187D01*
X145467757Y-87806800D01*
X145871077Y-88210824D01*
X146398309Y-88429750D01*
X146969187Y-88430248D01*
X147496800Y-88212243D01*
X147900824Y-87808923D01*
X148119750Y-87281691D01*
X148120248Y-86710813D01*
X147902243Y-86183200D01*
X147498923Y-85779176D01*
X146971691Y-85560250D01*
X146400813Y-85559752D01*
X145873200Y-85777757D01*
X145469176Y-86181077D01*
X145250250Y-86708309D01*
X145249752Y-87279187D01*
X137881275Y-87279187D01*
X137794915Y-87122000D01*
X136652000Y-87122000D01*
X136398000Y-87122000D01*
X135255085Y-87122000D01*
X135133096Y-87344039D01*
X119760000Y-87344039D01*
X119760000Y-87000000D01*
X119702148Y-86709161D01*
X119659920Y-86645961D01*
X135133096Y-86645961D01*
X135255085Y-86868000D01*
X136398000Y-86868000D01*
X136398000Y-85724371D01*
X136652000Y-85724371D01*
X136652000Y-86868000D01*
X137794915Y-86868000D01*
X137916904Y-86645961D01*
X137756041Y-86257577D01*
X137380134Y-85842611D01*
X136874041Y-85603086D01*
X136652000Y-85724371D01*
X136398000Y-85724371D01*
X136175959Y-85603086D01*
X135669866Y-85842611D01*
X135293959Y-86257577D01*
X135133096Y-86645961D01*
X119659920Y-86645961D01*
X119537401Y-86462599D01*
X117723426Y-84648624D01*
X118173657Y-84462592D01*
X118521371Y-84115485D01*
X118668981Y-83760000D01*
X119000000Y-83760000D01*
X119290839Y-83702148D01*
X119537401Y-83537401D01*
X120239052Y-82835750D01*
X135675000Y-82835750D01*
X135675000Y-83526309D01*
X135771673Y-83759698D01*
X135950301Y-83938327D01*
X136183690Y-84035000D01*
X136874250Y-84035000D01*
X137033000Y-83876250D01*
X137033000Y-82677000D01*
X135833750Y-82677000D01*
X135675000Y-82835750D01*
X120239052Y-82835750D01*
X121501111Y-81573691D01*
X135675000Y-81573691D01*
X135675000Y-82264250D01*
X135833750Y-82423000D01*
X137033000Y-82423000D01*
X137033000Y-81223750D01*
X137287000Y-81223750D01*
X137287000Y-82423000D01*
X137307000Y-82423000D01*
X137307000Y-82677000D01*
X137287000Y-82677000D01*
X137287000Y-83876250D01*
X137445750Y-84035000D01*
X138136310Y-84035000D01*
X138369699Y-83938327D01*
X138548327Y-83759698D01*
X138620597Y-83585223D01*
X138649946Y-83629147D01*
X139131715Y-83951054D01*
X139700000Y-84064093D01*
X139941295Y-84016097D01*
X140462599Y-84537401D01*
X140709161Y-84702148D01*
X141000000Y-84760000D01*
X145000000Y-84760000D01*
X145290839Y-84702148D01*
X145537401Y-84537401D01*
X146017228Y-84057574D01*
X146050000Y-84064093D01*
X146618285Y-83951054D01*
X147100054Y-83629147D01*
X147421961Y-83147378D01*
X147483947Y-82835750D01*
X150280000Y-82835750D01*
X150280000Y-83526309D01*
X150376673Y-83759698D01*
X150555301Y-83938327D01*
X150788690Y-84035000D01*
X151479250Y-84035000D01*
X151638000Y-83876250D01*
X151638000Y-82677000D01*
X150438750Y-82677000D01*
X150280000Y-82835750D01*
X147483947Y-82835750D01*
X147535000Y-82579093D01*
X147535000Y-82520907D01*
X147421961Y-81952622D01*
X147168768Y-81573691D01*
X150280000Y-81573691D01*
X150280000Y-82264250D01*
X150438750Y-82423000D01*
X151638000Y-82423000D01*
X151638000Y-81223750D01*
X151892000Y-81223750D01*
X151892000Y-82423000D01*
X151912000Y-82423000D01*
X151912000Y-82677000D01*
X151892000Y-82677000D01*
X151892000Y-83876250D01*
X152050750Y-84035000D01*
X152741310Y-84035000D01*
X152974699Y-83938327D01*
X153153327Y-83759698D01*
X153225597Y-83585223D01*
X153254946Y-83629147D01*
X153736715Y-83951054D01*
X154305000Y-84064093D01*
X154873285Y-83951054D01*
X155355054Y-83629147D01*
X155676961Y-83147378D01*
X155790000Y-82579093D01*
X155790000Y-82520907D01*
X155676961Y-81952622D01*
X155355054Y-81470853D01*
X154873285Y-81148946D01*
X154305000Y-81035907D01*
X153736715Y-81148946D01*
X153254946Y-81470853D01*
X153225597Y-81514777D01*
X153153327Y-81340302D01*
X152974699Y-81161673D01*
X152741310Y-81065000D01*
X152050750Y-81065000D01*
X151892000Y-81223750D01*
X151638000Y-81223750D01*
X151479250Y-81065000D01*
X150788690Y-81065000D01*
X150555301Y-81161673D01*
X150376673Y-81340302D01*
X150280000Y-81573691D01*
X147168768Y-81573691D01*
X147100054Y-81470853D01*
X146618285Y-81148946D01*
X146050000Y-81035907D01*
X145481715Y-81148946D01*
X144999946Y-81470853D01*
X144970597Y-81514777D01*
X144898327Y-81340302D01*
X144719699Y-81161673D01*
X144486310Y-81065000D01*
X143795750Y-81065000D01*
X143637000Y-81223750D01*
X143637000Y-82423000D01*
X143657000Y-82423000D01*
X143657000Y-82677000D01*
X143637000Y-82677000D01*
X143637000Y-82697000D01*
X143383000Y-82697000D01*
X143383000Y-82677000D01*
X142183750Y-82677000D01*
X142025000Y-82835750D01*
X142025000Y-83240000D01*
X141314802Y-83240000D01*
X141096884Y-83022082D01*
X141185000Y-82579093D01*
X141185000Y-82520907D01*
X141071961Y-81952622D01*
X140818768Y-81573691D01*
X142025000Y-81573691D01*
X142025000Y-82264250D01*
X142183750Y-82423000D01*
X143383000Y-82423000D01*
X143383000Y-81223750D01*
X143224250Y-81065000D01*
X142533690Y-81065000D01*
X142300301Y-81161673D01*
X142121673Y-81340302D01*
X142025000Y-81573691D01*
X140818768Y-81573691D01*
X140750054Y-81470853D01*
X140268285Y-81148946D01*
X139700000Y-81035907D01*
X139131715Y-81148946D01*
X138649946Y-81470853D01*
X138620597Y-81514777D01*
X138548327Y-81340302D01*
X138369699Y-81161673D01*
X138136310Y-81065000D01*
X137445750Y-81065000D01*
X137287000Y-81223750D01*
X137033000Y-81223750D01*
X136874250Y-81065000D01*
X136183690Y-81065000D01*
X135950301Y-81161673D01*
X135771673Y-81340302D01*
X135675000Y-81573691D01*
X121501111Y-81573691D01*
X125314802Y-77760000D01*
X127488936Y-77760000D01*
X127542189Y-77839698D01*
X128007736Y-78150767D01*
X128556887Y-78260000D01*
X128613113Y-78260000D01*
X129162264Y-78150767D01*
X129627811Y-77839698D01*
X129938880Y-77374151D01*
X130048113Y-76825000D01*
X129938880Y-76275849D01*
X129627811Y-75810302D01*
X129162264Y-75499233D01*
X128893910Y-75445854D01*
X158289457Y-75445854D01*
X158765727Y-76598515D01*
X159646847Y-77481174D01*
X160798674Y-77959454D01*
X162045854Y-77960543D01*
X163198515Y-77484273D01*
X164081174Y-76603153D01*
X164559454Y-75451326D01*
X164560543Y-74204146D01*
X164084273Y-73051485D01*
X163203153Y-72168826D01*
X162051326Y-71690546D01*
X160804146Y-71689457D01*
X159651485Y-72165727D01*
X158768826Y-73046847D01*
X158290546Y-74198674D01*
X158289457Y-75445854D01*
X128893910Y-75445854D01*
X128613113Y-75390000D01*
X128556887Y-75390000D01*
X128007736Y-75499233D01*
X127542189Y-75810302D01*
X127255074Y-76240000D01*
X125000000Y-76240000D01*
X124709160Y-76297852D01*
X124462599Y-76462599D01*
X118710000Y-82215198D01*
X118710000Y-82200750D01*
X118551250Y-82042000D01*
X117602000Y-82042000D01*
X117602000Y-82062000D01*
X117348000Y-82062000D01*
X117348000Y-82042000D01*
X116398750Y-82042000D01*
X116240000Y-82200750D01*
X116240000Y-82641309D01*
X116284565Y-82748898D01*
X116279880Y-82757048D01*
X116264031Y-82879191D01*
X116240000Y-83000000D01*
X116245056Y-83025418D01*
X116241721Y-83051120D01*
X116260292Y-83119915D01*
X116240215Y-83168266D01*
X116239786Y-83659579D01*
X116427408Y-84113657D01*
X116553530Y-84240000D01*
X116314802Y-84240000D01*
X114537401Y-82462599D01*
X114290839Y-82297852D01*
X114000000Y-82240000D01*
X107474124Y-82240000D01*
X107416961Y-81952622D01*
X107288255Y-81760000D01*
X112437537Y-81760000D01*
X112469673Y-81792192D01*
X112813201Y-81934838D01*
X113185167Y-81935162D01*
X113528943Y-81793117D01*
X113792192Y-81530327D01*
X113934052Y-81188691D01*
X116240000Y-81188691D01*
X116240000Y-81629250D01*
X116398750Y-81788000D01*
X117348000Y-81788000D01*
X117348000Y-80838750D01*
X117602000Y-80838750D01*
X117602000Y-81788000D01*
X118551250Y-81788000D01*
X118710000Y-81629250D01*
X118710000Y-81188691D01*
X118613327Y-80955302D01*
X118434699Y-80776673D01*
X118201310Y-80680000D01*
X117760750Y-80680000D01*
X117602000Y-80838750D01*
X117348000Y-80838750D01*
X117189250Y-80680000D01*
X116748690Y-80680000D01*
X116515301Y-80776673D01*
X116336673Y-80955302D01*
X116240000Y-81188691D01*
X113934052Y-81188691D01*
X113934838Y-81186799D01*
X113935162Y-80814833D01*
X113793117Y-80471057D01*
X113530327Y-80207808D01*
X113186799Y-80065162D01*
X112814833Y-80064838D01*
X112471057Y-80206883D01*
X112437882Y-80240000D01*
X104000000Y-80240000D01*
X103709161Y-80297852D01*
X103462599Y-80462599D01*
X103297852Y-80709161D01*
X103240000Y-81000000D01*
X103240000Y-81052560D01*
X102655000Y-81052560D01*
X102419683Y-81096838D01*
X102203559Y-81235910D01*
X102058569Y-81448110D01*
X102007560Y-81700000D01*
X102007560Y-83400000D01*
X102051838Y-83635317D01*
X102190910Y-83851441D01*
X102403110Y-83996431D01*
X102655000Y-84047440D01*
X104355000Y-84047440D01*
X104590317Y-84003162D01*
X104806441Y-83864090D01*
X104951431Y-83651890D01*
X104965086Y-83584459D01*
X104994946Y-83629147D01*
X105476715Y-83951054D01*
X106045000Y-84064093D01*
X106613285Y-83951054D01*
X106899218Y-83760000D01*
X113685198Y-83760000D01*
X115165198Y-85240000D01*
X108000000Y-85240000D01*
X107709161Y-85297852D01*
X107462599Y-85462599D01*
X106685198Y-86240000D01*
X102000000Y-86240000D01*
X101709161Y-86297852D01*
X101462599Y-86462599D01*
X101297852Y-86709161D01*
X101240000Y-87000000D01*
X101240000Y-96000000D01*
X101297852Y-96290839D01*
X101462599Y-96537401D01*
X102462599Y-97537401D01*
X102709161Y-97702148D01*
X102714336Y-97703177D01*
X102844275Y-97790000D01*
X102462189Y-98045302D01*
X102151120Y-98510849D01*
X102041887Y-99060000D01*
X102151120Y-99609151D01*
X102462189Y-100074698D01*
X102844275Y-100330000D01*
X102462189Y-100585302D01*
X102151120Y-101050849D01*
X102041887Y-101600000D01*
X102133035Y-102058233D01*
X100935122Y-100860320D01*
X100935162Y-100814833D01*
X100793117Y-100471057D01*
X100530327Y-100207808D01*
X100186799Y-100065162D01*
X99814833Y-100064838D01*
X99471057Y-100206883D01*
X99207808Y-100469673D01*
X99135000Y-100645013D01*
X99135000Y-75445854D01*
X99289457Y-75445854D01*
X99765727Y-76598515D01*
X100646847Y-77481174D01*
X101798674Y-77959454D01*
X103045854Y-77960543D01*
X104198515Y-77484273D01*
X104562672Y-77120750D01*
X108320000Y-77120750D01*
X108320000Y-77861309D01*
X108416673Y-78094698D01*
X108595301Y-78273327D01*
X108828690Y-78370000D01*
X109569250Y-78370000D01*
X109728000Y-78211250D01*
X109728000Y-76962000D01*
X109982000Y-76962000D01*
X109982000Y-78211250D01*
X110140750Y-78370000D01*
X110881310Y-78370000D01*
X111114699Y-78273327D01*
X111293327Y-78094698D01*
X111390000Y-77861309D01*
X111390000Y-77120750D01*
X111231250Y-76962000D01*
X109982000Y-76962000D01*
X109728000Y-76962000D01*
X108478750Y-76962000D01*
X108320000Y-77120750D01*
X104562672Y-77120750D01*
X105081174Y-76603153D01*
X105559454Y-75451326D01*
X105560198Y-74598991D01*
X108319735Y-74598991D01*
X108552932Y-75163371D01*
X108730092Y-75340841D01*
X108595301Y-75396673D01*
X108416673Y-75575302D01*
X108320000Y-75808691D01*
X108320000Y-76549250D01*
X108478750Y-76708000D01*
X109728000Y-76708000D01*
X109728000Y-76688000D01*
X109982000Y-76688000D01*
X109982000Y-76708000D01*
X111231250Y-76708000D01*
X111390000Y-76549250D01*
X111390000Y-75808691D01*
X111369832Y-75760000D01*
X111685198Y-75760000D01*
X113462599Y-77537401D01*
X113709161Y-77702148D01*
X114000000Y-77760000D01*
X117330742Y-77760000D01*
X117611077Y-78040824D01*
X118138309Y-78259750D01*
X118709187Y-78260248D01*
X119236800Y-78042243D01*
X119640824Y-77638923D01*
X119859750Y-77111691D01*
X119860248Y-76540813D01*
X119642243Y-76013200D01*
X119238923Y-75609176D01*
X118711691Y-75390250D01*
X118140813Y-75389752D01*
X117613200Y-75607757D01*
X117209176Y-76011077D01*
X117114119Y-76240000D01*
X114314802Y-76240000D01*
X112537401Y-74462599D01*
X112290839Y-74297852D01*
X112000000Y-74240000D01*
X111390048Y-74240000D01*
X111390265Y-73991009D01*
X111157068Y-73426629D01*
X110725643Y-72994449D01*
X110161670Y-72760267D01*
X109551009Y-72759735D01*
X108986629Y-72992932D01*
X108554449Y-73424357D01*
X108320267Y-73988330D01*
X108319735Y-74598991D01*
X105560198Y-74598991D01*
X105560543Y-74204146D01*
X105084273Y-73051485D01*
X104203153Y-72168826D01*
X103051326Y-71690546D01*
X101804146Y-71689457D01*
X100651485Y-72165727D01*
X99768826Y-73046847D01*
X99290546Y-74198674D01*
X99289457Y-75445854D01*
X99135000Y-75445854D01*
X99135000Y-71535000D01*
X164715000Y-71535000D01*
X164715000Y-123115000D01*
M02*
