G04 #@! TF.FileFunction,Copper,L1,Top,Signal*
%FSLAX46Y46*%
G04 Gerber Fmt 4.6, Leading zero omitted, Abs format (unit mm)*
G04 Created by KiCad (PCBNEW 4.0.6+dfsg1-1) date Sun Nov 12 00:41:49 2017*
%MOMM*%
%LPD*%
G01*
G04 APERTURE LIST*
%ADD10C,0.100000*%
%ADD11C,5.000000*%
%ADD12R,1.200000X1.200000*%
%ADD13C,1.200000*%
%ADD14C,1.600000*%
%ADD15O,1.600000X1.600000*%
%ADD16C,1.620000*%
%ADD17R,1.600000X1.600000*%
%ADD18C,2.000000*%
%ADD19R,1.800000X1.800000*%
%ADD20C,1.800000*%
%ADD21R,1.700000X1.700000*%
%ADD22O,1.700000X1.700000*%
%ADD23C,0.600000*%
%ADD24C,0.250000*%
%ADD25C,0.254000*%
G04 APERTURE END LIST*
D10*
D11*
X102235000Y-120015000D03*
X160655000Y-120015000D03*
X160655000Y-74930000D03*
D12*
X117475000Y-81915000D03*
D13*
X117475000Y-83415000D03*
D14*
X146685000Y-86995000D03*
D15*
X136525000Y-86995000D03*
D14*
X131445000Y-103505000D03*
D15*
X141605000Y-103505000D03*
D14*
X117475000Y-76200000D03*
D15*
X127635000Y-76200000D03*
D16*
X145415000Y-104220000D03*
X150415000Y-106720000D03*
X145415000Y-109220000D03*
X145415000Y-94060000D03*
X150415000Y-96560000D03*
X145415000Y-99060000D03*
D17*
X125095000Y-110490000D03*
D15*
X117475000Y-90170000D03*
X125095000Y-107950000D03*
X117475000Y-92710000D03*
X125095000Y-105410000D03*
X117475000Y-95250000D03*
X125095000Y-102870000D03*
X117475000Y-97790000D03*
X125095000Y-100330000D03*
X117475000Y-100330000D03*
X125095000Y-97790000D03*
X117475000Y-102870000D03*
X125095000Y-95250000D03*
X117475000Y-105410000D03*
X125095000Y-92710000D03*
X117475000Y-107950000D03*
X125095000Y-90170000D03*
X117475000Y-110490000D03*
D14*
X131445000Y-95250000D03*
D15*
X141605000Y-95250000D03*
D18*
X161290000Y-100910000D03*
X161290000Y-105410000D03*
X154790000Y-100910000D03*
X154790000Y-105410000D03*
X154940000Y-95940000D03*
X154940000Y-91440000D03*
X161440000Y-95940000D03*
X161440000Y-91440000D03*
D17*
X111125000Y-111760000D03*
D15*
X103505000Y-88900000D03*
X111125000Y-109220000D03*
X103505000Y-91440000D03*
X111125000Y-106680000D03*
X103505000Y-93980000D03*
X111125000Y-104140000D03*
X103505000Y-96520000D03*
X111125000Y-101600000D03*
X103505000Y-99060000D03*
X111125000Y-99060000D03*
X103505000Y-101600000D03*
X111125000Y-96520000D03*
X103505000Y-104140000D03*
X111125000Y-93980000D03*
X103505000Y-106680000D03*
X111125000Y-91440000D03*
X103505000Y-109220000D03*
X111125000Y-88900000D03*
X103505000Y-111760000D03*
D19*
X109855000Y-76835000D03*
D20*
X109855000Y-74295000D03*
D14*
X131445000Y-108585000D03*
D15*
X141605000Y-108585000D03*
D21*
X137160000Y-82550000D03*
D22*
X139700000Y-82550000D03*
D21*
X151765000Y-82550000D03*
D22*
X154305000Y-82550000D03*
D21*
X143510000Y-82550000D03*
D22*
X146050000Y-82550000D03*
D21*
X103505000Y-82550000D03*
D22*
X106045000Y-82550000D03*
D11*
X102235000Y-74930000D03*
D23*
X131445000Y-98425000D03*
X134620000Y-95250000D03*
X121285000Y-80010000D03*
X128270000Y-97155000D03*
X138430000Y-108585000D03*
X122555000Y-97790000D03*
D24*
X141605000Y-95250000D02*
X136525000Y-90170000D01*
X136525000Y-90170000D02*
X136525000Y-86995000D01*
X125095000Y-92710000D02*
X126365000Y-93980000D01*
X126365000Y-93980000D02*
X126365000Y-106680000D01*
X126365000Y-106680000D02*
X125095000Y-107950000D01*
X141605000Y-108585000D02*
X142875000Y-107315000D01*
X142875000Y-107315000D02*
X142875000Y-102235000D01*
X142875000Y-102235000D02*
X141605000Y-100965000D01*
X141605000Y-100965000D02*
X141605000Y-95250000D01*
X136525000Y-86995000D02*
X137160000Y-86360000D01*
X137160000Y-86360000D02*
X137160000Y-82550000D01*
X131445000Y-98425000D02*
X134620000Y-95250000D01*
X154790000Y-100910000D02*
X154940000Y-100965000D01*
X154940000Y-100965000D02*
X151765000Y-97790000D01*
X151765000Y-97790000D02*
X151765000Y-95250000D01*
X151765000Y-95250000D02*
X146685000Y-90170000D01*
X146685000Y-90170000D02*
X146685000Y-86995000D01*
X146685000Y-86995000D02*
X146050000Y-86360000D01*
X146050000Y-86360000D02*
X146050000Y-82550000D01*
X125095000Y-95250000D02*
X125095000Y-97790000D01*
X111125000Y-101600000D02*
X111125000Y-99060000D01*
X111125000Y-96520000D02*
X111125000Y-93980000D01*
X111125000Y-93980000D02*
X111125000Y-91440000D01*
X111125000Y-99060000D02*
X111125000Y-96520000D01*
X111125000Y-106680000D02*
X111125000Y-109220000D01*
X111125000Y-91440000D02*
X111125000Y-88900000D01*
X111125000Y-104140000D02*
X111125000Y-101600000D01*
X111125000Y-104140000D02*
X111125000Y-106680000D01*
X111125000Y-109220000D02*
X111125000Y-111760000D01*
X121285000Y-80010000D02*
X127635000Y-86360000D01*
X127635000Y-86360000D02*
X127635000Y-94615000D01*
X127635000Y-94615000D02*
X127000000Y-95250000D01*
X127000000Y-95250000D02*
X127000000Y-97790000D01*
X127000000Y-97790000D02*
X131445000Y-102235000D01*
X131445000Y-102235000D02*
X131445000Y-103505000D01*
X154305000Y-82550000D02*
X154940000Y-83185000D01*
X154940000Y-83185000D02*
X154940000Y-91440000D01*
X117475000Y-83415000D02*
X117475000Y-83185000D01*
X117475000Y-83185000D02*
X123825000Y-89535000D01*
X123825000Y-89535000D02*
X123825000Y-104140000D01*
X123825000Y-104140000D02*
X125095000Y-105410000D01*
X128270000Y-97155000D02*
X138430000Y-107315000D01*
X138430000Y-107315000D02*
X138430000Y-108585000D01*
X122555000Y-97790000D02*
X118745000Y-93980000D01*
X118745000Y-93980000D02*
X118745000Y-88900000D01*
X118745000Y-88900000D02*
X116205000Y-86360000D01*
X116205000Y-86360000D02*
X116205000Y-80645000D01*
X116205000Y-80645000D02*
X117475000Y-79375000D01*
X117475000Y-79375000D02*
X117475000Y-76200000D01*
D25*
G36*
X158881485Y-72270727D02*
X157998826Y-73151847D01*
X157520546Y-74303674D01*
X157519457Y-75550854D01*
X157995727Y-76703515D01*
X158876847Y-77586174D01*
X160028674Y-78064454D01*
X161275854Y-78065543D01*
X162428515Y-77589273D01*
X163311174Y-76708153D01*
X163755000Y-75639301D01*
X163755000Y-119308125D01*
X163314273Y-118241485D01*
X162433153Y-117358826D01*
X161281326Y-116880546D01*
X160034146Y-116879457D01*
X158881485Y-117355727D01*
X157998826Y-118236847D01*
X157520546Y-119388674D01*
X157519457Y-120635854D01*
X157995727Y-121788515D01*
X158876847Y-122671174D01*
X159945699Y-123115000D01*
X106105081Y-123115000D01*
X106065954Y-122918295D01*
X105912046Y-122687954D01*
X105681705Y-122534046D01*
X105410000Y-122480000D01*
X104203127Y-122480000D01*
X104891174Y-121793153D01*
X105369454Y-120641326D01*
X105370543Y-119394146D01*
X104894273Y-118241485D01*
X104013153Y-117358826D01*
X102861326Y-116880546D01*
X101614146Y-116879457D01*
X100461485Y-117355727D01*
X99578826Y-118236847D01*
X99135000Y-119305699D01*
X99135000Y-88900000D01*
X102041887Y-88900000D01*
X102151120Y-89449151D01*
X102462189Y-89914698D01*
X102844275Y-90170000D01*
X102462189Y-90425302D01*
X102151120Y-90890849D01*
X102041887Y-91440000D01*
X102151120Y-91989151D01*
X102462189Y-92454698D01*
X102844275Y-92710000D01*
X102462189Y-92965302D01*
X102151120Y-93430849D01*
X102041887Y-93980000D01*
X102151120Y-94529151D01*
X102462189Y-94994698D01*
X102844275Y-95250000D01*
X102462189Y-95505302D01*
X102151120Y-95970849D01*
X102041887Y-96520000D01*
X102151120Y-97069151D01*
X102462189Y-97534698D01*
X102844275Y-97790000D01*
X102462189Y-98045302D01*
X102151120Y-98510849D01*
X102041887Y-99060000D01*
X102151120Y-99609151D01*
X102462189Y-100074698D01*
X102844275Y-100330000D01*
X102462189Y-100585302D01*
X102151120Y-101050849D01*
X102041887Y-101600000D01*
X102151120Y-102149151D01*
X102462189Y-102614698D01*
X102844275Y-102870000D01*
X102462189Y-103125302D01*
X102151120Y-103590849D01*
X102041887Y-104140000D01*
X102151120Y-104689151D01*
X102462189Y-105154698D01*
X102844275Y-105410000D01*
X102462189Y-105665302D01*
X102151120Y-106130849D01*
X102041887Y-106680000D01*
X102151120Y-107229151D01*
X102462189Y-107694698D01*
X102844275Y-107950000D01*
X102462189Y-108205302D01*
X102151120Y-108670849D01*
X102041887Y-109220000D01*
X102151120Y-109769151D01*
X102462189Y-110234698D01*
X102844275Y-110490000D01*
X102462189Y-110745302D01*
X102151120Y-111210849D01*
X102041887Y-111760000D01*
X102151120Y-112309151D01*
X102462189Y-112774698D01*
X102927736Y-113085767D01*
X103476887Y-113195000D01*
X103533113Y-113195000D01*
X104082264Y-113085767D01*
X104547811Y-112774698D01*
X104858880Y-112309151D01*
X104968113Y-111760000D01*
X104858880Y-111210849D01*
X104547811Y-110745302D01*
X104165725Y-110490000D01*
X104547811Y-110234698D01*
X104858880Y-109769151D01*
X104968113Y-109220000D01*
X104858880Y-108670849D01*
X104547811Y-108205302D01*
X104165725Y-107950000D01*
X104547811Y-107694698D01*
X104858880Y-107229151D01*
X104968113Y-106680000D01*
X104858880Y-106130849D01*
X104547811Y-105665302D01*
X104165725Y-105410000D01*
X104547811Y-105154698D01*
X104858880Y-104689151D01*
X104968113Y-104140000D01*
X104858880Y-103590849D01*
X104547811Y-103125302D01*
X104165725Y-102870000D01*
X104547811Y-102614698D01*
X104858880Y-102149151D01*
X104968113Y-101600000D01*
X104858880Y-101050849D01*
X104547811Y-100585302D01*
X104165725Y-100330000D01*
X104547811Y-100074698D01*
X104858880Y-99609151D01*
X104968113Y-99060000D01*
X104858880Y-98510849D01*
X104547811Y-98045302D01*
X104165725Y-97790000D01*
X104547811Y-97534698D01*
X104858880Y-97069151D01*
X104968113Y-96520000D01*
X104858880Y-95970849D01*
X104547811Y-95505302D01*
X104165725Y-95250000D01*
X104547811Y-94994698D01*
X104858880Y-94529151D01*
X104968113Y-93980000D01*
X104858880Y-93430849D01*
X104547811Y-92965302D01*
X104165725Y-92710000D01*
X104547811Y-92454698D01*
X104858880Y-91989151D01*
X104968113Y-91440000D01*
X104858880Y-90890849D01*
X104547811Y-90425302D01*
X104165725Y-90170000D01*
X104547811Y-89914698D01*
X104858880Y-89449151D01*
X104968113Y-88900000D01*
X109661887Y-88900000D01*
X109771120Y-89449151D01*
X110082189Y-89914698D01*
X110365000Y-90103667D01*
X110365000Y-90236333D01*
X110082189Y-90425302D01*
X109771120Y-90890849D01*
X109661887Y-91440000D01*
X109771120Y-91989151D01*
X110082189Y-92454698D01*
X110365000Y-92643667D01*
X110365000Y-92776333D01*
X110082189Y-92965302D01*
X109771120Y-93430849D01*
X109661887Y-93980000D01*
X109771120Y-94529151D01*
X110082189Y-94994698D01*
X110365000Y-95183667D01*
X110365000Y-95316333D01*
X110082189Y-95505302D01*
X109771120Y-95970849D01*
X109661887Y-96520000D01*
X109771120Y-97069151D01*
X110082189Y-97534698D01*
X110365000Y-97723667D01*
X110365000Y-97856333D01*
X110082189Y-98045302D01*
X109771120Y-98510849D01*
X109661887Y-99060000D01*
X109771120Y-99609151D01*
X110082189Y-100074698D01*
X110365000Y-100263667D01*
X110365000Y-100396333D01*
X110082189Y-100585302D01*
X109771120Y-101050849D01*
X109661887Y-101600000D01*
X109771120Y-102149151D01*
X110082189Y-102614698D01*
X110365000Y-102803667D01*
X110365000Y-102936333D01*
X110082189Y-103125302D01*
X109771120Y-103590849D01*
X109661887Y-104140000D01*
X109771120Y-104689151D01*
X110082189Y-105154698D01*
X110365000Y-105343667D01*
X110365000Y-105476333D01*
X110082189Y-105665302D01*
X109771120Y-106130849D01*
X109661887Y-106680000D01*
X109771120Y-107229151D01*
X110082189Y-107694698D01*
X110365000Y-107883667D01*
X110365000Y-108016333D01*
X110082189Y-108205302D01*
X109771120Y-108670849D01*
X109661887Y-109220000D01*
X109771120Y-109769151D01*
X110082189Y-110234698D01*
X110226465Y-110331101D01*
X110089683Y-110356838D01*
X109873559Y-110495910D01*
X109728569Y-110708110D01*
X109677560Y-110960000D01*
X109677560Y-112560000D01*
X109721838Y-112795317D01*
X109860910Y-113011441D01*
X110073110Y-113156431D01*
X110325000Y-113207440D01*
X111925000Y-113207440D01*
X112160317Y-113163162D01*
X112376441Y-113024090D01*
X112521431Y-112811890D01*
X112572440Y-112560000D01*
X112572440Y-110960000D01*
X112528162Y-110724683D01*
X112389090Y-110508559D01*
X112176890Y-110363569D01*
X112021911Y-110332185D01*
X112167811Y-110234698D01*
X112478880Y-109769151D01*
X112588113Y-109220000D01*
X112478880Y-108670849D01*
X112167811Y-108205302D01*
X111885000Y-108016333D01*
X111885000Y-107883667D01*
X112167811Y-107694698D01*
X112478880Y-107229151D01*
X112588113Y-106680000D01*
X112478880Y-106130849D01*
X112167811Y-105665302D01*
X111885000Y-105476333D01*
X111885000Y-105343667D01*
X112167811Y-105154698D01*
X112478880Y-104689151D01*
X112588113Y-104140000D01*
X112478880Y-103590849D01*
X112167811Y-103125302D01*
X111885000Y-102936333D01*
X111885000Y-102803667D01*
X112167811Y-102614698D01*
X112478880Y-102149151D01*
X112588113Y-101600000D01*
X112478880Y-101050849D01*
X112167811Y-100585302D01*
X111885000Y-100396333D01*
X111885000Y-100263667D01*
X112167811Y-100074698D01*
X112478880Y-99609151D01*
X112588113Y-99060000D01*
X112478880Y-98510849D01*
X112167811Y-98045302D01*
X111885000Y-97856333D01*
X111885000Y-97723667D01*
X112167811Y-97534698D01*
X112478880Y-97069151D01*
X112588113Y-96520000D01*
X112478880Y-95970849D01*
X112167811Y-95505302D01*
X111885000Y-95316333D01*
X111885000Y-95183667D01*
X112167811Y-94994698D01*
X112478880Y-94529151D01*
X112588113Y-93980000D01*
X112478880Y-93430849D01*
X112167811Y-92965302D01*
X111885000Y-92776333D01*
X111885000Y-92643667D01*
X112167811Y-92454698D01*
X112478880Y-91989151D01*
X112588113Y-91440000D01*
X112478880Y-90890849D01*
X112167811Y-90425302D01*
X111885000Y-90236333D01*
X111885000Y-90103667D01*
X112167811Y-89914698D01*
X112478880Y-89449151D01*
X112588113Y-88900000D01*
X112478880Y-88350849D01*
X112167811Y-87885302D01*
X111702264Y-87574233D01*
X111153113Y-87465000D01*
X111096887Y-87465000D01*
X110547736Y-87574233D01*
X110082189Y-87885302D01*
X109771120Y-88350849D01*
X109661887Y-88900000D01*
X104968113Y-88900000D01*
X104858880Y-88350849D01*
X104547811Y-87885302D01*
X104082264Y-87574233D01*
X103533113Y-87465000D01*
X103476887Y-87465000D01*
X102927736Y-87574233D01*
X102462189Y-87885302D01*
X102151120Y-88350849D01*
X102041887Y-88900000D01*
X99135000Y-88900000D01*
X99135000Y-81700000D01*
X102007560Y-81700000D01*
X102007560Y-83400000D01*
X102051838Y-83635317D01*
X102190910Y-83851441D01*
X102403110Y-83996431D01*
X102655000Y-84047440D01*
X104355000Y-84047440D01*
X104590317Y-84003162D01*
X104806441Y-83864090D01*
X104951431Y-83651890D01*
X104965086Y-83584459D01*
X104994946Y-83629147D01*
X105476715Y-83951054D01*
X106045000Y-84064093D01*
X106613285Y-83951054D01*
X107095054Y-83629147D01*
X107416961Y-83147378D01*
X107530000Y-82579093D01*
X107530000Y-82520907D01*
X107416961Y-81952622D01*
X107095054Y-81470853D01*
X106613285Y-81148946D01*
X106045000Y-81035907D01*
X105476715Y-81148946D01*
X104994946Y-81470853D01*
X104967150Y-81512452D01*
X104958162Y-81464683D01*
X104819090Y-81248559D01*
X104606890Y-81103569D01*
X104355000Y-81052560D01*
X102655000Y-81052560D01*
X102419683Y-81096838D01*
X102203559Y-81235910D01*
X102058569Y-81448110D01*
X102007560Y-81700000D01*
X99135000Y-81700000D01*
X99135000Y-80645000D01*
X115445000Y-80645000D01*
X115445000Y-86360000D01*
X115502852Y-86650839D01*
X115667599Y-86897401D01*
X117505716Y-88735518D01*
X117503113Y-88735000D01*
X117446887Y-88735000D01*
X116897736Y-88844233D01*
X116432189Y-89155302D01*
X116121120Y-89620849D01*
X116011887Y-90170000D01*
X116121120Y-90719151D01*
X116432189Y-91184698D01*
X116814275Y-91440000D01*
X116432189Y-91695302D01*
X116121120Y-92160849D01*
X116011887Y-92710000D01*
X116121120Y-93259151D01*
X116432189Y-93724698D01*
X116814275Y-93980000D01*
X116432189Y-94235302D01*
X116121120Y-94700849D01*
X116011887Y-95250000D01*
X116121120Y-95799151D01*
X116432189Y-96264698D01*
X116814275Y-96520000D01*
X116432189Y-96775302D01*
X116121120Y-97240849D01*
X116011887Y-97790000D01*
X116121120Y-98339151D01*
X116432189Y-98804698D01*
X116814275Y-99060000D01*
X116432189Y-99315302D01*
X116121120Y-99780849D01*
X116011887Y-100330000D01*
X116121120Y-100879151D01*
X116432189Y-101344698D01*
X116814275Y-101600000D01*
X116432189Y-101855302D01*
X116121120Y-102320849D01*
X116011887Y-102870000D01*
X116121120Y-103419151D01*
X116432189Y-103884698D01*
X116814275Y-104140000D01*
X116432189Y-104395302D01*
X116121120Y-104860849D01*
X116011887Y-105410000D01*
X116121120Y-105959151D01*
X116432189Y-106424698D01*
X116814275Y-106680000D01*
X116432189Y-106935302D01*
X116121120Y-107400849D01*
X116011887Y-107950000D01*
X116121120Y-108499151D01*
X116432189Y-108964698D01*
X116814275Y-109220000D01*
X116432189Y-109475302D01*
X116121120Y-109940849D01*
X116011887Y-110490000D01*
X116121120Y-111039151D01*
X116432189Y-111504698D01*
X116897736Y-111815767D01*
X117446887Y-111925000D01*
X117503113Y-111925000D01*
X118052264Y-111815767D01*
X118517811Y-111504698D01*
X118828880Y-111039151D01*
X118938113Y-110490000D01*
X118828880Y-109940849D01*
X118661268Y-109690000D01*
X123647560Y-109690000D01*
X123647560Y-111290000D01*
X123691838Y-111525317D01*
X123830910Y-111741441D01*
X124043110Y-111886431D01*
X124295000Y-111937440D01*
X125895000Y-111937440D01*
X126130317Y-111893162D01*
X126346441Y-111754090D01*
X126491431Y-111541890D01*
X126542440Y-111290000D01*
X126542440Y-109690000D01*
X126498162Y-109454683D01*
X126359090Y-109238559D01*
X126146890Y-109093569D01*
X125987384Y-109061268D01*
X126161385Y-108869187D01*
X130009752Y-108869187D01*
X130227757Y-109396800D01*
X130631077Y-109800824D01*
X131158309Y-110019750D01*
X131729187Y-110020248D01*
X132256800Y-109802243D01*
X132660824Y-109398923D01*
X132879750Y-108871691D01*
X132880248Y-108300813D01*
X132662243Y-107773200D01*
X132258923Y-107369176D01*
X131731691Y-107150250D01*
X131160813Y-107149752D01*
X130633200Y-107367757D01*
X130229176Y-107771077D01*
X130010250Y-108298309D01*
X130009752Y-108869187D01*
X126161385Y-108869187D01*
X126326041Y-108687423D01*
X126486904Y-108299039D01*
X126364915Y-108077000D01*
X125222000Y-108077000D01*
X125222000Y-108097000D01*
X124968000Y-108097000D01*
X124968000Y-108077000D01*
X123825085Y-108077000D01*
X123703096Y-108299039D01*
X123863959Y-108687423D01*
X124201590Y-109060136D01*
X124059683Y-109086838D01*
X123843559Y-109225910D01*
X123698569Y-109438110D01*
X123647560Y-109690000D01*
X118661268Y-109690000D01*
X118517811Y-109475302D01*
X118135725Y-109220000D01*
X118517811Y-108964698D01*
X118828880Y-108499151D01*
X118938113Y-107950000D01*
X118828880Y-107400849D01*
X118517811Y-106935302D01*
X118135725Y-106680000D01*
X118517811Y-106424698D01*
X118828880Y-105959151D01*
X118938113Y-105410000D01*
X118828880Y-104860849D01*
X118517811Y-104395302D01*
X118135725Y-104140000D01*
X118517811Y-103884698D01*
X118828880Y-103419151D01*
X118938113Y-102870000D01*
X118828880Y-102320849D01*
X118517811Y-101855302D01*
X118135725Y-101600000D01*
X118517811Y-101344698D01*
X118828880Y-100879151D01*
X118938113Y-100330000D01*
X118828880Y-99780849D01*
X118517811Y-99315302D01*
X118135725Y-99060000D01*
X118517811Y-98804698D01*
X118828880Y-98339151D01*
X118938113Y-97790000D01*
X118828880Y-97240849D01*
X118517811Y-96775302D01*
X118135725Y-96520000D01*
X118517811Y-96264698D01*
X118828880Y-95799151D01*
X118938113Y-95250000D01*
X118937595Y-95247397D01*
X121619878Y-97929680D01*
X121619838Y-97975167D01*
X121761883Y-98318943D01*
X122024673Y-98582192D01*
X122368201Y-98724838D01*
X122740167Y-98725162D01*
X123065000Y-98590944D01*
X123065000Y-104140000D01*
X123122852Y-104430839D01*
X123287599Y-104677401D01*
X123696312Y-105086114D01*
X123631887Y-105410000D01*
X123741120Y-105959151D01*
X124052189Y-106424698D01*
X124456703Y-106694986D01*
X124239866Y-106797611D01*
X123863959Y-107212577D01*
X123703096Y-107600961D01*
X123825085Y-107823000D01*
X124968000Y-107823000D01*
X124968000Y-107803000D01*
X125222000Y-107803000D01*
X125222000Y-107823000D01*
X126364915Y-107823000D01*
X126486904Y-107600961D01*
X126326041Y-107212577D01*
X125950134Y-106797611D01*
X125733297Y-106694986D01*
X126137811Y-106424698D01*
X126448880Y-105959151D01*
X126558113Y-105410000D01*
X126448880Y-104860849D01*
X126137811Y-104395302D01*
X125755725Y-104140000D01*
X126137811Y-103884698D01*
X126448880Y-103419151D01*
X126558113Y-102870000D01*
X126448880Y-102320849D01*
X126137811Y-101855302D01*
X125755725Y-101600000D01*
X126137811Y-101344698D01*
X126448880Y-100879151D01*
X126558113Y-100330000D01*
X126448880Y-99780849D01*
X126137811Y-99315302D01*
X125755725Y-99060000D01*
X126137811Y-98804698D01*
X126448880Y-98339151D01*
X126453828Y-98314275D01*
X126462599Y-98327401D01*
X130527986Y-102392788D01*
X130229176Y-102691077D01*
X130010250Y-103218309D01*
X130009752Y-103789187D01*
X130227757Y-104316800D01*
X130631077Y-104720824D01*
X131158309Y-104939750D01*
X131729187Y-104940248D01*
X132256800Y-104722243D01*
X132660824Y-104318923D01*
X132879750Y-103791691D01*
X132880248Y-103220813D01*
X132662243Y-102693200D01*
X132258923Y-102289176D01*
X132205000Y-102266785D01*
X132205000Y-102235000D01*
X132187569Y-102147371D01*
X137670000Y-107629802D01*
X137670000Y-108022537D01*
X137637808Y-108054673D01*
X137495162Y-108398201D01*
X137494838Y-108770167D01*
X137636883Y-109113943D01*
X137899673Y-109377192D01*
X138243201Y-109519838D01*
X138615167Y-109520162D01*
X138958943Y-109378117D01*
X139222192Y-109115327D01*
X139297469Y-108934039D01*
X140213096Y-108934039D01*
X140373959Y-109322423D01*
X140749866Y-109737389D01*
X141255959Y-109976914D01*
X141478000Y-109855629D01*
X141478000Y-108712000D01*
X141732000Y-108712000D01*
X141732000Y-109855629D01*
X141954041Y-109976914D01*
X142460134Y-109737389D01*
X142669592Y-109506167D01*
X143969750Y-109506167D01*
X144189275Y-110037457D01*
X144595405Y-110444297D01*
X145126311Y-110664748D01*
X145701167Y-110665250D01*
X146232457Y-110445725D01*
X146639297Y-110039595D01*
X146859748Y-109508689D01*
X146860250Y-108933833D01*
X146640725Y-108402543D01*
X146234595Y-107995703D01*
X145703689Y-107775252D01*
X145128833Y-107774750D01*
X144597543Y-107994275D01*
X144190703Y-108400405D01*
X143970252Y-108931311D01*
X143969750Y-109506167D01*
X142669592Y-109506167D01*
X142836041Y-109322423D01*
X142996904Y-108934039D01*
X142874915Y-108712000D01*
X141732000Y-108712000D01*
X141478000Y-108712000D01*
X140335085Y-108712000D01*
X140213096Y-108934039D01*
X139297469Y-108934039D01*
X139364838Y-108771799D01*
X139365162Y-108399833D01*
X139297452Y-108235961D01*
X140213096Y-108235961D01*
X140335085Y-108458000D01*
X141478000Y-108458000D01*
X141478000Y-107314371D01*
X141732000Y-107314371D01*
X141732000Y-108458000D01*
X142874915Y-108458000D01*
X142996904Y-108235961D01*
X142836041Y-107847577D01*
X142460134Y-107432611D01*
X141954041Y-107193086D01*
X141732000Y-107314371D01*
X141478000Y-107314371D01*
X141255959Y-107193086D01*
X140749866Y-107432611D01*
X140373959Y-107847577D01*
X140213096Y-108235961D01*
X139297452Y-108235961D01*
X139223117Y-108056057D01*
X139190000Y-108022882D01*
X139190000Y-107315000D01*
X139132148Y-107024161D01*
X139120125Y-107006167D01*
X148969750Y-107006167D01*
X149189275Y-107537457D01*
X149595405Y-107944297D01*
X150126311Y-108164748D01*
X150701167Y-108165250D01*
X151232457Y-107945725D01*
X151639297Y-107539595D01*
X151859748Y-107008689D01*
X151860250Y-106433833D01*
X151640725Y-105902543D01*
X151472272Y-105733795D01*
X153154716Y-105733795D01*
X153403106Y-106334943D01*
X153862637Y-106795278D01*
X154463352Y-107044716D01*
X155113795Y-107045284D01*
X155714943Y-106796894D01*
X156175278Y-106337363D01*
X156424716Y-105736648D01*
X156424718Y-105733795D01*
X159654716Y-105733795D01*
X159903106Y-106334943D01*
X160362637Y-106795278D01*
X160963352Y-107044716D01*
X161613795Y-107045284D01*
X162214943Y-106796894D01*
X162675278Y-106337363D01*
X162924716Y-105736648D01*
X162925284Y-105086205D01*
X162676894Y-104485057D01*
X162217363Y-104024722D01*
X161616648Y-103775284D01*
X160966205Y-103774716D01*
X160365057Y-104023106D01*
X159904722Y-104482637D01*
X159655284Y-105083352D01*
X159654716Y-105733795D01*
X156424718Y-105733795D01*
X156425284Y-105086205D01*
X156176894Y-104485057D01*
X155717363Y-104024722D01*
X155116648Y-103775284D01*
X154466205Y-103774716D01*
X153865057Y-104023106D01*
X153404722Y-104482637D01*
X153155284Y-105083352D01*
X153154716Y-105733795D01*
X151472272Y-105733795D01*
X151234595Y-105495703D01*
X150703689Y-105275252D01*
X150128833Y-105274750D01*
X149597543Y-105494275D01*
X149190703Y-105900405D01*
X148970252Y-106431311D01*
X148969750Y-107006167D01*
X139120125Y-107006167D01*
X138967401Y-106777599D01*
X135694802Y-103505000D01*
X140141887Y-103505000D01*
X140251120Y-104054151D01*
X140562189Y-104519698D01*
X141027736Y-104830767D01*
X141576887Y-104940000D01*
X141633113Y-104940000D01*
X142182264Y-104830767D01*
X142647811Y-104519698D01*
X142656852Y-104506167D01*
X143969750Y-104506167D01*
X144189275Y-105037457D01*
X144595405Y-105444297D01*
X145126311Y-105664748D01*
X145701167Y-105665250D01*
X146232457Y-105445725D01*
X146639297Y-105039595D01*
X146859748Y-104508689D01*
X146860250Y-103933833D01*
X146640725Y-103402543D01*
X146234595Y-102995703D01*
X145703689Y-102775252D01*
X145128833Y-102774750D01*
X144597543Y-102994275D01*
X144190703Y-103400405D01*
X143970252Y-103931311D01*
X143969750Y-104506167D01*
X142656852Y-104506167D01*
X142958880Y-104054151D01*
X143068113Y-103505000D01*
X142958880Y-102955849D01*
X142647811Y-102490302D01*
X142182264Y-102179233D01*
X141633113Y-102070000D01*
X141576887Y-102070000D01*
X141027736Y-102179233D01*
X140562189Y-102490302D01*
X140251120Y-102955849D01*
X140141887Y-103505000D01*
X135694802Y-103505000D01*
X131549894Y-99360092D01*
X131630167Y-99360162D01*
X131664037Y-99346167D01*
X143969750Y-99346167D01*
X144189275Y-99877457D01*
X144595405Y-100284297D01*
X145126311Y-100504748D01*
X145701167Y-100505250D01*
X146232457Y-100285725D01*
X146639297Y-99879595D01*
X146859748Y-99348689D01*
X146860250Y-98773833D01*
X146640725Y-98242543D01*
X146234595Y-97835703D01*
X145703689Y-97615252D01*
X145128833Y-97614750D01*
X144597543Y-97834275D01*
X144190703Y-98240405D01*
X143970252Y-98771311D01*
X143969750Y-99346167D01*
X131664037Y-99346167D01*
X131973943Y-99218117D01*
X132237192Y-98955327D01*
X132379838Y-98611799D01*
X132379879Y-98564923D01*
X134759680Y-96185122D01*
X134805167Y-96185162D01*
X135148943Y-96043117D01*
X135412192Y-95780327D01*
X135487469Y-95599039D01*
X140213096Y-95599039D01*
X140373959Y-95987423D01*
X140749866Y-96402389D01*
X141255959Y-96641914D01*
X141478000Y-96520629D01*
X141478000Y-95377000D01*
X141732000Y-95377000D01*
X141732000Y-96520629D01*
X141954041Y-96641914D01*
X142460134Y-96402389D01*
X142836041Y-95987423D01*
X142996904Y-95599039D01*
X142874915Y-95377000D01*
X141732000Y-95377000D01*
X141478000Y-95377000D01*
X140335085Y-95377000D01*
X140213096Y-95599039D01*
X135487469Y-95599039D01*
X135554838Y-95436799D01*
X135555162Y-95064833D01*
X135487452Y-94900961D01*
X140213096Y-94900961D01*
X140335085Y-95123000D01*
X141478000Y-95123000D01*
X141478000Y-93979371D01*
X141732000Y-93979371D01*
X141732000Y-95123000D01*
X142874915Y-95123000D01*
X142901292Y-95074988D01*
X144579617Y-95074988D01*
X144654980Y-95322144D01*
X145195834Y-95516916D01*
X145770055Y-95489886D01*
X146175020Y-95322144D01*
X146250383Y-95074988D01*
X145415000Y-94239605D01*
X144579617Y-95074988D01*
X142901292Y-95074988D01*
X142996904Y-94900961D01*
X142836041Y-94512577D01*
X142460134Y-94097611D01*
X141954041Y-93858086D01*
X141732000Y-93979371D01*
X141478000Y-93979371D01*
X141255959Y-93858086D01*
X140749866Y-94097611D01*
X140373959Y-94512577D01*
X140213096Y-94900961D01*
X135487452Y-94900961D01*
X135413117Y-94721057D01*
X135150327Y-94457808D01*
X134806799Y-94315162D01*
X134434833Y-94314838D01*
X134091057Y-94456883D01*
X133827808Y-94719673D01*
X133685162Y-95063201D01*
X133685121Y-95110077D01*
X131305320Y-97489878D01*
X131259833Y-97489838D01*
X130916057Y-97631883D01*
X130652808Y-97894673D01*
X130510162Y-98238201D01*
X130510090Y-98320288D01*
X129205122Y-97015320D01*
X129205162Y-96969833D01*
X129063117Y-96626057D01*
X128800327Y-96362808D01*
X128456799Y-96220162D01*
X128084833Y-96219838D01*
X127760000Y-96354056D01*
X127760000Y-95564802D01*
X127790615Y-95534187D01*
X130009752Y-95534187D01*
X130227757Y-96061800D01*
X130631077Y-96465824D01*
X131158309Y-96684750D01*
X131729187Y-96685248D01*
X132256800Y-96467243D01*
X132660824Y-96063923D01*
X132879750Y-95536691D01*
X132880248Y-94965813D01*
X132662243Y-94438200D01*
X132258923Y-94034176D01*
X131793305Y-93840834D01*
X143958084Y-93840834D01*
X143985114Y-94415055D01*
X144152856Y-94820020D01*
X144400012Y-94895383D01*
X145235395Y-94060000D01*
X145594605Y-94060000D01*
X146429988Y-94895383D01*
X146677144Y-94820020D01*
X146871916Y-94279166D01*
X146844886Y-93704945D01*
X146677144Y-93299980D01*
X146429988Y-93224617D01*
X145594605Y-94060000D01*
X145235395Y-94060000D01*
X144400012Y-93224617D01*
X144152856Y-93299980D01*
X143958084Y-93840834D01*
X131793305Y-93840834D01*
X131731691Y-93815250D01*
X131160813Y-93814752D01*
X130633200Y-94032757D01*
X130229176Y-94436077D01*
X130010250Y-94963309D01*
X130009752Y-95534187D01*
X127790615Y-95534187D01*
X128172401Y-95152401D01*
X128337148Y-94905839D01*
X128395000Y-94615000D01*
X128395000Y-93045012D01*
X144579617Y-93045012D01*
X145415000Y-93880395D01*
X146250383Y-93045012D01*
X146175020Y-92797856D01*
X145634166Y-92603084D01*
X145059945Y-92630114D01*
X144654980Y-92797856D01*
X144579617Y-93045012D01*
X128395000Y-93045012D01*
X128395000Y-87344039D01*
X135133096Y-87344039D01*
X135293959Y-87732423D01*
X135669866Y-88147389D01*
X136175959Y-88386914D01*
X136398000Y-88265629D01*
X136398000Y-87122000D01*
X136652000Y-87122000D01*
X136652000Y-88265629D01*
X136874041Y-88386914D01*
X137380134Y-88147389D01*
X137756041Y-87732423D01*
X137916904Y-87344039D01*
X137794915Y-87122000D01*
X136652000Y-87122000D01*
X136398000Y-87122000D01*
X135255085Y-87122000D01*
X135133096Y-87344039D01*
X128395000Y-87344039D01*
X128395000Y-86645961D01*
X135133096Y-86645961D01*
X135255085Y-86868000D01*
X136398000Y-86868000D01*
X136398000Y-85724371D01*
X136652000Y-85724371D01*
X136652000Y-86868000D01*
X137794915Y-86868000D01*
X137916904Y-86645961D01*
X137756041Y-86257577D01*
X137380134Y-85842611D01*
X136874041Y-85603086D01*
X136652000Y-85724371D01*
X136398000Y-85724371D01*
X136175959Y-85603086D01*
X135669866Y-85842611D01*
X135293959Y-86257577D01*
X135133096Y-86645961D01*
X128395000Y-86645961D01*
X128395000Y-86360000D01*
X128337148Y-86069161D01*
X128172401Y-85822599D01*
X125185552Y-82835750D01*
X135675000Y-82835750D01*
X135675000Y-83526309D01*
X135771673Y-83759698D01*
X135950301Y-83938327D01*
X136183690Y-84035000D01*
X136874250Y-84035000D01*
X137033000Y-83876250D01*
X137033000Y-82677000D01*
X135833750Y-82677000D01*
X135675000Y-82835750D01*
X125185552Y-82835750D01*
X123923493Y-81573691D01*
X135675000Y-81573691D01*
X135675000Y-82264250D01*
X135833750Y-82423000D01*
X137033000Y-82423000D01*
X137033000Y-81223750D01*
X137287000Y-81223750D01*
X137287000Y-82423000D01*
X137307000Y-82423000D01*
X137307000Y-82677000D01*
X137287000Y-82677000D01*
X137287000Y-83876250D01*
X137445750Y-84035000D01*
X138136310Y-84035000D01*
X138369699Y-83938327D01*
X138548327Y-83759698D01*
X138620597Y-83585223D01*
X138649946Y-83629147D01*
X139131715Y-83951054D01*
X139700000Y-84064093D01*
X140268285Y-83951054D01*
X140750054Y-83629147D01*
X141071961Y-83147378D01*
X141133947Y-82835750D01*
X142025000Y-82835750D01*
X142025000Y-83526309D01*
X142121673Y-83759698D01*
X142300301Y-83938327D01*
X142533690Y-84035000D01*
X143224250Y-84035000D01*
X143383000Y-83876250D01*
X143383000Y-82677000D01*
X142183750Y-82677000D01*
X142025000Y-82835750D01*
X141133947Y-82835750D01*
X141185000Y-82579093D01*
X141185000Y-82520907D01*
X141071961Y-81952622D01*
X140818768Y-81573691D01*
X142025000Y-81573691D01*
X142025000Y-82264250D01*
X142183750Y-82423000D01*
X143383000Y-82423000D01*
X143383000Y-81223750D01*
X143637000Y-81223750D01*
X143637000Y-82423000D01*
X143657000Y-82423000D01*
X143657000Y-82677000D01*
X143637000Y-82677000D01*
X143637000Y-83876250D01*
X143795750Y-84035000D01*
X144486310Y-84035000D01*
X144719699Y-83938327D01*
X144898327Y-83759698D01*
X144970597Y-83585223D01*
X144999946Y-83629147D01*
X145290000Y-83822954D01*
X145290000Y-86360000D01*
X145323969Y-86530773D01*
X145250250Y-86708309D01*
X145249752Y-87279187D01*
X145467757Y-87806800D01*
X145871077Y-88210824D01*
X145925000Y-88233215D01*
X145925000Y-90170000D01*
X145982852Y-90460839D01*
X146147599Y-90707401D01*
X150555320Y-95115122D01*
X150128833Y-95114750D01*
X149597543Y-95334275D01*
X149190703Y-95740405D01*
X148970252Y-96271311D01*
X148969750Y-96846167D01*
X149189275Y-97377457D01*
X149595405Y-97784297D01*
X150126311Y-98004748D01*
X150701167Y-98005250D01*
X151021489Y-97872895D01*
X151062852Y-98080839D01*
X151227599Y-98327401D01*
X153251598Y-100351400D01*
X153155284Y-100583352D01*
X153154716Y-101233795D01*
X153403106Y-101834943D01*
X153862637Y-102295278D01*
X154463352Y-102544716D01*
X155113795Y-102545284D01*
X155714943Y-102296894D01*
X156175278Y-101837363D01*
X156424716Y-101236648D01*
X156424718Y-101233795D01*
X159654716Y-101233795D01*
X159903106Y-101834943D01*
X160362637Y-102295278D01*
X160963352Y-102544716D01*
X161613795Y-102545284D01*
X162214943Y-102296894D01*
X162675278Y-101837363D01*
X162924716Y-101236648D01*
X162925284Y-100586205D01*
X162676894Y-99985057D01*
X162217363Y-99524722D01*
X161616648Y-99275284D01*
X160966205Y-99274716D01*
X160365057Y-99523106D01*
X159904722Y-99982637D01*
X159655284Y-100583352D01*
X159654716Y-101233795D01*
X156424718Y-101233795D01*
X156425284Y-100586205D01*
X156176894Y-99985057D01*
X155717363Y-99524722D01*
X155116648Y-99275284D01*
X154466205Y-99274716D01*
X154365945Y-99316143D01*
X152525000Y-97475198D01*
X152525000Y-96263795D01*
X153304716Y-96263795D01*
X153553106Y-96864943D01*
X154012637Y-97325278D01*
X154613352Y-97574716D01*
X155263795Y-97575284D01*
X155864943Y-97326894D01*
X156325278Y-96867363D01*
X156574716Y-96266648D01*
X156574718Y-96263795D01*
X159804716Y-96263795D01*
X160053106Y-96864943D01*
X160512637Y-97325278D01*
X161113352Y-97574716D01*
X161763795Y-97575284D01*
X162364943Y-97326894D01*
X162825278Y-96867363D01*
X163074716Y-96266648D01*
X163075284Y-95616205D01*
X162826894Y-95015057D01*
X162367363Y-94554722D01*
X161766648Y-94305284D01*
X161116205Y-94304716D01*
X160515057Y-94553106D01*
X160054722Y-95012637D01*
X159805284Y-95613352D01*
X159804716Y-96263795D01*
X156574718Y-96263795D01*
X156575284Y-95616205D01*
X156326894Y-95015057D01*
X155867363Y-94554722D01*
X155266648Y-94305284D01*
X154616205Y-94304716D01*
X154015057Y-94553106D01*
X153554722Y-95012637D01*
X153305284Y-95613352D01*
X153304716Y-96263795D01*
X152525000Y-96263795D01*
X152525000Y-95250000D01*
X152467148Y-94959161D01*
X152302401Y-94712599D01*
X147445000Y-89855198D01*
X147445000Y-88233646D01*
X147496800Y-88212243D01*
X147900824Y-87808923D01*
X148119750Y-87281691D01*
X148120248Y-86710813D01*
X147902243Y-86183200D01*
X147498923Y-85779176D01*
X146971691Y-85560250D01*
X146810000Y-85560109D01*
X146810000Y-83822954D01*
X147100054Y-83629147D01*
X147421961Y-83147378D01*
X147483947Y-82835750D01*
X150280000Y-82835750D01*
X150280000Y-83526309D01*
X150376673Y-83759698D01*
X150555301Y-83938327D01*
X150788690Y-84035000D01*
X151479250Y-84035000D01*
X151638000Y-83876250D01*
X151638000Y-82677000D01*
X150438750Y-82677000D01*
X150280000Y-82835750D01*
X147483947Y-82835750D01*
X147535000Y-82579093D01*
X147535000Y-82520907D01*
X147421961Y-81952622D01*
X147168768Y-81573691D01*
X150280000Y-81573691D01*
X150280000Y-82264250D01*
X150438750Y-82423000D01*
X151638000Y-82423000D01*
X151638000Y-81223750D01*
X151892000Y-81223750D01*
X151892000Y-82423000D01*
X151912000Y-82423000D01*
X151912000Y-82677000D01*
X151892000Y-82677000D01*
X151892000Y-83876250D01*
X152050750Y-84035000D01*
X152741310Y-84035000D01*
X152974699Y-83938327D01*
X153153327Y-83759698D01*
X153225597Y-83585223D01*
X153254946Y-83629147D01*
X153736715Y-83951054D01*
X154180000Y-84039229D01*
X154180000Y-89984953D01*
X154015057Y-90053106D01*
X153554722Y-90512637D01*
X153305284Y-91113352D01*
X153304716Y-91763795D01*
X153553106Y-92364943D01*
X154012637Y-92825278D01*
X154613352Y-93074716D01*
X155263795Y-93075284D01*
X155864943Y-92826894D01*
X156325278Y-92367363D01*
X156574716Y-91766648D01*
X156574718Y-91763795D01*
X159804716Y-91763795D01*
X160053106Y-92364943D01*
X160512637Y-92825278D01*
X161113352Y-93074716D01*
X161763795Y-93075284D01*
X162364943Y-92826894D01*
X162825278Y-92367363D01*
X163074716Y-91766648D01*
X163075284Y-91116205D01*
X162826894Y-90515057D01*
X162367363Y-90054722D01*
X161766648Y-89805284D01*
X161116205Y-89804716D01*
X160515057Y-90053106D01*
X160054722Y-90512637D01*
X159805284Y-91113352D01*
X159804716Y-91763795D01*
X156574718Y-91763795D01*
X156575284Y-91116205D01*
X156326894Y-90515057D01*
X155867363Y-90054722D01*
X155700000Y-89985227D01*
X155700000Y-83185000D01*
X155684739Y-83108277D01*
X155790000Y-82579093D01*
X155790000Y-82520907D01*
X155676961Y-81952622D01*
X155355054Y-81470853D01*
X154873285Y-81148946D01*
X154305000Y-81035907D01*
X153736715Y-81148946D01*
X153254946Y-81470853D01*
X153225597Y-81514777D01*
X153153327Y-81340302D01*
X152974699Y-81161673D01*
X152741310Y-81065000D01*
X152050750Y-81065000D01*
X151892000Y-81223750D01*
X151638000Y-81223750D01*
X151479250Y-81065000D01*
X150788690Y-81065000D01*
X150555301Y-81161673D01*
X150376673Y-81340302D01*
X150280000Y-81573691D01*
X147168768Y-81573691D01*
X147100054Y-81470853D01*
X146618285Y-81148946D01*
X146050000Y-81035907D01*
X145481715Y-81148946D01*
X144999946Y-81470853D01*
X144970597Y-81514777D01*
X144898327Y-81340302D01*
X144719699Y-81161673D01*
X144486310Y-81065000D01*
X143795750Y-81065000D01*
X143637000Y-81223750D01*
X143383000Y-81223750D01*
X143224250Y-81065000D01*
X142533690Y-81065000D01*
X142300301Y-81161673D01*
X142121673Y-81340302D01*
X142025000Y-81573691D01*
X140818768Y-81573691D01*
X140750054Y-81470853D01*
X140268285Y-81148946D01*
X139700000Y-81035907D01*
X139131715Y-81148946D01*
X138649946Y-81470853D01*
X138620597Y-81514777D01*
X138548327Y-81340302D01*
X138369699Y-81161673D01*
X138136310Y-81065000D01*
X137445750Y-81065000D01*
X137287000Y-81223750D01*
X137033000Y-81223750D01*
X136874250Y-81065000D01*
X136183690Y-81065000D01*
X135950301Y-81161673D01*
X135771673Y-81340302D01*
X135675000Y-81573691D01*
X123923493Y-81573691D01*
X122220122Y-79870320D01*
X122220162Y-79824833D01*
X122078117Y-79481057D01*
X121815327Y-79217808D01*
X121471799Y-79075162D01*
X121099833Y-79074838D01*
X120756057Y-79216883D01*
X120492808Y-79479673D01*
X120350162Y-79823201D01*
X120349838Y-80195167D01*
X120491883Y-80538943D01*
X120754673Y-80802192D01*
X121098201Y-80944838D01*
X121145077Y-80944879D01*
X126875000Y-86674802D01*
X126875000Y-94300198D01*
X126462599Y-94712599D01*
X126453828Y-94725725D01*
X126448880Y-94700849D01*
X126137811Y-94235302D01*
X125733297Y-93965014D01*
X125950134Y-93862389D01*
X126326041Y-93447423D01*
X126486904Y-93059039D01*
X126364915Y-92837000D01*
X125222000Y-92837000D01*
X125222000Y-92857000D01*
X124968000Y-92857000D01*
X124968000Y-92837000D01*
X124948000Y-92837000D01*
X124948000Y-92583000D01*
X124968000Y-92583000D01*
X124968000Y-92563000D01*
X125222000Y-92563000D01*
X125222000Y-92583000D01*
X126364915Y-92583000D01*
X126486904Y-92360961D01*
X126326041Y-91972577D01*
X125950134Y-91557611D01*
X125733297Y-91454986D01*
X126137811Y-91184698D01*
X126448880Y-90719151D01*
X126558113Y-90170000D01*
X126448880Y-89620849D01*
X126137811Y-89155302D01*
X125672264Y-88844233D01*
X125123113Y-88735000D01*
X125066887Y-88735000D01*
X124517736Y-88844233D01*
X124332683Y-88967881D01*
X118710061Y-83345259D01*
X118710214Y-83170421D01*
X118595422Y-82892603D01*
X118613327Y-82874698D01*
X118710000Y-82641309D01*
X118710000Y-82200750D01*
X118551250Y-82042000D01*
X117602000Y-82042000D01*
X117602000Y-82062000D01*
X117348000Y-82062000D01*
X117348000Y-82042000D01*
X117328000Y-82042000D01*
X117328000Y-81788000D01*
X117348000Y-81788000D01*
X117348000Y-80838750D01*
X117602000Y-80838750D01*
X117602000Y-81788000D01*
X118551250Y-81788000D01*
X118710000Y-81629250D01*
X118710000Y-81188691D01*
X118613327Y-80955302D01*
X118434699Y-80776673D01*
X118201310Y-80680000D01*
X117760750Y-80680000D01*
X117602000Y-80838750D01*
X117348000Y-80838750D01*
X117217026Y-80707776D01*
X118012401Y-79912401D01*
X118177148Y-79665840D01*
X118235000Y-79375000D01*
X118235000Y-77438646D01*
X118286800Y-77417243D01*
X118690824Y-77013923D01*
X118883860Y-76549039D01*
X126243096Y-76549039D01*
X126403959Y-76937423D01*
X126779866Y-77352389D01*
X127285959Y-77591914D01*
X127508000Y-77470629D01*
X127508000Y-76327000D01*
X127762000Y-76327000D01*
X127762000Y-77470629D01*
X127984041Y-77591914D01*
X128490134Y-77352389D01*
X128866041Y-76937423D01*
X129026904Y-76549039D01*
X128904915Y-76327000D01*
X127762000Y-76327000D01*
X127508000Y-76327000D01*
X126365085Y-76327000D01*
X126243096Y-76549039D01*
X118883860Y-76549039D01*
X118909750Y-76486691D01*
X118910248Y-75915813D01*
X118883452Y-75850961D01*
X126243096Y-75850961D01*
X126365085Y-76073000D01*
X127508000Y-76073000D01*
X127508000Y-74929371D01*
X127762000Y-74929371D01*
X127762000Y-76073000D01*
X128904915Y-76073000D01*
X129026904Y-75850961D01*
X128866041Y-75462577D01*
X128490134Y-75047611D01*
X127984041Y-74808086D01*
X127762000Y-74929371D01*
X127508000Y-74929371D01*
X127285959Y-74808086D01*
X126779866Y-75047611D01*
X126403959Y-75462577D01*
X126243096Y-75850961D01*
X118883452Y-75850961D01*
X118692243Y-75388200D01*
X118288923Y-74984176D01*
X117761691Y-74765250D01*
X117190813Y-74764752D01*
X116663200Y-74982757D01*
X116259176Y-75386077D01*
X116040250Y-75913309D01*
X116039752Y-76484187D01*
X116257757Y-77011800D01*
X116661077Y-77415824D01*
X116715000Y-77438215D01*
X116715000Y-79060198D01*
X115667599Y-80107599D01*
X115502852Y-80354161D01*
X115445000Y-80645000D01*
X99135000Y-80645000D01*
X99135000Y-75636875D01*
X99575727Y-76703515D01*
X100456847Y-77586174D01*
X101608674Y-78064454D01*
X102855854Y-78065543D01*
X104008515Y-77589273D01*
X104477856Y-77120750D01*
X108320000Y-77120750D01*
X108320000Y-77861309D01*
X108416673Y-78094698D01*
X108595301Y-78273327D01*
X108828690Y-78370000D01*
X109569250Y-78370000D01*
X109728000Y-78211250D01*
X109728000Y-76962000D01*
X109982000Y-76962000D01*
X109982000Y-78211250D01*
X110140750Y-78370000D01*
X110881310Y-78370000D01*
X111114699Y-78273327D01*
X111293327Y-78094698D01*
X111390000Y-77861309D01*
X111390000Y-77120750D01*
X111231250Y-76962000D01*
X109982000Y-76962000D01*
X109728000Y-76962000D01*
X108478750Y-76962000D01*
X108320000Y-77120750D01*
X104477856Y-77120750D01*
X104891174Y-76708153D01*
X105369454Y-75556326D01*
X105370289Y-74598991D01*
X108319735Y-74598991D01*
X108552932Y-75163371D01*
X108730092Y-75340841D01*
X108595301Y-75396673D01*
X108416673Y-75575302D01*
X108320000Y-75808691D01*
X108320000Y-76549250D01*
X108478750Y-76708000D01*
X109728000Y-76708000D01*
X109728000Y-76688000D01*
X109982000Y-76688000D01*
X109982000Y-76708000D01*
X111231250Y-76708000D01*
X111390000Y-76549250D01*
X111390000Y-75808691D01*
X111293327Y-75575302D01*
X111114699Y-75396673D01*
X110980006Y-75340881D01*
X111155551Y-75165643D01*
X111389733Y-74601670D01*
X111390265Y-73991009D01*
X111157068Y-73426629D01*
X110725643Y-72994449D01*
X110161670Y-72760267D01*
X109551009Y-72759735D01*
X108986629Y-72992932D01*
X108554449Y-73424357D01*
X108320267Y-73988330D01*
X108319735Y-74598991D01*
X105370289Y-74598991D01*
X105370543Y-74309146D01*
X104894273Y-73156485D01*
X104013153Y-72273826D01*
X102944301Y-71830000D01*
X159948125Y-71830000D01*
X158881485Y-72270727D01*
X158881485Y-72270727D01*
G37*
X158881485Y-72270727D02*
X157998826Y-73151847D01*
X157520546Y-74303674D01*
X157519457Y-75550854D01*
X157995727Y-76703515D01*
X158876847Y-77586174D01*
X160028674Y-78064454D01*
X161275854Y-78065543D01*
X162428515Y-77589273D01*
X163311174Y-76708153D01*
X163755000Y-75639301D01*
X163755000Y-119308125D01*
X163314273Y-118241485D01*
X162433153Y-117358826D01*
X161281326Y-116880546D01*
X160034146Y-116879457D01*
X158881485Y-117355727D01*
X157998826Y-118236847D01*
X157520546Y-119388674D01*
X157519457Y-120635854D01*
X157995727Y-121788515D01*
X158876847Y-122671174D01*
X159945699Y-123115000D01*
X106105081Y-123115000D01*
X106065954Y-122918295D01*
X105912046Y-122687954D01*
X105681705Y-122534046D01*
X105410000Y-122480000D01*
X104203127Y-122480000D01*
X104891174Y-121793153D01*
X105369454Y-120641326D01*
X105370543Y-119394146D01*
X104894273Y-118241485D01*
X104013153Y-117358826D01*
X102861326Y-116880546D01*
X101614146Y-116879457D01*
X100461485Y-117355727D01*
X99578826Y-118236847D01*
X99135000Y-119305699D01*
X99135000Y-88900000D01*
X102041887Y-88900000D01*
X102151120Y-89449151D01*
X102462189Y-89914698D01*
X102844275Y-90170000D01*
X102462189Y-90425302D01*
X102151120Y-90890849D01*
X102041887Y-91440000D01*
X102151120Y-91989151D01*
X102462189Y-92454698D01*
X102844275Y-92710000D01*
X102462189Y-92965302D01*
X102151120Y-93430849D01*
X102041887Y-93980000D01*
X102151120Y-94529151D01*
X102462189Y-94994698D01*
X102844275Y-95250000D01*
X102462189Y-95505302D01*
X102151120Y-95970849D01*
X102041887Y-96520000D01*
X102151120Y-97069151D01*
X102462189Y-97534698D01*
X102844275Y-97790000D01*
X102462189Y-98045302D01*
X102151120Y-98510849D01*
X102041887Y-99060000D01*
X102151120Y-99609151D01*
X102462189Y-100074698D01*
X102844275Y-100330000D01*
X102462189Y-100585302D01*
X102151120Y-101050849D01*
X102041887Y-101600000D01*
X102151120Y-102149151D01*
X102462189Y-102614698D01*
X102844275Y-102870000D01*
X102462189Y-103125302D01*
X102151120Y-103590849D01*
X102041887Y-104140000D01*
X102151120Y-104689151D01*
X102462189Y-105154698D01*
X102844275Y-105410000D01*
X102462189Y-105665302D01*
X102151120Y-106130849D01*
X102041887Y-106680000D01*
X102151120Y-107229151D01*
X102462189Y-107694698D01*
X102844275Y-107950000D01*
X102462189Y-108205302D01*
X102151120Y-108670849D01*
X102041887Y-109220000D01*
X102151120Y-109769151D01*
X102462189Y-110234698D01*
X102844275Y-110490000D01*
X102462189Y-110745302D01*
X102151120Y-111210849D01*
X102041887Y-111760000D01*
X102151120Y-112309151D01*
X102462189Y-112774698D01*
X102927736Y-113085767D01*
X103476887Y-113195000D01*
X103533113Y-113195000D01*
X104082264Y-113085767D01*
X104547811Y-112774698D01*
X104858880Y-112309151D01*
X104968113Y-111760000D01*
X104858880Y-111210849D01*
X104547811Y-110745302D01*
X104165725Y-110490000D01*
X104547811Y-110234698D01*
X104858880Y-109769151D01*
X104968113Y-109220000D01*
X104858880Y-108670849D01*
X104547811Y-108205302D01*
X104165725Y-107950000D01*
X104547811Y-107694698D01*
X104858880Y-107229151D01*
X104968113Y-106680000D01*
X104858880Y-106130849D01*
X104547811Y-105665302D01*
X104165725Y-105410000D01*
X104547811Y-105154698D01*
X104858880Y-104689151D01*
X104968113Y-104140000D01*
X104858880Y-103590849D01*
X104547811Y-103125302D01*
X104165725Y-102870000D01*
X104547811Y-102614698D01*
X104858880Y-102149151D01*
X104968113Y-101600000D01*
X104858880Y-101050849D01*
X104547811Y-100585302D01*
X104165725Y-100330000D01*
X104547811Y-100074698D01*
X104858880Y-99609151D01*
X104968113Y-99060000D01*
X104858880Y-98510849D01*
X104547811Y-98045302D01*
X104165725Y-97790000D01*
X104547811Y-97534698D01*
X104858880Y-97069151D01*
X104968113Y-96520000D01*
X104858880Y-95970849D01*
X104547811Y-95505302D01*
X104165725Y-95250000D01*
X104547811Y-94994698D01*
X104858880Y-94529151D01*
X104968113Y-93980000D01*
X104858880Y-93430849D01*
X104547811Y-92965302D01*
X104165725Y-92710000D01*
X104547811Y-92454698D01*
X104858880Y-91989151D01*
X104968113Y-91440000D01*
X104858880Y-90890849D01*
X104547811Y-90425302D01*
X104165725Y-90170000D01*
X104547811Y-89914698D01*
X104858880Y-89449151D01*
X104968113Y-88900000D01*
X109661887Y-88900000D01*
X109771120Y-89449151D01*
X110082189Y-89914698D01*
X110365000Y-90103667D01*
X110365000Y-90236333D01*
X110082189Y-90425302D01*
X109771120Y-90890849D01*
X109661887Y-91440000D01*
X109771120Y-91989151D01*
X110082189Y-92454698D01*
X110365000Y-92643667D01*
X110365000Y-92776333D01*
X110082189Y-92965302D01*
X109771120Y-93430849D01*
X109661887Y-93980000D01*
X109771120Y-94529151D01*
X110082189Y-94994698D01*
X110365000Y-95183667D01*
X110365000Y-95316333D01*
X110082189Y-95505302D01*
X109771120Y-95970849D01*
X109661887Y-96520000D01*
X109771120Y-97069151D01*
X110082189Y-97534698D01*
X110365000Y-97723667D01*
X110365000Y-97856333D01*
X110082189Y-98045302D01*
X109771120Y-98510849D01*
X109661887Y-99060000D01*
X109771120Y-99609151D01*
X110082189Y-100074698D01*
X110365000Y-100263667D01*
X110365000Y-100396333D01*
X110082189Y-100585302D01*
X109771120Y-101050849D01*
X109661887Y-101600000D01*
X109771120Y-102149151D01*
X110082189Y-102614698D01*
X110365000Y-102803667D01*
X110365000Y-102936333D01*
X110082189Y-103125302D01*
X109771120Y-103590849D01*
X109661887Y-104140000D01*
X109771120Y-104689151D01*
X110082189Y-105154698D01*
X110365000Y-105343667D01*
X110365000Y-105476333D01*
X110082189Y-105665302D01*
X109771120Y-106130849D01*
X109661887Y-106680000D01*
X109771120Y-107229151D01*
X110082189Y-107694698D01*
X110365000Y-107883667D01*
X110365000Y-108016333D01*
X110082189Y-108205302D01*
X109771120Y-108670849D01*
X109661887Y-109220000D01*
X109771120Y-109769151D01*
X110082189Y-110234698D01*
X110226465Y-110331101D01*
X110089683Y-110356838D01*
X109873559Y-110495910D01*
X109728569Y-110708110D01*
X109677560Y-110960000D01*
X109677560Y-112560000D01*
X109721838Y-112795317D01*
X109860910Y-113011441D01*
X110073110Y-113156431D01*
X110325000Y-113207440D01*
X111925000Y-113207440D01*
X112160317Y-113163162D01*
X112376441Y-113024090D01*
X112521431Y-112811890D01*
X112572440Y-112560000D01*
X112572440Y-110960000D01*
X112528162Y-110724683D01*
X112389090Y-110508559D01*
X112176890Y-110363569D01*
X112021911Y-110332185D01*
X112167811Y-110234698D01*
X112478880Y-109769151D01*
X112588113Y-109220000D01*
X112478880Y-108670849D01*
X112167811Y-108205302D01*
X111885000Y-108016333D01*
X111885000Y-107883667D01*
X112167811Y-107694698D01*
X112478880Y-107229151D01*
X112588113Y-106680000D01*
X112478880Y-106130849D01*
X112167811Y-105665302D01*
X111885000Y-105476333D01*
X111885000Y-105343667D01*
X112167811Y-105154698D01*
X112478880Y-104689151D01*
X112588113Y-104140000D01*
X112478880Y-103590849D01*
X112167811Y-103125302D01*
X111885000Y-102936333D01*
X111885000Y-102803667D01*
X112167811Y-102614698D01*
X112478880Y-102149151D01*
X112588113Y-101600000D01*
X112478880Y-101050849D01*
X112167811Y-100585302D01*
X111885000Y-100396333D01*
X111885000Y-100263667D01*
X112167811Y-100074698D01*
X112478880Y-99609151D01*
X112588113Y-99060000D01*
X112478880Y-98510849D01*
X112167811Y-98045302D01*
X111885000Y-97856333D01*
X111885000Y-97723667D01*
X112167811Y-97534698D01*
X112478880Y-97069151D01*
X112588113Y-96520000D01*
X112478880Y-95970849D01*
X112167811Y-95505302D01*
X111885000Y-95316333D01*
X111885000Y-95183667D01*
X112167811Y-94994698D01*
X112478880Y-94529151D01*
X112588113Y-93980000D01*
X112478880Y-93430849D01*
X112167811Y-92965302D01*
X111885000Y-92776333D01*
X111885000Y-92643667D01*
X112167811Y-92454698D01*
X112478880Y-91989151D01*
X112588113Y-91440000D01*
X112478880Y-90890849D01*
X112167811Y-90425302D01*
X111885000Y-90236333D01*
X111885000Y-90103667D01*
X112167811Y-89914698D01*
X112478880Y-89449151D01*
X112588113Y-88900000D01*
X112478880Y-88350849D01*
X112167811Y-87885302D01*
X111702264Y-87574233D01*
X111153113Y-87465000D01*
X111096887Y-87465000D01*
X110547736Y-87574233D01*
X110082189Y-87885302D01*
X109771120Y-88350849D01*
X109661887Y-88900000D01*
X104968113Y-88900000D01*
X104858880Y-88350849D01*
X104547811Y-87885302D01*
X104082264Y-87574233D01*
X103533113Y-87465000D01*
X103476887Y-87465000D01*
X102927736Y-87574233D01*
X102462189Y-87885302D01*
X102151120Y-88350849D01*
X102041887Y-88900000D01*
X99135000Y-88900000D01*
X99135000Y-81700000D01*
X102007560Y-81700000D01*
X102007560Y-83400000D01*
X102051838Y-83635317D01*
X102190910Y-83851441D01*
X102403110Y-83996431D01*
X102655000Y-84047440D01*
X104355000Y-84047440D01*
X104590317Y-84003162D01*
X104806441Y-83864090D01*
X104951431Y-83651890D01*
X104965086Y-83584459D01*
X104994946Y-83629147D01*
X105476715Y-83951054D01*
X106045000Y-84064093D01*
X106613285Y-83951054D01*
X107095054Y-83629147D01*
X107416961Y-83147378D01*
X107530000Y-82579093D01*
X107530000Y-82520907D01*
X107416961Y-81952622D01*
X107095054Y-81470853D01*
X106613285Y-81148946D01*
X106045000Y-81035907D01*
X105476715Y-81148946D01*
X104994946Y-81470853D01*
X104967150Y-81512452D01*
X104958162Y-81464683D01*
X104819090Y-81248559D01*
X104606890Y-81103569D01*
X104355000Y-81052560D01*
X102655000Y-81052560D01*
X102419683Y-81096838D01*
X102203559Y-81235910D01*
X102058569Y-81448110D01*
X102007560Y-81700000D01*
X99135000Y-81700000D01*
X99135000Y-80645000D01*
X115445000Y-80645000D01*
X115445000Y-86360000D01*
X115502852Y-86650839D01*
X115667599Y-86897401D01*
X117505716Y-88735518D01*
X117503113Y-88735000D01*
X117446887Y-88735000D01*
X116897736Y-88844233D01*
X116432189Y-89155302D01*
X116121120Y-89620849D01*
X116011887Y-90170000D01*
X116121120Y-90719151D01*
X116432189Y-91184698D01*
X116814275Y-91440000D01*
X116432189Y-91695302D01*
X116121120Y-92160849D01*
X116011887Y-92710000D01*
X116121120Y-93259151D01*
X116432189Y-93724698D01*
X116814275Y-93980000D01*
X116432189Y-94235302D01*
X116121120Y-94700849D01*
X116011887Y-95250000D01*
X116121120Y-95799151D01*
X116432189Y-96264698D01*
X116814275Y-96520000D01*
X116432189Y-96775302D01*
X116121120Y-97240849D01*
X116011887Y-97790000D01*
X116121120Y-98339151D01*
X116432189Y-98804698D01*
X116814275Y-99060000D01*
X116432189Y-99315302D01*
X116121120Y-99780849D01*
X116011887Y-100330000D01*
X116121120Y-100879151D01*
X116432189Y-101344698D01*
X116814275Y-101600000D01*
X116432189Y-101855302D01*
X116121120Y-102320849D01*
X116011887Y-102870000D01*
X116121120Y-103419151D01*
X116432189Y-103884698D01*
X116814275Y-104140000D01*
X116432189Y-104395302D01*
X116121120Y-104860849D01*
X116011887Y-105410000D01*
X116121120Y-105959151D01*
X116432189Y-106424698D01*
X116814275Y-106680000D01*
X116432189Y-106935302D01*
X116121120Y-107400849D01*
X116011887Y-107950000D01*
X116121120Y-108499151D01*
X116432189Y-108964698D01*
X116814275Y-109220000D01*
X116432189Y-109475302D01*
X116121120Y-109940849D01*
X116011887Y-110490000D01*
X116121120Y-111039151D01*
X116432189Y-111504698D01*
X116897736Y-111815767D01*
X117446887Y-111925000D01*
X117503113Y-111925000D01*
X118052264Y-111815767D01*
X118517811Y-111504698D01*
X118828880Y-111039151D01*
X118938113Y-110490000D01*
X118828880Y-109940849D01*
X118661268Y-109690000D01*
X123647560Y-109690000D01*
X123647560Y-111290000D01*
X123691838Y-111525317D01*
X123830910Y-111741441D01*
X124043110Y-111886431D01*
X124295000Y-111937440D01*
X125895000Y-111937440D01*
X126130317Y-111893162D01*
X126346441Y-111754090D01*
X126491431Y-111541890D01*
X126542440Y-111290000D01*
X126542440Y-109690000D01*
X126498162Y-109454683D01*
X126359090Y-109238559D01*
X126146890Y-109093569D01*
X125987384Y-109061268D01*
X126161385Y-108869187D01*
X130009752Y-108869187D01*
X130227757Y-109396800D01*
X130631077Y-109800824D01*
X131158309Y-110019750D01*
X131729187Y-110020248D01*
X132256800Y-109802243D01*
X132660824Y-109398923D01*
X132879750Y-108871691D01*
X132880248Y-108300813D01*
X132662243Y-107773200D01*
X132258923Y-107369176D01*
X131731691Y-107150250D01*
X131160813Y-107149752D01*
X130633200Y-107367757D01*
X130229176Y-107771077D01*
X130010250Y-108298309D01*
X130009752Y-108869187D01*
X126161385Y-108869187D01*
X126326041Y-108687423D01*
X126486904Y-108299039D01*
X126364915Y-108077000D01*
X125222000Y-108077000D01*
X125222000Y-108097000D01*
X124968000Y-108097000D01*
X124968000Y-108077000D01*
X123825085Y-108077000D01*
X123703096Y-108299039D01*
X123863959Y-108687423D01*
X124201590Y-109060136D01*
X124059683Y-109086838D01*
X123843559Y-109225910D01*
X123698569Y-109438110D01*
X123647560Y-109690000D01*
X118661268Y-109690000D01*
X118517811Y-109475302D01*
X118135725Y-109220000D01*
X118517811Y-108964698D01*
X118828880Y-108499151D01*
X118938113Y-107950000D01*
X118828880Y-107400849D01*
X118517811Y-106935302D01*
X118135725Y-106680000D01*
X118517811Y-106424698D01*
X118828880Y-105959151D01*
X118938113Y-105410000D01*
X118828880Y-104860849D01*
X118517811Y-104395302D01*
X118135725Y-104140000D01*
X118517811Y-103884698D01*
X118828880Y-103419151D01*
X118938113Y-102870000D01*
X118828880Y-102320849D01*
X118517811Y-101855302D01*
X118135725Y-101600000D01*
X118517811Y-101344698D01*
X118828880Y-100879151D01*
X118938113Y-100330000D01*
X118828880Y-99780849D01*
X118517811Y-99315302D01*
X118135725Y-99060000D01*
X118517811Y-98804698D01*
X118828880Y-98339151D01*
X118938113Y-97790000D01*
X118828880Y-97240849D01*
X118517811Y-96775302D01*
X118135725Y-96520000D01*
X118517811Y-96264698D01*
X118828880Y-95799151D01*
X118938113Y-95250000D01*
X118937595Y-95247397D01*
X121619878Y-97929680D01*
X121619838Y-97975167D01*
X121761883Y-98318943D01*
X122024673Y-98582192D01*
X122368201Y-98724838D01*
X122740167Y-98725162D01*
X123065000Y-98590944D01*
X123065000Y-104140000D01*
X123122852Y-104430839D01*
X123287599Y-104677401D01*
X123696312Y-105086114D01*
X123631887Y-105410000D01*
X123741120Y-105959151D01*
X124052189Y-106424698D01*
X124456703Y-106694986D01*
X124239866Y-106797611D01*
X123863959Y-107212577D01*
X123703096Y-107600961D01*
X123825085Y-107823000D01*
X124968000Y-107823000D01*
X124968000Y-107803000D01*
X125222000Y-107803000D01*
X125222000Y-107823000D01*
X126364915Y-107823000D01*
X126486904Y-107600961D01*
X126326041Y-107212577D01*
X125950134Y-106797611D01*
X125733297Y-106694986D01*
X126137811Y-106424698D01*
X126448880Y-105959151D01*
X126558113Y-105410000D01*
X126448880Y-104860849D01*
X126137811Y-104395302D01*
X125755725Y-104140000D01*
X126137811Y-103884698D01*
X126448880Y-103419151D01*
X126558113Y-102870000D01*
X126448880Y-102320849D01*
X126137811Y-101855302D01*
X125755725Y-101600000D01*
X126137811Y-101344698D01*
X126448880Y-100879151D01*
X126558113Y-100330000D01*
X126448880Y-99780849D01*
X126137811Y-99315302D01*
X125755725Y-99060000D01*
X126137811Y-98804698D01*
X126448880Y-98339151D01*
X126453828Y-98314275D01*
X126462599Y-98327401D01*
X130527986Y-102392788D01*
X130229176Y-102691077D01*
X130010250Y-103218309D01*
X130009752Y-103789187D01*
X130227757Y-104316800D01*
X130631077Y-104720824D01*
X131158309Y-104939750D01*
X131729187Y-104940248D01*
X132256800Y-104722243D01*
X132660824Y-104318923D01*
X132879750Y-103791691D01*
X132880248Y-103220813D01*
X132662243Y-102693200D01*
X132258923Y-102289176D01*
X132205000Y-102266785D01*
X132205000Y-102235000D01*
X132187569Y-102147371D01*
X137670000Y-107629802D01*
X137670000Y-108022537D01*
X137637808Y-108054673D01*
X137495162Y-108398201D01*
X137494838Y-108770167D01*
X137636883Y-109113943D01*
X137899673Y-109377192D01*
X138243201Y-109519838D01*
X138615167Y-109520162D01*
X138958943Y-109378117D01*
X139222192Y-109115327D01*
X139297469Y-108934039D01*
X140213096Y-108934039D01*
X140373959Y-109322423D01*
X140749866Y-109737389D01*
X141255959Y-109976914D01*
X141478000Y-109855629D01*
X141478000Y-108712000D01*
X141732000Y-108712000D01*
X141732000Y-109855629D01*
X141954041Y-109976914D01*
X142460134Y-109737389D01*
X142669592Y-109506167D01*
X143969750Y-109506167D01*
X144189275Y-110037457D01*
X144595405Y-110444297D01*
X145126311Y-110664748D01*
X145701167Y-110665250D01*
X146232457Y-110445725D01*
X146639297Y-110039595D01*
X146859748Y-109508689D01*
X146860250Y-108933833D01*
X146640725Y-108402543D01*
X146234595Y-107995703D01*
X145703689Y-107775252D01*
X145128833Y-107774750D01*
X144597543Y-107994275D01*
X144190703Y-108400405D01*
X143970252Y-108931311D01*
X143969750Y-109506167D01*
X142669592Y-109506167D01*
X142836041Y-109322423D01*
X142996904Y-108934039D01*
X142874915Y-108712000D01*
X141732000Y-108712000D01*
X141478000Y-108712000D01*
X140335085Y-108712000D01*
X140213096Y-108934039D01*
X139297469Y-108934039D01*
X139364838Y-108771799D01*
X139365162Y-108399833D01*
X139297452Y-108235961D01*
X140213096Y-108235961D01*
X140335085Y-108458000D01*
X141478000Y-108458000D01*
X141478000Y-107314371D01*
X141732000Y-107314371D01*
X141732000Y-108458000D01*
X142874915Y-108458000D01*
X142996904Y-108235961D01*
X142836041Y-107847577D01*
X142460134Y-107432611D01*
X141954041Y-107193086D01*
X141732000Y-107314371D01*
X141478000Y-107314371D01*
X141255959Y-107193086D01*
X140749866Y-107432611D01*
X140373959Y-107847577D01*
X140213096Y-108235961D01*
X139297452Y-108235961D01*
X139223117Y-108056057D01*
X139190000Y-108022882D01*
X139190000Y-107315000D01*
X139132148Y-107024161D01*
X139120125Y-107006167D01*
X148969750Y-107006167D01*
X149189275Y-107537457D01*
X149595405Y-107944297D01*
X150126311Y-108164748D01*
X150701167Y-108165250D01*
X151232457Y-107945725D01*
X151639297Y-107539595D01*
X151859748Y-107008689D01*
X151860250Y-106433833D01*
X151640725Y-105902543D01*
X151472272Y-105733795D01*
X153154716Y-105733795D01*
X153403106Y-106334943D01*
X153862637Y-106795278D01*
X154463352Y-107044716D01*
X155113795Y-107045284D01*
X155714943Y-106796894D01*
X156175278Y-106337363D01*
X156424716Y-105736648D01*
X156424718Y-105733795D01*
X159654716Y-105733795D01*
X159903106Y-106334943D01*
X160362637Y-106795278D01*
X160963352Y-107044716D01*
X161613795Y-107045284D01*
X162214943Y-106796894D01*
X162675278Y-106337363D01*
X162924716Y-105736648D01*
X162925284Y-105086205D01*
X162676894Y-104485057D01*
X162217363Y-104024722D01*
X161616648Y-103775284D01*
X160966205Y-103774716D01*
X160365057Y-104023106D01*
X159904722Y-104482637D01*
X159655284Y-105083352D01*
X159654716Y-105733795D01*
X156424718Y-105733795D01*
X156425284Y-105086205D01*
X156176894Y-104485057D01*
X155717363Y-104024722D01*
X155116648Y-103775284D01*
X154466205Y-103774716D01*
X153865057Y-104023106D01*
X153404722Y-104482637D01*
X153155284Y-105083352D01*
X153154716Y-105733795D01*
X151472272Y-105733795D01*
X151234595Y-105495703D01*
X150703689Y-105275252D01*
X150128833Y-105274750D01*
X149597543Y-105494275D01*
X149190703Y-105900405D01*
X148970252Y-106431311D01*
X148969750Y-107006167D01*
X139120125Y-107006167D01*
X138967401Y-106777599D01*
X135694802Y-103505000D01*
X140141887Y-103505000D01*
X140251120Y-104054151D01*
X140562189Y-104519698D01*
X141027736Y-104830767D01*
X141576887Y-104940000D01*
X141633113Y-104940000D01*
X142182264Y-104830767D01*
X142647811Y-104519698D01*
X142656852Y-104506167D01*
X143969750Y-104506167D01*
X144189275Y-105037457D01*
X144595405Y-105444297D01*
X145126311Y-105664748D01*
X145701167Y-105665250D01*
X146232457Y-105445725D01*
X146639297Y-105039595D01*
X146859748Y-104508689D01*
X146860250Y-103933833D01*
X146640725Y-103402543D01*
X146234595Y-102995703D01*
X145703689Y-102775252D01*
X145128833Y-102774750D01*
X144597543Y-102994275D01*
X144190703Y-103400405D01*
X143970252Y-103931311D01*
X143969750Y-104506167D01*
X142656852Y-104506167D01*
X142958880Y-104054151D01*
X143068113Y-103505000D01*
X142958880Y-102955849D01*
X142647811Y-102490302D01*
X142182264Y-102179233D01*
X141633113Y-102070000D01*
X141576887Y-102070000D01*
X141027736Y-102179233D01*
X140562189Y-102490302D01*
X140251120Y-102955849D01*
X140141887Y-103505000D01*
X135694802Y-103505000D01*
X131549894Y-99360092D01*
X131630167Y-99360162D01*
X131664037Y-99346167D01*
X143969750Y-99346167D01*
X144189275Y-99877457D01*
X144595405Y-100284297D01*
X145126311Y-100504748D01*
X145701167Y-100505250D01*
X146232457Y-100285725D01*
X146639297Y-99879595D01*
X146859748Y-99348689D01*
X146860250Y-98773833D01*
X146640725Y-98242543D01*
X146234595Y-97835703D01*
X145703689Y-97615252D01*
X145128833Y-97614750D01*
X144597543Y-97834275D01*
X144190703Y-98240405D01*
X143970252Y-98771311D01*
X143969750Y-99346167D01*
X131664037Y-99346167D01*
X131973943Y-99218117D01*
X132237192Y-98955327D01*
X132379838Y-98611799D01*
X132379879Y-98564923D01*
X134759680Y-96185122D01*
X134805167Y-96185162D01*
X135148943Y-96043117D01*
X135412192Y-95780327D01*
X135487469Y-95599039D01*
X140213096Y-95599039D01*
X140373959Y-95987423D01*
X140749866Y-96402389D01*
X141255959Y-96641914D01*
X141478000Y-96520629D01*
X141478000Y-95377000D01*
X141732000Y-95377000D01*
X141732000Y-96520629D01*
X141954041Y-96641914D01*
X142460134Y-96402389D01*
X142836041Y-95987423D01*
X142996904Y-95599039D01*
X142874915Y-95377000D01*
X141732000Y-95377000D01*
X141478000Y-95377000D01*
X140335085Y-95377000D01*
X140213096Y-95599039D01*
X135487469Y-95599039D01*
X135554838Y-95436799D01*
X135555162Y-95064833D01*
X135487452Y-94900961D01*
X140213096Y-94900961D01*
X140335085Y-95123000D01*
X141478000Y-95123000D01*
X141478000Y-93979371D01*
X141732000Y-93979371D01*
X141732000Y-95123000D01*
X142874915Y-95123000D01*
X142901292Y-95074988D01*
X144579617Y-95074988D01*
X144654980Y-95322144D01*
X145195834Y-95516916D01*
X145770055Y-95489886D01*
X146175020Y-95322144D01*
X146250383Y-95074988D01*
X145415000Y-94239605D01*
X144579617Y-95074988D01*
X142901292Y-95074988D01*
X142996904Y-94900961D01*
X142836041Y-94512577D01*
X142460134Y-94097611D01*
X141954041Y-93858086D01*
X141732000Y-93979371D01*
X141478000Y-93979371D01*
X141255959Y-93858086D01*
X140749866Y-94097611D01*
X140373959Y-94512577D01*
X140213096Y-94900961D01*
X135487452Y-94900961D01*
X135413117Y-94721057D01*
X135150327Y-94457808D01*
X134806799Y-94315162D01*
X134434833Y-94314838D01*
X134091057Y-94456883D01*
X133827808Y-94719673D01*
X133685162Y-95063201D01*
X133685121Y-95110077D01*
X131305320Y-97489878D01*
X131259833Y-97489838D01*
X130916057Y-97631883D01*
X130652808Y-97894673D01*
X130510162Y-98238201D01*
X130510090Y-98320288D01*
X129205122Y-97015320D01*
X129205162Y-96969833D01*
X129063117Y-96626057D01*
X128800327Y-96362808D01*
X128456799Y-96220162D01*
X128084833Y-96219838D01*
X127760000Y-96354056D01*
X127760000Y-95564802D01*
X127790615Y-95534187D01*
X130009752Y-95534187D01*
X130227757Y-96061800D01*
X130631077Y-96465824D01*
X131158309Y-96684750D01*
X131729187Y-96685248D01*
X132256800Y-96467243D01*
X132660824Y-96063923D01*
X132879750Y-95536691D01*
X132880248Y-94965813D01*
X132662243Y-94438200D01*
X132258923Y-94034176D01*
X131793305Y-93840834D01*
X143958084Y-93840834D01*
X143985114Y-94415055D01*
X144152856Y-94820020D01*
X144400012Y-94895383D01*
X145235395Y-94060000D01*
X145594605Y-94060000D01*
X146429988Y-94895383D01*
X146677144Y-94820020D01*
X146871916Y-94279166D01*
X146844886Y-93704945D01*
X146677144Y-93299980D01*
X146429988Y-93224617D01*
X145594605Y-94060000D01*
X145235395Y-94060000D01*
X144400012Y-93224617D01*
X144152856Y-93299980D01*
X143958084Y-93840834D01*
X131793305Y-93840834D01*
X131731691Y-93815250D01*
X131160813Y-93814752D01*
X130633200Y-94032757D01*
X130229176Y-94436077D01*
X130010250Y-94963309D01*
X130009752Y-95534187D01*
X127790615Y-95534187D01*
X128172401Y-95152401D01*
X128337148Y-94905839D01*
X128395000Y-94615000D01*
X128395000Y-93045012D01*
X144579617Y-93045012D01*
X145415000Y-93880395D01*
X146250383Y-93045012D01*
X146175020Y-92797856D01*
X145634166Y-92603084D01*
X145059945Y-92630114D01*
X144654980Y-92797856D01*
X144579617Y-93045012D01*
X128395000Y-93045012D01*
X128395000Y-87344039D01*
X135133096Y-87344039D01*
X135293959Y-87732423D01*
X135669866Y-88147389D01*
X136175959Y-88386914D01*
X136398000Y-88265629D01*
X136398000Y-87122000D01*
X136652000Y-87122000D01*
X136652000Y-88265629D01*
X136874041Y-88386914D01*
X137380134Y-88147389D01*
X137756041Y-87732423D01*
X137916904Y-87344039D01*
X137794915Y-87122000D01*
X136652000Y-87122000D01*
X136398000Y-87122000D01*
X135255085Y-87122000D01*
X135133096Y-87344039D01*
X128395000Y-87344039D01*
X128395000Y-86645961D01*
X135133096Y-86645961D01*
X135255085Y-86868000D01*
X136398000Y-86868000D01*
X136398000Y-85724371D01*
X136652000Y-85724371D01*
X136652000Y-86868000D01*
X137794915Y-86868000D01*
X137916904Y-86645961D01*
X137756041Y-86257577D01*
X137380134Y-85842611D01*
X136874041Y-85603086D01*
X136652000Y-85724371D01*
X136398000Y-85724371D01*
X136175959Y-85603086D01*
X135669866Y-85842611D01*
X135293959Y-86257577D01*
X135133096Y-86645961D01*
X128395000Y-86645961D01*
X128395000Y-86360000D01*
X128337148Y-86069161D01*
X128172401Y-85822599D01*
X125185552Y-82835750D01*
X135675000Y-82835750D01*
X135675000Y-83526309D01*
X135771673Y-83759698D01*
X135950301Y-83938327D01*
X136183690Y-84035000D01*
X136874250Y-84035000D01*
X137033000Y-83876250D01*
X137033000Y-82677000D01*
X135833750Y-82677000D01*
X135675000Y-82835750D01*
X125185552Y-82835750D01*
X123923493Y-81573691D01*
X135675000Y-81573691D01*
X135675000Y-82264250D01*
X135833750Y-82423000D01*
X137033000Y-82423000D01*
X137033000Y-81223750D01*
X137287000Y-81223750D01*
X137287000Y-82423000D01*
X137307000Y-82423000D01*
X137307000Y-82677000D01*
X137287000Y-82677000D01*
X137287000Y-83876250D01*
X137445750Y-84035000D01*
X138136310Y-84035000D01*
X138369699Y-83938327D01*
X138548327Y-83759698D01*
X138620597Y-83585223D01*
X138649946Y-83629147D01*
X139131715Y-83951054D01*
X139700000Y-84064093D01*
X140268285Y-83951054D01*
X140750054Y-83629147D01*
X141071961Y-83147378D01*
X141133947Y-82835750D01*
X142025000Y-82835750D01*
X142025000Y-83526309D01*
X142121673Y-83759698D01*
X142300301Y-83938327D01*
X142533690Y-84035000D01*
X143224250Y-84035000D01*
X143383000Y-83876250D01*
X143383000Y-82677000D01*
X142183750Y-82677000D01*
X142025000Y-82835750D01*
X141133947Y-82835750D01*
X141185000Y-82579093D01*
X141185000Y-82520907D01*
X141071961Y-81952622D01*
X140818768Y-81573691D01*
X142025000Y-81573691D01*
X142025000Y-82264250D01*
X142183750Y-82423000D01*
X143383000Y-82423000D01*
X143383000Y-81223750D01*
X143637000Y-81223750D01*
X143637000Y-82423000D01*
X143657000Y-82423000D01*
X143657000Y-82677000D01*
X143637000Y-82677000D01*
X143637000Y-83876250D01*
X143795750Y-84035000D01*
X144486310Y-84035000D01*
X144719699Y-83938327D01*
X144898327Y-83759698D01*
X144970597Y-83585223D01*
X144999946Y-83629147D01*
X145290000Y-83822954D01*
X145290000Y-86360000D01*
X145323969Y-86530773D01*
X145250250Y-86708309D01*
X145249752Y-87279187D01*
X145467757Y-87806800D01*
X145871077Y-88210824D01*
X145925000Y-88233215D01*
X145925000Y-90170000D01*
X145982852Y-90460839D01*
X146147599Y-90707401D01*
X150555320Y-95115122D01*
X150128833Y-95114750D01*
X149597543Y-95334275D01*
X149190703Y-95740405D01*
X148970252Y-96271311D01*
X148969750Y-96846167D01*
X149189275Y-97377457D01*
X149595405Y-97784297D01*
X150126311Y-98004748D01*
X150701167Y-98005250D01*
X151021489Y-97872895D01*
X151062852Y-98080839D01*
X151227599Y-98327401D01*
X153251598Y-100351400D01*
X153155284Y-100583352D01*
X153154716Y-101233795D01*
X153403106Y-101834943D01*
X153862637Y-102295278D01*
X154463352Y-102544716D01*
X155113795Y-102545284D01*
X155714943Y-102296894D01*
X156175278Y-101837363D01*
X156424716Y-101236648D01*
X156424718Y-101233795D01*
X159654716Y-101233795D01*
X159903106Y-101834943D01*
X160362637Y-102295278D01*
X160963352Y-102544716D01*
X161613795Y-102545284D01*
X162214943Y-102296894D01*
X162675278Y-101837363D01*
X162924716Y-101236648D01*
X162925284Y-100586205D01*
X162676894Y-99985057D01*
X162217363Y-99524722D01*
X161616648Y-99275284D01*
X160966205Y-99274716D01*
X160365057Y-99523106D01*
X159904722Y-99982637D01*
X159655284Y-100583352D01*
X159654716Y-101233795D01*
X156424718Y-101233795D01*
X156425284Y-100586205D01*
X156176894Y-99985057D01*
X155717363Y-99524722D01*
X155116648Y-99275284D01*
X154466205Y-99274716D01*
X154365945Y-99316143D01*
X152525000Y-97475198D01*
X152525000Y-96263795D01*
X153304716Y-96263795D01*
X153553106Y-96864943D01*
X154012637Y-97325278D01*
X154613352Y-97574716D01*
X155263795Y-97575284D01*
X155864943Y-97326894D01*
X156325278Y-96867363D01*
X156574716Y-96266648D01*
X156574718Y-96263795D01*
X159804716Y-96263795D01*
X160053106Y-96864943D01*
X160512637Y-97325278D01*
X161113352Y-97574716D01*
X161763795Y-97575284D01*
X162364943Y-97326894D01*
X162825278Y-96867363D01*
X163074716Y-96266648D01*
X163075284Y-95616205D01*
X162826894Y-95015057D01*
X162367363Y-94554722D01*
X161766648Y-94305284D01*
X161116205Y-94304716D01*
X160515057Y-94553106D01*
X160054722Y-95012637D01*
X159805284Y-95613352D01*
X159804716Y-96263795D01*
X156574718Y-96263795D01*
X156575284Y-95616205D01*
X156326894Y-95015057D01*
X155867363Y-94554722D01*
X155266648Y-94305284D01*
X154616205Y-94304716D01*
X154015057Y-94553106D01*
X153554722Y-95012637D01*
X153305284Y-95613352D01*
X153304716Y-96263795D01*
X152525000Y-96263795D01*
X152525000Y-95250000D01*
X152467148Y-94959161D01*
X152302401Y-94712599D01*
X147445000Y-89855198D01*
X147445000Y-88233646D01*
X147496800Y-88212243D01*
X147900824Y-87808923D01*
X148119750Y-87281691D01*
X148120248Y-86710813D01*
X147902243Y-86183200D01*
X147498923Y-85779176D01*
X146971691Y-85560250D01*
X146810000Y-85560109D01*
X146810000Y-83822954D01*
X147100054Y-83629147D01*
X147421961Y-83147378D01*
X147483947Y-82835750D01*
X150280000Y-82835750D01*
X150280000Y-83526309D01*
X150376673Y-83759698D01*
X150555301Y-83938327D01*
X150788690Y-84035000D01*
X151479250Y-84035000D01*
X151638000Y-83876250D01*
X151638000Y-82677000D01*
X150438750Y-82677000D01*
X150280000Y-82835750D01*
X147483947Y-82835750D01*
X147535000Y-82579093D01*
X147535000Y-82520907D01*
X147421961Y-81952622D01*
X147168768Y-81573691D01*
X150280000Y-81573691D01*
X150280000Y-82264250D01*
X150438750Y-82423000D01*
X151638000Y-82423000D01*
X151638000Y-81223750D01*
X151892000Y-81223750D01*
X151892000Y-82423000D01*
X151912000Y-82423000D01*
X151912000Y-82677000D01*
X151892000Y-82677000D01*
X151892000Y-83876250D01*
X152050750Y-84035000D01*
X152741310Y-84035000D01*
X152974699Y-83938327D01*
X153153327Y-83759698D01*
X153225597Y-83585223D01*
X153254946Y-83629147D01*
X153736715Y-83951054D01*
X154180000Y-84039229D01*
X154180000Y-89984953D01*
X154015057Y-90053106D01*
X153554722Y-90512637D01*
X153305284Y-91113352D01*
X153304716Y-91763795D01*
X153553106Y-92364943D01*
X154012637Y-92825278D01*
X154613352Y-93074716D01*
X155263795Y-93075284D01*
X155864943Y-92826894D01*
X156325278Y-92367363D01*
X156574716Y-91766648D01*
X156574718Y-91763795D01*
X159804716Y-91763795D01*
X160053106Y-92364943D01*
X160512637Y-92825278D01*
X161113352Y-93074716D01*
X161763795Y-93075284D01*
X162364943Y-92826894D01*
X162825278Y-92367363D01*
X163074716Y-91766648D01*
X163075284Y-91116205D01*
X162826894Y-90515057D01*
X162367363Y-90054722D01*
X161766648Y-89805284D01*
X161116205Y-89804716D01*
X160515057Y-90053106D01*
X160054722Y-90512637D01*
X159805284Y-91113352D01*
X159804716Y-91763795D01*
X156574718Y-91763795D01*
X156575284Y-91116205D01*
X156326894Y-90515057D01*
X155867363Y-90054722D01*
X155700000Y-89985227D01*
X155700000Y-83185000D01*
X155684739Y-83108277D01*
X155790000Y-82579093D01*
X155790000Y-82520907D01*
X155676961Y-81952622D01*
X155355054Y-81470853D01*
X154873285Y-81148946D01*
X154305000Y-81035907D01*
X153736715Y-81148946D01*
X153254946Y-81470853D01*
X153225597Y-81514777D01*
X153153327Y-81340302D01*
X152974699Y-81161673D01*
X152741310Y-81065000D01*
X152050750Y-81065000D01*
X151892000Y-81223750D01*
X151638000Y-81223750D01*
X151479250Y-81065000D01*
X150788690Y-81065000D01*
X150555301Y-81161673D01*
X150376673Y-81340302D01*
X150280000Y-81573691D01*
X147168768Y-81573691D01*
X147100054Y-81470853D01*
X146618285Y-81148946D01*
X146050000Y-81035907D01*
X145481715Y-81148946D01*
X144999946Y-81470853D01*
X144970597Y-81514777D01*
X144898327Y-81340302D01*
X144719699Y-81161673D01*
X144486310Y-81065000D01*
X143795750Y-81065000D01*
X143637000Y-81223750D01*
X143383000Y-81223750D01*
X143224250Y-81065000D01*
X142533690Y-81065000D01*
X142300301Y-81161673D01*
X142121673Y-81340302D01*
X142025000Y-81573691D01*
X140818768Y-81573691D01*
X140750054Y-81470853D01*
X140268285Y-81148946D01*
X139700000Y-81035907D01*
X139131715Y-81148946D01*
X138649946Y-81470853D01*
X138620597Y-81514777D01*
X138548327Y-81340302D01*
X138369699Y-81161673D01*
X138136310Y-81065000D01*
X137445750Y-81065000D01*
X137287000Y-81223750D01*
X137033000Y-81223750D01*
X136874250Y-81065000D01*
X136183690Y-81065000D01*
X135950301Y-81161673D01*
X135771673Y-81340302D01*
X135675000Y-81573691D01*
X123923493Y-81573691D01*
X122220122Y-79870320D01*
X122220162Y-79824833D01*
X122078117Y-79481057D01*
X121815327Y-79217808D01*
X121471799Y-79075162D01*
X121099833Y-79074838D01*
X120756057Y-79216883D01*
X120492808Y-79479673D01*
X120350162Y-79823201D01*
X120349838Y-80195167D01*
X120491883Y-80538943D01*
X120754673Y-80802192D01*
X121098201Y-80944838D01*
X121145077Y-80944879D01*
X126875000Y-86674802D01*
X126875000Y-94300198D01*
X126462599Y-94712599D01*
X126453828Y-94725725D01*
X126448880Y-94700849D01*
X126137811Y-94235302D01*
X125733297Y-93965014D01*
X125950134Y-93862389D01*
X126326041Y-93447423D01*
X126486904Y-93059039D01*
X126364915Y-92837000D01*
X125222000Y-92837000D01*
X125222000Y-92857000D01*
X124968000Y-92857000D01*
X124968000Y-92837000D01*
X124948000Y-92837000D01*
X124948000Y-92583000D01*
X124968000Y-92583000D01*
X124968000Y-92563000D01*
X125222000Y-92563000D01*
X125222000Y-92583000D01*
X126364915Y-92583000D01*
X126486904Y-92360961D01*
X126326041Y-91972577D01*
X125950134Y-91557611D01*
X125733297Y-91454986D01*
X126137811Y-91184698D01*
X126448880Y-90719151D01*
X126558113Y-90170000D01*
X126448880Y-89620849D01*
X126137811Y-89155302D01*
X125672264Y-88844233D01*
X125123113Y-88735000D01*
X125066887Y-88735000D01*
X124517736Y-88844233D01*
X124332683Y-88967881D01*
X118710061Y-83345259D01*
X118710214Y-83170421D01*
X118595422Y-82892603D01*
X118613327Y-82874698D01*
X118710000Y-82641309D01*
X118710000Y-82200750D01*
X118551250Y-82042000D01*
X117602000Y-82042000D01*
X117602000Y-82062000D01*
X117348000Y-82062000D01*
X117348000Y-82042000D01*
X117328000Y-82042000D01*
X117328000Y-81788000D01*
X117348000Y-81788000D01*
X117348000Y-80838750D01*
X117602000Y-80838750D01*
X117602000Y-81788000D01*
X118551250Y-81788000D01*
X118710000Y-81629250D01*
X118710000Y-81188691D01*
X118613327Y-80955302D01*
X118434699Y-80776673D01*
X118201310Y-80680000D01*
X117760750Y-80680000D01*
X117602000Y-80838750D01*
X117348000Y-80838750D01*
X117217026Y-80707776D01*
X118012401Y-79912401D01*
X118177148Y-79665840D01*
X118235000Y-79375000D01*
X118235000Y-77438646D01*
X118286800Y-77417243D01*
X118690824Y-77013923D01*
X118883860Y-76549039D01*
X126243096Y-76549039D01*
X126403959Y-76937423D01*
X126779866Y-77352389D01*
X127285959Y-77591914D01*
X127508000Y-77470629D01*
X127508000Y-76327000D01*
X127762000Y-76327000D01*
X127762000Y-77470629D01*
X127984041Y-77591914D01*
X128490134Y-77352389D01*
X128866041Y-76937423D01*
X129026904Y-76549039D01*
X128904915Y-76327000D01*
X127762000Y-76327000D01*
X127508000Y-76327000D01*
X126365085Y-76327000D01*
X126243096Y-76549039D01*
X118883860Y-76549039D01*
X118909750Y-76486691D01*
X118910248Y-75915813D01*
X118883452Y-75850961D01*
X126243096Y-75850961D01*
X126365085Y-76073000D01*
X127508000Y-76073000D01*
X127508000Y-74929371D01*
X127762000Y-74929371D01*
X127762000Y-76073000D01*
X128904915Y-76073000D01*
X129026904Y-75850961D01*
X128866041Y-75462577D01*
X128490134Y-75047611D01*
X127984041Y-74808086D01*
X127762000Y-74929371D01*
X127508000Y-74929371D01*
X127285959Y-74808086D01*
X126779866Y-75047611D01*
X126403959Y-75462577D01*
X126243096Y-75850961D01*
X118883452Y-75850961D01*
X118692243Y-75388200D01*
X118288923Y-74984176D01*
X117761691Y-74765250D01*
X117190813Y-74764752D01*
X116663200Y-74982757D01*
X116259176Y-75386077D01*
X116040250Y-75913309D01*
X116039752Y-76484187D01*
X116257757Y-77011800D01*
X116661077Y-77415824D01*
X116715000Y-77438215D01*
X116715000Y-79060198D01*
X115667599Y-80107599D01*
X115502852Y-80354161D01*
X115445000Y-80645000D01*
X99135000Y-80645000D01*
X99135000Y-75636875D01*
X99575727Y-76703515D01*
X100456847Y-77586174D01*
X101608674Y-78064454D01*
X102855854Y-78065543D01*
X104008515Y-77589273D01*
X104477856Y-77120750D01*
X108320000Y-77120750D01*
X108320000Y-77861309D01*
X108416673Y-78094698D01*
X108595301Y-78273327D01*
X108828690Y-78370000D01*
X109569250Y-78370000D01*
X109728000Y-78211250D01*
X109728000Y-76962000D01*
X109982000Y-76962000D01*
X109982000Y-78211250D01*
X110140750Y-78370000D01*
X110881310Y-78370000D01*
X111114699Y-78273327D01*
X111293327Y-78094698D01*
X111390000Y-77861309D01*
X111390000Y-77120750D01*
X111231250Y-76962000D01*
X109982000Y-76962000D01*
X109728000Y-76962000D01*
X108478750Y-76962000D01*
X108320000Y-77120750D01*
X104477856Y-77120750D01*
X104891174Y-76708153D01*
X105369454Y-75556326D01*
X105370289Y-74598991D01*
X108319735Y-74598991D01*
X108552932Y-75163371D01*
X108730092Y-75340841D01*
X108595301Y-75396673D01*
X108416673Y-75575302D01*
X108320000Y-75808691D01*
X108320000Y-76549250D01*
X108478750Y-76708000D01*
X109728000Y-76708000D01*
X109728000Y-76688000D01*
X109982000Y-76688000D01*
X109982000Y-76708000D01*
X111231250Y-76708000D01*
X111390000Y-76549250D01*
X111390000Y-75808691D01*
X111293327Y-75575302D01*
X111114699Y-75396673D01*
X110980006Y-75340881D01*
X111155551Y-75165643D01*
X111389733Y-74601670D01*
X111390265Y-73991009D01*
X111157068Y-73426629D01*
X110725643Y-72994449D01*
X110161670Y-72760267D01*
X109551009Y-72759735D01*
X108986629Y-72992932D01*
X108554449Y-73424357D01*
X108320267Y-73988330D01*
X108319735Y-74598991D01*
X105370289Y-74598991D01*
X105370543Y-74309146D01*
X104894273Y-73156485D01*
X104013153Y-72273826D01*
X102944301Y-71830000D01*
X159948125Y-71830000D01*
X158881485Y-72270727D01*
M02*
